<?xml version="1.0" encoding="iso-8859-1"?>
<!-- Generator: Adobe Illustrator 16.0.0, SVG Export Plug-In . SVG Version: 6.00 Build 0)  -->
<!DOCTYPE svg PUBLIC "-//W3C//DTD SVG 1.1//EN" "http://www.w3.org/Graphics/SVG/1.1/DTD/svg11.dtd">
<svg version="1.1" id="Layer_13" xmlns="http://www.w3.org/2000/svg" xmlns:xlink="http://www.w3.org/1999/xlink" x="0px" y="0px"
	 width="640px" height="400px" viewBox="0 0 640 400" style="enable-background:new 0 0 640 400;" xml:space="preserve">
<g>
	<path style="fill:#C462B2;" d="M276.346,135.722c2.765,0,4.18,1.518,4.18,1.518l-0.796,1.204c0,0-1.333-1.254-3.32-1.254
		c-2.568,0-4.244,1.953-4.244,4.397c0,2.458,1.708,4.545,4.26,4.545c2.165,0,3.545-1.5,3.545-1.5l0.862,1.159
		c0,0-1.576,1.819-4.456,1.819c-3.449,0-5.872-2.635-5.872-6.008C270.507,138.264,273.012,135.722,276.346,135.722z"/>
	<path style="fill:#C462B2;" d="M282.589,139.175h1.579v4.919c0,1.143,0.228,2.054,1.546,2.054c1.674,0,2.665-1.484,2.665-3.111
		v-3.861h1.579v8.243h-1.529v-1.094c0-0.34,0.031-0.603,0.031-0.603h-0.031c-0.342,0.816-1.416,1.889-3.027,1.889
		c-1.852,0-2.813-0.975-2.813-3.156V139.175z"/>
	<path style="fill:#C462B2;" d="M292.526,145.282c0,0,0.928,0.963,2.359,0.963c0.684,0,1.365-0.361,1.365-1.028
		c0-1.513-4.228-1.203-4.228-3.892c0-1.497,1.334-2.347,2.976-2.347c1.805,0,2.65,0.914,2.65,0.914l-0.632,1.189
		c0,0-0.733-0.733-2.032-0.733c-0.685,0-1.351,0.293-1.351,1.011c0,1.481,4.228,1.155,4.228,3.857c0,1.369-1.171,2.394-2.975,2.394
		c-2.016,0-3.123-1.202-3.123-1.202L292.526,145.282z"/>
	<path style="fill:#C462B2;" d="M300.056,140.561h-1.072v-1.27h1.123v-2.379h1.529v2.379h1.982v1.27h-1.982v3.664
		c0,1.646,1.153,1.857,1.755,1.857c0.227,0,0.373-0.034,0.373-0.034v1.399c0,0-0.228,0.035-0.553,0.035
		c-1.057,0-3.155-0.326-3.155-3.078V140.561z"/>
	<path style="fill:#C462B2;" d="M309.375,138.979c2.455,0,4.439,1.81,4.439,4.302c0,2.511-1.984,4.33-4.439,4.33
		c-2.457,0-4.44-1.819-4.44-4.33C304.935,140.788,306.918,138.979,309.375,138.979z M309.375,146.245c1.561,0,2.83-1.239,2.83-2.965
		c0-1.711-1.269-2.932-2.83-2.932c-1.545,0-2.831,1.221-2.831,2.932C306.544,145.006,307.83,146.245,309.375,146.245z"/>
	<path style="fill:#C462B2;" d="M315.685,139.175h1.528v1.092c0,0.325-0.033,0.603-0.033,0.603h0.033
		c0.39-0.959,1.545-1.891,2.831-1.891c1.382,0,2.195,0.637,2.472,1.876h0.031c0.457-0.994,1.594-1.876,2.929-1.876
		c1.854,0,2.715,1.059,2.715,3.162v5.277h-1.577v-4.937c0-1.156-0.229-2.067-1.462-2.067c-1.157,0-2.02,0.977-2.31,2.101
		c-0.082,0.342-0.115,0.718-0.115,1.139v3.765h-1.577v-4.937c0-1.074-0.164-2.067-1.433-2.067c-1.203,0-2.047,0.993-2.355,2.166
		c-0.082,0.325-0.099,0.7-0.099,1.073v3.765h-1.577V139.175z"/>
	<path style="fill:#C462B2;" d="M334.092,138.979c2.327,0,3.562,1.727,3.562,3.862c0,0.21-0.045,0.684-0.045,0.684h-6.003
		c0.081,1.807,1.366,2.721,2.83,2.721c1.413,0,2.438-0.963,2.438-0.963l0.65,1.155c0,0-1.22,1.173-3.186,1.173
		c-2.588,0-4.363-1.87-4.363-4.314C329.976,140.674,331.751,138.979,334.092,138.979z M336.043,142.336
		c-0.045-1.417-0.924-2.103-1.981-2.103c-1.204,0-2.18,0.749-2.407,2.103H336.043z"/>
	<path style="fill:#C462B2;" d="M339.574,139.175h1.528v1.435c0,0.342-0.03,0.619-0.03,0.619h0.03
		c0.375-1.205,1.333-2.149,2.604-2.149c0.21,0,0.403,0.032,0.403,0.032v1.562c0,0-0.208-0.051-0.453-0.051
		c-1.009,0-1.938,0.719-2.308,1.941c-0.148,0.472-0.197,0.976-0.197,1.48v3.373h-1.577V139.175z"/>
	<path style="fill:#C462B2;" d="M345.769,145.282c0,0,0.928,0.963,2.361,0.963c0.682,0,1.364-0.361,1.364-1.028
		c0-1.513-4.229-1.203-4.229-3.892c0-1.497,1.334-2.347,2.979-2.347c1.803,0,2.646,0.914,2.646,0.914l-0.632,1.189
		c0,0-0.73-0.733-2.036-0.733c-0.681,0-1.348,0.293-1.348,1.011c0,1.481,4.229,1.155,4.229,3.857c0,1.369-1.173,2.394-2.975,2.394
		c-2.02,0-3.127-1.202-3.127-1.202L345.769,145.282z"/>
	<path style="fill:#C462B2;" d="M361.432,142.27h0.356v-0.146c0-1.352-0.767-1.81-1.803-1.81c-1.271,0-2.298,0.8-2.298,0.8
		l-0.646-1.155c0,0,1.186-0.98,3.071-0.98c2.08,0,3.251,1.141,3.251,3.226v5.214h-1.462v-0.782c0-0.374,0.035-0.651,0.035-0.651
		h-0.035c0,0-0.667,1.626-2.632,1.626c-1.419,0-2.802-0.861-2.802-2.508C356.468,142.385,360.05,142.27,361.432,142.27z
		 M359.61,146.342c1.334,0,2.194-1.401,2.194-2.623v-0.26h-0.406c-1.185,0-3.333,0.081-3.333,1.564
		C358.065,145.691,358.582,146.342,359.61,146.342z"/>
	<path style="fill:#C462B2;" d="M365.727,139.175h1.524v1.435c0,0.342-0.03,0.619-0.03,0.619h0.03
		c0.375-1.205,1.335-2.149,2.603-2.149c0.214,0,0.406,0.032,0.406,0.032v1.562c0,0-0.213-0.051-0.455-0.051
		c-1.007,0-1.937,0.719-2.306,1.941c-0.148,0.472-0.198,0.976-0.198,1.48v3.373h-1.574V139.175z"/>
	<path style="fill:#C462B2;" d="M375.32,138.979c2.326,0,3.561,1.727,3.561,3.862c0,0.21-0.049,0.684-0.049,0.684h-6.003
		c0.085,1.807,1.369,2.721,2.831,2.721c1.418,0,2.439-0.963,2.439-0.963l0.652,1.155c0,0-1.22,1.173-3.192,1.173
		c-2.581,0-4.354-1.87-4.354-4.314C371.205,140.674,372.978,138.979,375.32,138.979z M377.27,142.336
		c-0.049-1.417-0.926-2.103-1.985-2.103c-1.201,0-2.18,0.749-2.406,2.103H377.27z"/>
	<path style="fill:#C462B2;" d="M386.507,141.032c-0.746-0.536-1.283-1.237-1.283-2.296c0-1.531,1.154-3.015,3.574-3.015
		c2.131,0,3.613,1.19,3.613,3.08c0,1.53-1.222,2.835-1.365,2.996c0.873,0.538,1.562,1.253,1.562,2.442
		c0,1.794-1.548,3.37-3.936,3.37c-2.294,0-4.002-1.43-4.002-3.517C384.67,142.336,386.2,141.246,386.507,141.032z M387.691,141.717
		c-0.369,0.261-1.376,1.042-1.376,2.278c0,1.321,1.137,2.166,2.357,2.166c1.203,0,2.274-0.781,2.274-1.969
		C390.947,142.955,389.24,142.466,387.691,141.717z M389.826,141.163c0.181-0.181,1.007-1.058,1.007-2.266
		c0-1.06-0.843-1.727-2.047-1.727c-1.27,0-1.969,0.718-1.969,1.6C386.817,140.037,388.346,140.528,389.826,141.163z"/>
	<path style="fill:#C462B2;" d="M394.507,146.538c0-4.106,5.63-4.692,5.63-7.396c0-1.14-0.867-1.903-2.068-1.903
		c-1.51,0-2.323,1.463-2.323,1.463l-1.188-0.795c0,0,1.037-2.186,3.624-2.186c2.115,0,3.63,1.322,3.63,3.308
		c0,3.779-5.479,4.364-5.513,6.988h5.689v1.4h-7.401C394.538,147.106,394.507,146.815,394.507,146.538z"/>
	<path style="fill:#C462B2;" d="M403.699,138.134c0-1.319,1.086-2.413,2.454-2.413c1.365,0,2.469,1.094,2.469,2.413
		c0,1.335-1.104,2.41-2.469,2.41C404.785,140.544,403.699,139.47,403.699,138.134z M412.723,135.917h1.526l-8.779,11.501h-1.531
		L412.723,135.917z M407.357,138.134c0-0.668-0.523-1.222-1.204-1.222c-0.683,0-1.207,0.554-1.207,1.222
		c0,0.683,0.524,1.204,1.207,1.204C406.833,139.338,407.357,138.817,407.357,138.134z M412.057,142.791
		c1.346,0,2.467,1.09,2.467,2.412c0,1.335-1.121,2.407-2.467,2.407c-1.385,0-2.472-1.072-2.472-2.407
		C409.585,143.881,410.672,142.791,412.057,142.791z M412.057,146.408c0.666,0,1.203-0.524,1.203-1.205
		c0-0.668-0.537-1.223-1.203-1.223c-0.685,0-1.209,0.555-1.209,1.223C410.848,145.884,411.373,146.408,412.057,146.408z"/>
	<path style="fill:#C462B2;" d="M420.707,139.175h1.529v1.092c0,0.325-0.035,0.603-0.035,0.603h0.035
		c0.392-0.959,1.545-1.891,2.829-1.891c1.384,0,2.194,0.637,2.472,1.876h0.033c0.457-0.994,1.591-1.876,2.924-1.876
		c1.858,0,2.719,1.059,2.719,3.162v5.277h-1.577v-4.937c0-1.156-0.227-2.067-1.461-2.067c-1.157,0-2.021,0.977-2.312,2.101
		c-0.079,0.342-0.112,0.718-0.112,1.139v3.765h-1.579v-4.937c0-1.074-0.162-2.067-1.432-2.067c-1.206,0-2.049,0.993-2.355,2.166
		c-0.083,0.325-0.102,0.7-0.102,1.073v3.765h-1.576V139.175z"/>
	<path style="fill:#C462B2;" d="M439.408,138.979c2.459,0,4.439,1.81,4.439,4.302c0,2.511-1.98,4.33-4.439,4.33
		c-2.457,0-4.438-1.819-4.438-4.33C434.969,140.788,436.951,138.979,439.408,138.979z M439.408,146.245
		c1.565,0,2.829-1.239,2.829-2.965c0-1.711-1.264-2.932-2.829-2.932c-1.544,0-2.828,1.221-2.828,2.932
		C436.58,145.006,437.864,146.245,439.408,146.245z"/>
	<path style="fill:#C462B2;" d="M445.718,139.175h1.527v1.435c0,0.342-0.03,0.619-0.03,0.619h0.03
		c0.377-1.205,1.333-2.149,2.605-2.149c0.209,0,0.402,0.032,0.402,0.032v1.562c0,0-0.208-0.051-0.453-0.051
		c-1.007,0-1.938,0.719-2.307,1.941c-0.147,0.472-0.198,0.976-0.198,1.48v3.373h-1.577V139.175z"/>
	<path style="fill:#C462B2;" d="M455.313,138.979c2.329,0,3.561,1.727,3.561,3.862c0,0.21-0.05,0.684-0.05,0.684h-6.001
		c0.085,1.807,1.37,2.721,2.829,2.721c1.418,0,2.442-0.963,2.442-0.963l0.649,1.155c0,0-1.219,1.173-3.184,1.173
		c-2.589,0-4.363-1.87-4.363-4.314C451.197,140.674,452.971,138.979,455.313,138.979z M457.263,142.336
		c-0.051-1.417-0.924-2.103-1.98-2.103c-1.205,0-2.184,0.749-2.412,2.103H457.263z"/>
	<path style="fill:#C462B2;" d="M464.876,135.917h1.574v8.976c0,0.991,0.391,1.176,0.88,1.176c0.147,0,0.277-0.021,0.277-0.021
		v1.399c0,0-0.244,0.035-0.521,0.035c-0.894,0-2.211-0.243-2.211-2.312V135.917z"/>
	<path style="fill:#C462B2;" d="M469.265,135.917h1.595v1.613h-1.595V135.917z M469.282,139.175h1.578v8.243h-1.578V139.175z"/>
	<path style="fill:#C462B2;" d="M473.33,135.917h1.579v6.287h1.155l2.243-3.029h1.787l-2.731,3.634v0.032l3.043,4.577h-1.838
		l-2.472-3.878h-1.188v3.878h-1.579V135.917z"/>
	<path style="fill:#C462B2;" d="M485.299,138.979c2.328,0,3.562,1.727,3.562,3.862c0,0.21-0.047,0.684-0.047,0.684h-6.003
		c0.083,1.807,1.367,2.721,2.832,2.721c1.413,0,2.438-0.963,2.438-0.963l0.654,1.155c0,0-1.221,1.173-3.192,1.173
		c-2.585,0-4.355-1.87-4.355-4.314C481.187,140.674,482.958,138.979,485.299,138.979z M487.251,142.336
		c-0.048-1.417-0.929-2.103-1.986-2.103c-1.2,0-2.177,0.749-2.403,2.103H487.251z"/>
	<path style="fill:#C462B2;" d="M490.685,135.917h1.574v8.976c0,0.991,0.393,1.176,0.881,1.176c0.144,0,0.276-0.021,0.276-0.021
		v1.399c0,0-0.246,0.035-0.523,0.035c-0.893,0-2.208-0.243-2.208-2.312V135.917z"/>
	<path style="fill:#C462B2;" d="M494.49,149.13c0,0,0.454,0.341,0.958,0.341c0.637,0,1.171-0.46,1.48-1.207l0.406-0.944
		l-3.448-8.145h1.773l2.066,5.394c0.163,0.421,0.31,0.991,0.31,0.991h0.029c0,0,0.134-0.554,0.277-0.976l2.001-5.409h1.708
		l-3.853,9.723c-0.508,1.271-1.517,1.938-2.668,1.938c-0.928,0-1.596-0.504-1.596-0.504L494.49,149.13z"/>
	<path style="fill:#C462B2;" d="M507.906,140.561h-1.074v-1.27h1.121v-2.379h1.527v2.379h1.986v1.27h-1.986v3.664
		c0,1.646,1.156,1.857,1.758,1.857c0.229,0,0.377-0.034,0.377-0.034v1.399c0,0-0.23,0.035-0.554,0.035
		c-1.057,0-3.155-0.326-3.155-3.078V140.561z"/>
	<path style="fill:#C462B2;" d="M517.222,138.979c2.458,0,4.441,1.81,4.441,4.302c0,2.511-1.983,4.33-4.441,4.33
		c-2.457,0-4.438-1.819-4.438-4.33C512.785,140.788,514.765,138.979,517.222,138.979z M517.222,146.245
		c1.562,0,2.83-1.239,2.83-2.965c0-1.711-1.268-2.932-2.83-2.932c-1.542,0-2.826,1.221-2.826,2.932
		C514.396,145.006,515.68,146.245,517.222,146.245z"/>
	<path style="fill:#C462B2;" d="M527.711,139.175h1.527v1.435c0,0.342-0.03,0.619-0.03,0.619h0.03
		c0.376-1.205,1.335-2.149,2.604-2.149c0.21,0,0.405,0.032,0.405,0.032v1.562c0,0-0.208-0.051-0.455-0.051
		c-1.008,0-1.935,0.719-2.307,1.941c-0.147,0.472-0.197,0.976-0.197,1.48v3.373h-1.578V139.175z"/>
	<path style="fill:#C462B2;" d="M537.307,138.979c2.323,0,3.562,1.727,3.562,3.862c0,0.21-0.051,0.684-0.051,0.684h-5.997
		c0.081,1.807,1.364,2.721,2.825,2.721c1.419,0,2.441-0.963,2.441-0.963l0.651,1.155c0,0-1.222,1.173-3.187,1.173
		c-2.586,0-4.359-1.87-4.359-4.314C533.193,140.674,534.966,138.979,537.307,138.979z M539.256,142.336
		c-0.049-1.417-0.923-2.103-1.979-2.103c-1.205,0-2.183,0.749-2.408,2.103H539.256z"/>
	<path style="fill:#C462B2;" d="M542.789,139.175h1.448v0.702c0,0.324-0.033,0.602-0.033,0.602h0.033c0,0,0.697-1.5,2.761-1.5
		c2.214,0,3.612,1.762,3.612,4.317c0,2.622-1.578,4.314-3.726,4.314c-1.804,0-2.518-1.349-2.518-1.349h-0.036
		c0,0,0.036,0.29,0.036,0.716v3.694h-1.578V139.175z M546.641,146.262c1.301,0,2.377-1.076,2.377-2.949
		c0-1.79-0.964-2.948-2.326-2.948c-1.234,0-2.375,0.864-2.375,2.964C544.317,144.795,545.13,146.262,546.641,146.262z"/>
	<path style="fill:#C462B2;" d="M552.43,139.175h1.577v4.919c0,1.143,0.228,2.054,1.547,2.054c1.675,0,2.664-1.484,2.664-3.111
		v-3.861h1.579v8.243h-1.527v-1.094c0-0.34,0.029-0.603,0.029-0.603h-0.029c-0.341,0.816-1.415,1.889-3.025,1.889
		c-1.854,0-2.814-0.975-2.814-3.156V139.175z"/>
	<path style="fill:#C462B2;" d="M562.271,139.175h1.528v1.435c0,0.342-0.031,0.619-0.031,0.619h0.031
		c0.372-1.205,1.332-2.149,2.601-2.149c0.215,0,0.406,0.032,0.406,0.032v1.562c0,0-0.212-0.051-0.453-0.051
		c-1.011,0-1.937,0.719-2.31,1.941c-0.147,0.472-0.194,0.976-0.194,1.48v3.373h-1.578V139.175z"/>
	<path style="fill:#C462B2;" d="M572.138,138.979c2.068,0,3.095,1.208,3.095,1.208l-0.751,1.107c0,0-0.879-0.945-2.275-0.945
		c-1.661,0-2.863,1.238-2.863,2.932c0,1.679,1.202,2.965,2.912,2.965c1.53,0,2.538-1.108,2.538-1.108l0.63,1.158
		c0,0-1.133,1.315-3.285,1.315c-2.58,0-4.404-1.84-4.404-4.314C567.734,140.854,569.558,138.979,572.138,138.979z"/>
	<path style="fill:#C462B2;" d="M577.214,135.917h1.578v4.221c0,0.391-0.034,0.682-0.034,0.682h0.034
		c0.356-0.796,1.4-1.841,3.042-1.841c1.934,0,2.826,1.059,2.826,3.162v5.277h-1.573v-4.92c0-1.156-0.246-2.069-1.561-2.069
		c-1.239,0-2.265,0.849-2.604,2.037c-0.099,0.325-0.13,0.7-0.13,1.092v3.86h-1.578V135.917z"/>
	<path style="fill:#C462B2;" d="M591.315,142.27h0.357v-0.146c0-1.352-0.765-1.81-1.807-1.81c-1.265,0-2.293,0.8-2.293,0.8
		l-0.646-1.155c0,0,1.183-0.98,3.07-0.98c2.082,0,3.253,1.141,3.253,3.226v5.214h-1.464v-0.782c0-0.374,0.035-0.651,0.035-0.651
		h-0.035c0,0-0.667,1.626-2.632,1.626c-1.417,0-2.802-0.861-2.802-2.508C586.352,142.385,589.933,142.27,591.315,142.27z
		 M589.495,146.342c1.333,0,2.194-1.401,2.194-2.623v-0.26h-0.407c-1.186,0-3.335,0.081-3.335,1.564
		C587.947,145.691,588.467,146.342,589.495,146.342z"/>
	<path style="fill:#C462B2;" d="M595.707,145.282c0,0,0.924,0.963,2.358,0.963c0.68,0,1.363-0.361,1.363-1.028
		c0-1.513-4.229-1.203-4.229-3.892c0-1.497,1.335-2.347,2.979-2.347c1.805,0,2.649,0.914,2.649,0.914l-0.636,1.189
		c0,0-0.73-0.733-2.028-0.733c-0.685,0-1.353,0.293-1.353,1.011c0,1.481,4.228,1.155,4.228,3.857c0,1.369-1.169,2.394-2.974,2.394
		c-2.017,0-3.122-1.202-3.122-1.202L595.707,145.282z"/>
	<path style="fill:#C462B2;" d="M606.438,138.979c2.324,0,3.562,1.727,3.562,3.862c0,0.21-0.05,0.684-0.05,0.684h-5.997
		c0.079,1.807,1.361,2.721,2.826,2.721c1.418,0,2.439-0.963,2.439-0.963l0.652,1.155c0,0-1.221,1.173-3.186,1.173
		c-2.588,0-4.361-1.87-4.361-4.314C602.324,140.674,604.097,138.979,606.438,138.979z M608.39,142.336
		c-0.05-1.417-0.924-2.103-1.981-2.103c-1.207,0-2.184,0.749-2.41,2.103H608.39z"/>
	<path style="fill:#C462B2;" d="M271.401,161.856h-1.022v-1.273h1.022v-0.39c0-2.721,2.05-3.062,3.091-3.062
		c0.357,0,0.602,0.05,0.602,0.05v1.349c0,0-0.162-0.027-0.408-0.027c-0.6,0-1.723,0.191-1.723,1.727v0.354h1.953v1.273h-1.953v6.854
		h-1.562V161.856z"/>
	<path style="fill:#C462B2;" d="M276.426,160.471h1.529v1.435c0,0.341-0.031,0.618-0.031,0.618h0.031
		c0.374-1.203,1.334-2.147,2.602-2.147c0.211,0,0.408,0.03,0.408,0.03v1.562c0,0-0.213-0.05-0.455-0.05
		c-1.011,0-1.937,0.718-2.31,1.939c-0.148,0.479-0.194,0.982-0.194,1.486v3.365h-1.58V160.471z"/>
	<path style="fill:#C462B2;" d="M286.315,160.279c2.454,0,4.44,1.803,4.44,4.298c0,2.507-1.986,4.333-4.44,4.333
		c-2.455,0-4.438-1.826-4.438-4.333C281.876,162.082,283.86,160.279,286.315,160.279z M286.315,167.539
		c1.561,0,2.83-1.235,2.83-2.962c0-1.713-1.269-2.936-2.83-2.936c-1.544,0-2.83,1.223-2.83,2.936
		C283.485,166.304,284.771,167.539,286.315,167.539z"/>
	<path style="fill:#C462B2;" d="M292.625,160.471h1.529v1.095c0,0.327-0.031,0.604-0.031,0.604h0.031
		c0.39-0.969,1.544-1.891,2.832-1.891c1.381,0,2.193,0.632,2.47,1.866h0.034c0.454-0.988,1.594-1.866,2.928-1.866
		c1.853,0,2.714,1.059,2.714,3.159v5.271h-1.576v-4.928c0-1.159-0.229-2.07-1.466-2.07c-1.151,0-2.015,0.976-2.307,2.097
		c-0.081,0.34-0.116,0.719-0.116,1.146v3.756h-1.576v-4.928c0-1.082-0.164-2.07-1.431-2.07c-1.203,0-2.049,0.988-2.358,2.159
		c-0.081,0.328-0.096,0.706-0.096,1.083v3.756h-1.579V160.471z"/>
	<path style="fill:#C462B2;" d="M315.961,163.568h0.357v-0.15c0-1.349-0.763-1.803-1.805-1.803c-1.269,0-2.293,0.795-2.293,0.795
		l-0.65-1.159c0,0,1.186-0.972,3.073-0.972c2.082,0,3.252,1.136,3.252,3.227v5.204h-1.464v-0.781c0-0.37,0.035-0.646,0.035-0.646
		h-0.035c0,0-0.667,1.628-2.633,1.628c-1.417,0-2.798-0.868-2.798-2.507C311.001,163.682,314.58,163.568,315.961,163.568z
		 M314.139,167.638c1.334,0,2.196-1.398,2.196-2.621v-0.263h-0.407c-1.185,0-3.334,0.087-3.334,1.562
		C312.594,166.984,313.115,167.638,314.139,167.638z"/>
	<path style="fill:#C462B2;" d="M328.254,160.279c2.066,0,3.092,1.198,3.092,1.198l-0.748,1.109c0,0-0.879-0.945-2.276-0.945
		c-1.661,0-2.863,1.242-2.863,2.936c0,1.676,1.202,2.962,2.911,2.962c1.528,0,2.535-1.109,2.535-1.109l0.639,1.158
		c0,0-1.142,1.322-3.289,1.322c-2.585,0-4.406-1.84-4.406-4.32C323.848,162.146,325.669,160.279,328.254,160.279z"/>
	<path style="fill:#C462B2;" d="M337.169,160.279c2.455,0,4.437,1.803,4.437,4.298c0,2.507-1.981,4.333-4.437,4.333
		c-2.458,0-4.442-1.826-4.442-4.333C332.727,162.082,334.711,160.279,337.169,160.279z M337.169,167.539
		c1.562,0,2.829-1.235,2.829-2.962c0-1.713-1.268-2.936-2.829-2.936c-1.547,0-2.83,1.223-2.83,2.936
		C334.339,166.304,335.623,167.539,337.169,167.539z"/>
	<path style="fill:#C462B2;" d="M343.476,160.471h1.529v1.095c0,0.327-0.032,0.604-0.032,0.604h0.032
		c0.39-0.969,1.544-1.891,2.829-1.891c1.384,0,2.197,0.632,2.476,1.866h0.028c0.459-0.988,1.596-1.866,2.929-1.866
		c1.854,0,2.719,1.059,2.719,3.159v5.271h-1.583v-4.928c0-1.159-0.227-2.07-1.46-2.07c-1.156,0-2.018,0.976-2.307,2.097
		c-0.085,0.34-0.115,0.719-0.115,1.146v3.756h-1.58v-4.928c0-1.082-0.163-2.07-1.431-2.07c-1.202,0-2.047,0.988-2.357,2.159
		c-0.08,0.328-0.1,0.706-0.1,1.083v3.756h-1.577V160.471z"/>
	<path style="fill:#C462B2;" d="M358.34,160.471h1.447v0.704c0,0.326-0.033,0.604-0.033,0.604h0.033c0,0,0.704-1.499,2.768-1.499
		c2.209,0,3.61,1.753,3.61,4.311c0,2.62-1.581,4.32-3.724,4.32c-1.81,0-2.525-1.352-2.525-1.352h-0.029c0,0,0.029,0.294,0.029,0.711
		v3.702h-1.576V160.471z M362.193,167.559c1.307,0,2.377-1.079,2.377-2.944c0-1.801-0.957-2.949-2.327-2.949
		c-1.234,0-2.369,0.858-2.369,2.963C359.874,166.089,360.682,167.559,362.193,167.559z"/>
	<path style="fill:#C462B2;" d="M372.39,163.568h0.36v-0.15c0-1.349-0.766-1.803-1.808-1.803c-1.265,0-2.293,0.795-2.293,0.795
		l-0.646-1.159c0,0,1.184-0.972,3.071-0.972c2.079,0,3.25,1.136,3.25,3.227v5.204h-1.461v-0.781c0-0.37,0.034-0.646,0.034-0.646
		h-0.034c0,0-0.668,1.628-2.633,1.628c-1.42,0-2.803-0.868-2.803-2.507C367.429,163.682,371.012,163.568,372.39,163.568z
		 M370.572,167.638c1.335,0,2.193-1.398,2.193-2.621v-0.263h-0.406c-1.185,0-3.334,0.087-3.334,1.562
		C369.025,166.984,369.542,167.638,370.572,167.638z"/>
	<path style="fill:#C462B2;" d="M376.687,160.471h1.526v1.095c0,0.327-0.034,0.604-0.034,0.604h0.034
		c0.326-0.719,1.3-1.891,3.093-1.891c1.932,0,2.823,1.059,2.823,3.159v5.271h-1.573v-4.914c0-1.159-0.243-2.067-1.562-2.067
		c-1.249,0-2.261,0.832-2.604,2.017c-0.093,0.328-0.127,0.704-0.127,1.108v3.856h-1.576V160.471z"/>
	<path style="fill:#C462B2;" d="M385.891,170.423c0,0,0.453,0.341,0.957,0.341c0.637,0,1.171-0.453,1.481-1.202l0.405-0.945
		l-3.448-8.146h1.774l2.065,5.392c0.162,0.428,0.31,0.995,0.31,0.995h0.029c0,0,0.134-0.554,0.278-0.981l2.001-5.405h1.71
		l-3.855,9.726c-0.503,1.272-1.517,1.94-2.667,1.94c-0.929,0-1.595-0.505-1.595-0.505L385.891,170.423z"/>
	<path style="fill:#C462B2;" d="M398.006,160.471h1.674l1.704,5.782c0.133,0.427,0.2,0.882,0.214,0.882h0.033
		c0,0,0.08-0.455,0.215-0.882l1.786-5.763h1.447l1.775,5.763c0.127,0.427,0.226,0.882,0.226,0.882h0.03c0,0,0.063-0.455,0.197-0.882
		l1.724-5.782h1.66l-2.65,8.239h-1.74l-1.708-5.292c-0.131-0.417-0.23-0.895-0.23-0.895h-0.034c0,0-0.092,0.478-0.226,0.895
		l-1.69,5.292h-1.758L398.006,160.471z"/>
	<path style="fill:#C462B2;" d="M412.203,157.218h1.578v4.217c0,0.391-0.036,0.686-0.036,0.686h0.036
		c0.354-0.8,1.396-1.841,3.041-1.841c1.931,0,2.827,1.059,2.827,3.159v5.271h-1.576v-4.914c0-1.159-0.245-2.067-1.561-2.067
		c-1.235,0-2.263,0.845-2.605,2.029c-0.093,0.328-0.126,0.705-0.126,1.096v3.856h-1.578V157.218z"/>
	<path style="fill:#C462B2;" d="M425.553,160.279c2.323,0,3.565,1.727,3.565,3.856c0,0.214-0.051,0.681-0.051,0.681h-6.003
		c0.08,1.813,1.363,2.723,2.831,2.723c1.414,0,2.437-0.959,2.437-0.959l0.651,1.158c0,0-1.22,1.172-3.185,1.172
		c-2.592,0-4.359-1.876-4.359-4.32C421.44,161.969,423.208,160.279,425.553,160.279z M427.507,163.632
		c-0.05-1.416-0.929-2.104-1.985-2.104c-1.206,0-2.181,0.755-2.407,2.104H427.507z"/>
	<path style="fill:#C462B2;" d="M431.035,160.471h1.524v1.435c0,0.341-0.03,0.618-0.03,0.618h0.03
		c0.378-1.203,1.333-2.147,2.604-2.147c0.215,0,0.405,0.03,0.405,0.03v1.562c0,0-0.209-0.05-0.455-0.05
		c-1.008,0-1.931,0.718-2.309,1.939c-0.146,0.479-0.195,0.982-0.195,1.486v3.365h-1.575V160.471z"/>
	<path style="fill:#C462B2;" d="M440.626,160.279c2.328,0,3.562,1.727,3.562,3.856c0,0.214-0.047,0.681-0.047,0.681h-6
		c0.08,1.813,1.364,2.723,2.832,2.723c1.413,0,2.434-0.959,2.434-0.959l0.655,1.158c0,0-1.222,1.172-3.189,1.172
		c-2.588,0-4.359-1.876-4.359-4.32C436.513,161.969,438.285,160.279,440.626,160.279z M442.577,163.632
		c-0.043-1.416-0.924-2.104-1.98-2.104c-1.204,0-2.179,0.755-2.404,2.104H442.577z"/>
	<path style="fill:#C462B2;" d="M450.63,161.856h-1.074v-1.273h1.123v-2.37h1.525v2.37h1.989v1.273h-1.989v3.665
		c0,1.646,1.158,1.853,1.758,1.853c0.231,0,0.377-0.025,0.377-0.025v1.398c0,0-0.227,0.032-0.554,0.032
		c-1.058,0-3.155-0.322-3.155-3.081V161.856z"/>
	<path style="fill:#C462B2;" d="M456.109,157.218h1.578v4.217c0,0.391-0.032,0.686-0.032,0.686h0.032
		c0.356-0.8,1.398-1.841,3.04-1.841c1.937,0,2.829,1.059,2.829,3.159v5.271h-1.572v-4.914c0-1.159-0.245-2.067-1.564-2.067
		c-1.234,0-2.262,0.845-2.603,2.029c-0.1,0.328-0.13,0.705-0.13,1.096v3.856h-1.578V157.218z"/>
	<path style="fill:#C462B2;" d="M469.458,160.279c2.328,0,3.562,1.727,3.562,3.856c0,0.214-0.048,0.681-0.048,0.681h-5.997
		c0.079,1.813,1.362,2.723,2.831,2.723c1.409,0,2.435-0.959,2.435-0.959l0.651,1.158c0,0-1.22,1.172-3.187,1.172
		c-2.588,0-4.361-1.876-4.361-4.32C465.345,161.969,467.119,160.279,469.458,160.279z M471.415,163.632
		c-0.047-1.416-0.928-2.104-1.985-2.104c-1.203,0-2.178,0.755-2.403,2.104H471.415z"/>
	<path style="fill:#C462B2;" d="M474.341,170.423c0,0,0.455,0.341,0.957,0.341c0.637,0,1.172-0.453,1.48-1.202l0.407-0.945
		l-3.448-8.146h1.774l2.064,5.392c0.163,0.428,0.31,0.995,0.31,0.995h0.03c0,0,0.133-0.554,0.277-0.981l2-5.405h1.707l-3.852,9.726
		c-0.503,1.272-1.514,1.94-2.667,1.94c-0.928,0-1.594-0.505-1.594-0.505L474.341,170.423z"/>
	<path style="fill:#C462B2;" d="M486.458,160.471h1.674l1.706,5.782c0.131,0.427,0.195,0.882,0.211,0.882h0.034
		c0,0,0.079-0.455,0.213-0.882l1.788-5.763h1.446l1.775,5.763c0.126,0.427,0.226,0.882,0.226,0.882h0.03
		c0,0,0.065-0.455,0.197-0.882l1.724-5.782h1.661l-2.653,8.239h-1.739l-1.708-5.292c-0.129-0.417-0.229-0.895-0.229-0.895h-0.032
		c0,0-0.094,0.478-0.228,0.895l-1.691,5.292h-1.757L486.458,160.471z"/>
	<path style="fill:#C462B2;" d="M504.194,160.279c2.33,0,3.563,1.727,3.563,3.856c0,0.214-0.047,0.681-0.047,0.681h-6
		c0.08,1.813,1.364,2.723,2.832,2.723c1.41,0,2.434-0.959,2.434-0.959l0.653,1.158c0,0-1.22,1.172-3.188,1.172
		c-2.589,0-4.36-1.876-4.36-4.32C500.082,161.969,501.853,160.279,504.194,160.279z M506.149,163.632
		c-0.046-1.416-0.928-2.104-1.984-2.104c-1.203,0-2.178,0.755-2.403,2.104H506.149z"/>
	<path style="fill:#C462B2;" d="M509.677,160.471h1.528v1.435c0,0.341-0.031,0.618-0.031,0.618h0.031
		c0.376-1.203,1.333-2.147,2.604-2.147c0.211,0,0.404,0.03,0.404,0.03v1.562c0,0-0.207-0.05-0.453-0.05
		c-1.009,0-1.937,0.718-2.31,1.939c-0.146,0.479-0.195,0.982-0.195,1.486v3.365h-1.578V160.471z"/>
	<path style="fill:#C462B2;" d="M519.274,160.279c2.325,0,3.561,1.727,3.561,3.856c0,0.214-0.05,0.681-0.05,0.681h-5.996
		c0.076,1.813,1.361,2.723,2.823,2.723c1.418,0,2.443-0.959,2.443-0.959l0.649,1.158c0,0-1.22,1.172-3.186,1.172
		c-2.587,0-4.361-1.876-4.361-4.32C515.158,161.969,516.932,160.279,519.274,160.279z M521.224,163.632
		c-0.049-1.416-0.925-2.104-1.982-2.104c-1.205,0-2.18,0.755-2.408,2.104H521.224z"/>
	<path style="fill:#C462B2;" d="M529.034,166.58c0,0,0.923,0.959,2.354,0.959c0.683,0,1.365-0.354,1.365-1.022
		c0-1.513-4.228-1.208-4.228-3.894c0-1.499,1.333-2.344,2.975-2.344c1.805,0,2.654,0.908,2.654,0.908l-0.636,1.192
		c0,0-0.73-0.738-2.031-0.738c-0.688,0-1.352,0.301-1.352,1.015c0,1.479,4.227,1.152,4.227,3.86c0,1.362-1.169,2.394-2.975,2.394
		c-2.015,0-3.122-1.208-3.122-1.208L529.034,166.58z"/>
	<path style="fill:#C462B2;" d="M540.512,163.568h0.357v-0.15c0-1.349-0.766-1.803-1.805-1.803c-1.269,0-2.292,0.795-2.292,0.795
		l-0.652-1.159c0,0,1.187-0.972,3.075-0.972c2.084,0,3.254,1.136,3.254,3.227v5.204h-1.468v-0.781c0-0.37,0.034-0.646,0.034-0.646
		h-0.034c0,0-0.667,1.628-2.634,1.628c-1.415,0-2.794-0.868-2.794-2.507C535.554,163.682,539.127,163.568,540.512,163.568z
		 M538.69,167.638c1.336,0,2.197-1.398,2.197-2.621v-0.263h-0.408c-1.189,0-3.335,0.087-3.335,1.562
		C537.144,166.984,537.667,167.638,538.69,167.638z"/>
	<path style="fill:#C462B2;" d="M545.098,161.856h-1.075v-1.273h1.123v-2.37h1.53v2.37h1.982v1.273h-1.982v3.665
		c0,1.646,1.152,1.853,1.756,1.853c0.227,0,0.374-0.025,0.374-0.025v1.398c0,0-0.227,0.032-0.553,0.032
		c-1.059,0-3.155-0.322-3.155-3.081V161.856z"/>
	<path style="fill:#C462B2;" d="M550.561,157.218h1.593v1.612h-1.593V157.218z M550.58,160.471h1.574v8.239h-1.574V160.471z"/>
	<path style="fill:#C462B2;" d="M554.723,166.58c0,0,0.929,0.959,2.36,0.959c0.684,0,1.365-0.354,1.365-1.022
		c0-1.513-4.228-1.208-4.228-3.894c0-1.499,1.333-2.344,2.979-2.344c1.799,0,2.646,0.908,2.646,0.908l-0.633,1.192
		c0,0-0.731-0.738-2.033-0.738c-0.687,0-1.352,0.301-1.352,1.015c0,1.479,4.229,1.152,4.229,3.86c0,1.362-1.171,2.394-2.975,2.394
		c-2.018,0-3.123-1.208-3.123-1.208L554.723,166.58z"/>
	<path style="fill:#C462B2;" d="M567.375,161.742h-3.462v6.968h-1.561v-6.968h-1.024v-1.271h1.024v-0.277
		c0-2.721,2.047-3.062,3.09-3.062c0.357,0,0.601,0.05,0.601,0.05v1.349c0,0-0.162-0.027-0.405-0.027
		c-0.604,0-1.725,0.191-1.725,1.727v0.241h5.043v8.239h-1.581V161.742z M567.362,157.218h1.595v1.612h-1.595V157.218z"/>
	<path style="fill:#C462B2;" d="M574.972,160.279c2.326,0,3.561,1.727,3.561,3.856c0,0.214-0.05,0.681-0.05,0.681h-5.999
		c0.083,1.813,1.366,2.723,2.826,2.723c1.417,0,2.443-0.959,2.443-0.959l0.653,1.158c0,0-1.221,1.172-3.191,1.172
		c-2.585,0-4.359-1.876-4.359-4.32C570.856,161.969,572.63,160.279,574.972,160.279z M576.922,163.632
		c-0.05-1.416-0.928-2.104-1.984-2.104c-1.201,0-2.179,0.755-2.407,2.104H576.922z"/>
	<path style="fill:#C462B2;" d="M583.642,160.279c1.899,0,2.534,1.3,2.534,1.3h0.034c0,0-0.034-0.241-0.034-0.555v-3.807h1.576
		v11.492h-1.492v-0.781c0-0.327,0.014-0.555,0.014-0.555h-0.033c0,0-0.668,1.536-2.699,1.536c-2.229,0-3.626-1.763-3.626-4.32
		C579.916,161.969,581.458,160.279,583.642,160.279z M583.848,167.539c1.221,0,2.378-0.859,2.378-2.962
		c0-1.462-0.767-2.936-2.327-2.936c-1.301,0-2.372,1.082-2.372,2.948C581.527,166.379,582.485,167.539,583.848,167.539z"/>
</g>
<g>
	<path style="fill:#00AC92;" d="M278.119,45.724l2.243,8.435c0.164,0.631,0.245,1.222,0.245,1.222h0.031c0,0,0.05-0.604,0.212-1.222
		l2.114-8.435h1.658l-3.008,11.498h-1.869l-1.984-7.459c-0.195-0.736-0.34-1.631-0.34-1.631h-0.036c0,0-0.145,0.895-0.34,1.631
		l-1.984,7.459h-1.869l-2.926-11.498h1.657l2.033,8.435c0.146,0.618,0.212,1.222,0.212,1.222h0.031c0,0,0.082-0.591,0.245-1.222
		l2.243-8.435H278.119z"/>
	<path style="fill:#00AC92;" d="M286.379,45.724h1.578v4.215c0,0.39-0.032,0.686-0.032,0.686h0.032c0.358-0.8,1.397-1.84,3.041-1.84
		c1.937,0,2.831,1.058,2.831,3.157v5.279h-1.577v-4.92c0-1.159-0.245-2.066-1.563-2.066c-1.235,0-2.259,0.844-2.601,2.035
		c-0.098,0.322-0.13,0.7-0.13,1.09v3.862h-1.578V45.724z"/>
	<path style="fill:#00AC92;" d="M299.731,48.785c2.327,0,3.562,1.726,3.562,3.856c0,0.214-0.049,0.687-0.049,0.687h-6
		c0.081,1.808,1.365,2.721,2.83,2.721c1.415,0,2.438-0.964,2.438-0.964l0.652,1.158c0,0-1.221,1.173-3.189,1.173
		c-2.587,0-4.36-1.877-4.36-4.316C295.616,50.475,297.389,48.785,299.731,48.785z M301.682,52.137
		c-0.046-1.417-0.927-2.099-1.982-2.099c-1.204,0-2.179,0.75-2.406,2.099H301.682z"/>
	<path style="fill:#00AC92;" d="M305.211,48.98h1.529v1.09c0,0.321-0.032,0.599-0.032,0.599h0.032
		c0.326-0.712,1.301-1.884,3.09-1.884c1.937,0,2.831,1.058,2.831,3.157v5.279h-1.579v-4.92c0-1.159-0.243-2.066-1.562-2.066
		c-1.252,0-2.259,0.826-2.6,2.016c-0.1,0.328-0.131,0.7-0.131,1.109v3.862h-1.578V48.98z"/>
	<path style="fill:#00AC92;" d="M323.018,48.785c2.067,0,3.09,1.204,3.09,1.204l-0.747,1.108c0,0-0.877-0.945-2.277-0.945
		c-1.658,0-2.862,1.235-2.862,2.93c0,1.676,1.204,2.967,2.91,2.967c1.529,0,2.538-1.109,2.538-1.109l0.633,1.153
		c0,0-1.136,1.323-3.284,1.323c-2.584,0-4.405-1.84-4.405-4.316C318.613,50.656,320.434,48.785,323.018,48.785z"/>
	<path style="fill:#00AC92;" d="M327.979,48.98h1.577v4.915c0,1.14,0.228,2.053,1.546,2.053c1.675,0,2.668-1.48,2.668-3.111V48.98
		h1.576v8.241h-1.531v-1.096c0-0.34,0.035-0.599,0.035-0.599h-0.035c-0.339,0.813-1.412,1.89-3.023,1.89
		c-1.853,0-2.812-0.977-2.812-3.163V48.98z"/>
	<path style="fill:#00AC92;" d="M337.916,55.085c0,0,0.929,0.964,2.356,0.964c0.687,0,1.367-0.36,1.367-1.027
		c0-1.518-4.228-1.209-4.228-3.894c0-1.499,1.333-2.344,2.978-2.344c1.803,0,2.648,0.908,2.648,0.908l-0.632,1.19
		c0,0-0.731-0.731-2.034-0.731c-0.684,0-1.351,0.291-1.351,1.008c0,1.48,4.229,1.159,4.229,3.862c0,1.367-1.17,2.394-2.978,2.394
		c-2.016,0-3.122-1.209-3.122-1.209L337.916,55.085z"/>
	<path style="fill:#00AC92;" d="M345.444,50.361h-1.071v-1.267h1.12v-2.381h1.53v2.381h1.982v1.267h-1.982v3.667
		c0,1.644,1.151,1.858,1.755,1.858c0.228,0,0.374-0.031,0.374-0.031v1.398c0,0-0.227,0.031-0.551,0.031
		c-1.059,0-3.157-0.327-3.157-3.08V50.361z"/>
	<path style="fill:#00AC92;" d="M354.765,48.785c2.454,0,4.44,1.808,4.44,4.297c0,2.508-1.986,4.334-4.44,4.334
		s-4.441-1.827-4.441-4.334C350.324,50.593,352.311,48.785,354.765,48.785z M354.765,56.049c1.561,0,2.83-1.241,2.83-2.967
		c0-1.708-1.27-2.93-2.83-2.93c-1.547,0-2.831,1.222-2.831,2.93C351.934,54.809,353.218,56.049,354.765,56.049z"/>
	<path style="fill:#00AC92;" d="M361.073,48.98h1.532v1.09c0,0.321-0.036,0.599-0.036,0.599h0.036
		c0.391-0.958,1.539-1.884,2.823-1.884c1.385,0,2.199,0.631,2.476,1.871h0.029c0.461-0.995,1.598-1.871,2.931-1.871
		c1.851,0,2.716,1.058,2.716,3.157v5.279H372v-4.938c0-1.154-0.229-2.067-1.463-2.067c-1.157,0-2.015,0.977-2.307,2.104
		c-0.085,0.34-0.114,0.712-0.114,1.135v3.767h-1.581v-4.938c0-1.072-0.163-2.067-1.427-2.067c-1.206,0-2.05,0.995-2.362,2.167
		c-0.078,0.328-0.096,0.7-0.096,1.072v3.767h-1.578V48.98z"/>
	<path style="fill:#00AC92;" d="M379.484,48.785c2.325,0,3.561,1.726,3.561,3.856c0,0.214-0.048,0.687-0.048,0.687h-6.003
		c0.084,1.808,1.367,2.721,2.831,2.721c1.411,0,2.438-0.964,2.438-0.964l0.649,1.158c0,0-1.218,1.173-3.188,1.173
		c-2.584,0-4.356-1.877-4.356-4.316C375.369,50.475,377.141,48.785,379.484,48.785z M381.436,52.137
		c-0.051-1.417-0.931-2.099-1.988-2.099c-1.2,0-2.179,0.75-2.404,2.099H381.436z"/>
	<path style="fill:#00AC92;" d="M384.959,48.98h1.531v1.431c0,0.341-0.032,0.618-0.032,0.618h0.032
		c0.372-1.204,1.334-2.148,2.605-2.148c0.205,0,0.402,0.031,0.402,0.031v1.563c0,0-0.21-0.045-0.453-0.045
		c-1.011,0-1.937,0.713-2.312,1.935c-0.142,0.473-0.192,0.977-0.192,1.486v3.371h-1.582V48.98z"/>
	<path style="fill:#00AC92;" d="M391.16,55.085c0,0,0.923,0.964,2.359,0.964c0.68,0,1.366-0.36,1.366-1.027
		c0-1.518-4.229-1.209-4.229-3.894c0-1.499,1.334-2.344,2.974-2.344c1.803,0,2.652,0.908,2.652,0.908l-0.637,1.19
		c0,0-0.73-0.731-2.032-0.731c-0.684,0-1.352,0.291-1.352,1.008c0,1.48,4.227,1.159,4.227,3.862c0,1.367-1.17,2.394-2.97,2.394
		c-2.02,0-3.125-1.209-3.125-1.209L391.16,55.085z"/>
	<path style="fill:#00AC92;" d="M402.525,48.98h1.527v1.431c0,0.341-0.03,0.618-0.03,0.618h0.03
		c0.377-1.204,1.335-2.148,2.604-2.148c0.212,0,0.404,0.031,0.404,0.031v1.563c0,0-0.206-0.045-0.454-0.045
		c-1.007,0-1.937,0.713-2.308,1.935c-0.146,0.473-0.196,0.977-0.196,1.486v3.371h-1.578V48.98z"/>
	<path style="fill:#00AC92;" d="M412.12,48.785c2.328,0,3.562,1.726,3.562,3.856c0,0.214-0.051,0.687-0.051,0.687h-5.995
		c0.08,1.808,1.362,2.721,2.823,2.721c1.418,0,2.441-0.964,2.441-0.964l0.651,1.158c0,0-1.219,1.173-3.185,1.173
		c-2.588,0-4.362-1.877-4.362-4.316C408.005,50.475,409.78,48.785,412.12,48.785z M414.071,52.137
		c-0.05-1.417-0.923-2.099-1.981-2.099c-1.203,0-2.184,0.75-2.41,2.099H414.071z"/>
	<path style="fill:#00AC92;" d="M421.42,48.785c2.067,0,3.091,1.204,3.091,1.204l-0.75,1.108c0,0-0.874-0.945-2.271-0.945
		c-1.66,0-2.865,1.235-2.865,2.93c0,1.676,1.205,2.967,2.908,2.967c1.531,0,2.541-1.109,2.541-1.109l0.631,1.153
		c0,0-1.134,1.323-3.285,1.323c-2.581,0-4.404-1.84-4.404-4.316C417.016,50.656,418.839,48.785,421.42,48.785z"/>
	<path style="fill:#00AC92;" d="M430.042,48.785c2.326,0,3.562,1.726,3.562,3.856c0,0.214-0.051,0.687-0.051,0.687h-6
		c0.083,1.808,1.367,2.721,2.829,2.721c1.416,0,2.44-0.964,2.44-0.964l0.649,1.158c0,0-1.221,1.173-3.184,1.173
		c-2.588,0-4.361-1.877-4.361-4.316C425.927,50.475,427.701,48.785,430.042,48.785z M431.993,52.137
		c-0.05-1.417-0.924-2.099-1.981-2.099c-1.205,0-2.186,0.75-2.41,2.099H431.993z"/>
	<path style="fill:#00AC92;" d="M435.503,45.724h1.599v1.607h-1.599V45.724z M435.524,48.98h1.578v8.241h-1.578V48.98z"/>
	<path style="fill:#00AC92;" d="M438.449,48.98h1.674l2.001,5.569c0.163,0.454,0.263,1.122,0.276,1.122h0.033
		c0.017,0,0.131-0.667,0.294-1.122l2.002-5.569h1.657l-3.042,8.241h-1.821L438.449,48.98z"/>
	<path style="fill:#00AC92;" d="M451.281,48.785c2.327,0,3.562,1.726,3.562,3.856c0,0.214-0.05,0.687-0.05,0.687h-5.999
		c0.084,1.808,1.366,2.721,2.827,2.721c1.415,0,2.441-0.964,2.441-0.964l0.647,1.158c0,0-1.219,1.173-3.184,1.173
		c-2.586,0-4.36-1.877-4.36-4.316C447.166,50.475,448.94,48.785,451.281,48.785z M453.232,52.137
		c-0.051-1.417-0.927-2.099-1.984-2.099c-1.202,0-2.178,0.75-2.408,2.099H453.232z"/>
	<path style="fill:#00AC92;" d="M463.932,59.269c1.433,0,2.602-0.631,2.602-2.312v-0.599c0-0.264,0.019-0.522,0.019-0.522h-0.036
		c-0.484,0.812-1.249,1.285-2.437,1.285c-2.297,0-3.675-1.839-3.675-4.215c0-2.361,1.314-4.12,3.592-4.12
		c1.985,0,2.588,1.217,2.588,1.217h0.03c0,0-0.014-0.113-0.014-0.259V48.98h1.513v7.895c0,2.721-2.066,3.766-4.147,3.766
		c-0.994,0-2.021-0.277-2.813-0.686l0.519-1.241C461.671,58.715,462.697,59.269,463.932,59.269z M466.565,52.918
		c0-2.148-1.037-2.766-2.321-2.766c-1.434,0-2.247,1.04-2.247,2.716c0,1.713,0.913,2.885,2.391,2.885
		C465.528,55.753,466.565,55.067,466.565,52.918z"/>
	<path style="fill:#00AC92;" d="M474.42,48.785c2.459,0,4.44,1.808,4.44,4.297c0,2.508-1.981,4.334-4.44,4.334
		c-2.457,0-4.438-1.827-4.438-4.334C469.982,50.593,471.963,48.785,474.42,48.785z M474.42,56.049c1.561,0,2.829-1.241,2.829-2.967
		c0-1.708-1.269-2.93-2.829-2.93c-1.543,0-2.827,1.222-2.827,2.93C471.593,54.809,472.877,56.049,474.42,56.049z"/>
	<path style="fill:#00AC92;" d="M484.569,48.785c2.455,0,4.438,1.808,4.438,4.297c0,2.508-1.982,4.334-4.438,4.334
		c-2.454,0-4.439-1.827-4.439-4.334C480.129,50.593,482.115,48.785,484.569,48.785z M484.569,56.049
		c1.561,0,2.831-1.241,2.831-2.967c0-1.708-1.271-2.93-2.831-2.93c-1.545,0-2.827,1.222-2.827,2.93
		C481.742,54.809,483.024,56.049,484.569,56.049z"/>
	<path style="fill:#00AC92;" d="M494.063,48.785c1.909,0,2.542,1.298,2.542,1.298h0.033c0,0-0.033-0.24-0.033-0.554v-3.806h1.574
		v11.498h-1.497v-0.782c0-0.327,0.02-0.554,0.02-0.554h-0.033c0,0-0.667,1.531-2.698,1.531c-2.228,0-3.628-1.764-3.628-4.316
		C490.342,50.475,491.886,48.785,494.063,48.785z M494.278,56.049c1.222,0,2.374-0.863,2.374-2.967c0-1.467-0.764-2.93-2.325-2.93
		c-1.301,0-2.378,1.071-2.378,2.948C491.949,54.89,492.914,56.049,494.278,56.049z"/>
	<path style="fill:#00AC92;" d="M504.932,55.085c0,0,0.923,0.964,2.354,0.964c0.684,0,1.365-0.36,1.365-1.027
		c0-1.518-4.225-1.209-4.225-3.894c0-1.499,1.33-2.344,2.973-2.344c1.804,0,2.655,0.908,2.655,0.908l-0.638,1.19
		c0,0-0.732-0.731-2.031-0.731c-0.688,0-1.354,0.291-1.354,1.008c0,1.48,4.229,1.159,4.229,3.862c0,1.367-1.171,2.394-2.975,2.394
		c-2.015,0-3.122-1.209-3.122-1.209L504.932,55.085z"/>
	<path style="fill:#00AC92;" d="M515.661,48.785c2.327,0,3.562,1.726,3.562,3.856c0,0.214-0.048,0.687-0.048,0.687h-5.998
		c0.08,1.808,1.363,2.721,2.832,2.721c1.409,0,2.435-0.964,2.435-0.964l0.65,1.158c0,0-1.219,1.173-3.187,1.173
		c-2.587,0-4.358-1.877-4.358-4.316C511.548,50.475,513.32,48.785,515.661,48.785z M517.616,52.137
		c-0.048-1.417-0.928-2.099-1.985-2.099c-1.204,0-2.177,0.75-2.404,2.099H517.616z"/>
	<path style="fill:#00AC92;" d="M521.143,48.98h1.528v1.431c0,0.341-0.03,0.618-0.03,0.618h0.03
		c0.375-1.204,1.332-2.148,2.604-2.148c0.211,0,0.403,0.031,0.403,0.031v1.563c0,0-0.206-0.045-0.453-0.045
		c-1.009,0-1.938,0.713-2.308,1.935c-0.147,0.473-0.197,0.977-0.197,1.486v3.371h-1.577V48.98z"/>
	<path style="fill:#00AC92;" d="M526.12,48.98h1.674l2,5.569c0.163,0.454,0.26,1.122,0.277,1.122h0.032
		c0.016,0,0.131-0.667,0.293-1.122l2.002-5.569h1.658l-3.041,8.241h-1.823L526.12,48.98z"/>
	<path style="fill:#00AC92;" d="M535.388,45.724h1.592v1.607h-1.592V45.724z M535.406,48.98h1.574v8.241h-1.574V48.98z"/>
	<path style="fill:#00AC92;" d="M543.277,48.785c2.065,0,3.087,1.204,3.087,1.204l-0.742,1.108c0,0-0.881-0.945-2.278-0.945
		c-1.66,0-2.864,1.235-2.864,2.93c0,1.676,1.204,2.967,2.914,2.967c1.524,0,2.534-1.109,2.534-1.109l0.634,1.153
		c0,0-1.142,1.323-3.284,1.323c-2.588,0-4.409-1.84-4.409-4.316C538.868,50.656,540.689,48.785,543.277,48.785z"/>
	<path style="fill:#00AC92;" d="M551.894,48.785c2.327,0,3.562,1.726,3.562,3.856c0,0.214-0.049,0.687-0.049,0.687h-5.998
		c0.08,1.808,1.364,2.721,2.825,2.721c1.417,0,2.441-0.964,2.441-0.964l0.649,1.158c0,0-1.219,1.173-3.185,1.173
		c-2.589,0-4.361-1.877-4.361-4.316C547.78,50.475,549.552,48.785,551.894,48.785z M553.846,52.137
		c-0.045-1.417-0.925-2.099-1.982-2.099c-1.205,0-2.178,0.75-2.408,2.099H553.846z"/>
	<path style="fill:#00AC92;" d="M557.588,55.508h1.608l-1.366,3.357h-1.254L557.588,55.508z"/>
	<path style="fill:#00AC92;" d="M271.305,71.66h-1.074V70.39h1.124v-2.38h1.529v2.38h1.983v1.271h-1.983v3.663
		c0,1.644,1.154,1.858,1.756,1.858c0.227,0,0.374-0.032,0.374-0.032v1.398c0,0-0.229,0.032-0.554,0.032
		c-1.058,0-3.155-0.328-3.155-3.076V71.66z"/>
	<path style="fill:#00AC92;" d="M276.785,67.019h1.577v4.215c0,0.391-0.032,0.687-0.032,0.687h0.032c0.357-0.8,1.4-1.84,3.042-1.84
		c1.934,0,2.829,1.059,2.829,3.157v5.279h-1.577v-4.92c0-1.153-0.246-2.067-1.561-2.067c-1.237,0-2.261,0.844-2.603,2.035
		c-0.097,0.327-0.131,0.7-0.131,1.09v3.862h-1.577V67.019z"/>
	<path style="fill:#00AC92;" d="M290.137,70.081c2.325,0,3.562,1.726,3.562,3.856c0,0.214-0.049,0.687-0.049,0.687h-6.002
		c0.082,1.808,1.366,2.721,2.83,2.721c1.416,0,2.439-0.963,2.439-0.963l0.651,1.159c0,0-1.221,1.172-3.188,1.172
		c-2.586,0-4.357-1.871-4.357-4.315C286.022,71.775,287.794,70.081,290.137,70.081z M292.089,73.433
		c-0.05-1.417-0.929-2.099-1.986-2.099c-1.203,0-2.178,0.75-2.407,2.099H292.089z"/>
	<path style="fill:#00AC92;" d="M295.016,80.224c0,0,0.454,0.346,0.958,0.346c0.634,0,1.17-0.459,1.48-1.209l0.406-0.945
		l-3.447-8.14h1.772l2.064,5.387c0.163,0.428,0.31,0.995,0.31,0.995h0.032c0,0,0.129-0.554,0.277-0.977l2.001-5.405h1.707
		l-3.855,9.721c-0.503,1.272-1.51,1.94-2.667,1.94c-0.927,0-1.594-0.504-1.594-0.504L295.016,80.224z"/>
	<path style="fill:#00AC92;" d="M308.431,71.66h-1.074V70.39h1.124v-2.38h1.529v2.38h1.983v1.271h-1.983v3.663
		c0,1.644,1.153,1.858,1.756,1.858c0.227,0,0.374-0.032,0.374-0.032v1.398c0,0-0.229,0.032-0.554,0.032
		c-1.056,0-3.154-0.328-3.154-3.076V71.66z"/>
	<path style="fill:#00AC92;" d="M317.456,70.081c2.328,0,3.562,1.726,3.562,3.856c0,0.214-0.049,0.687-0.049,0.687h-6
		c0.082,1.808,1.366,2.721,2.829,2.721c1.415,0,2.438-0.963,2.438-0.963l0.652,1.159c0,0-1.219,1.172-3.188,1.172
		c-2.587,0-4.359-1.871-4.359-4.315C313.342,71.775,315.114,70.081,317.456,70.081z M319.408,73.433
		c-0.049-1.417-0.927-2.099-1.984-2.099c-1.203,0-2.178,0.75-2.405,2.099H319.408z"/>
	<path style="fill:#00AC92;" d="M322.838,67.019h1.578v8.971c0,0.996,0.391,1.172,0.879,1.172c0.145,0,0.276-0.013,0.276-0.013
		v1.398c0,0-0.245,0.032-0.521,0.032c-0.895,0-2.212-0.246-2.212-2.312V67.019z"/>
	<path style="fill:#00AC92;" d="M327.149,67.019h1.577v8.971c0,0.996,0.39,1.172,0.88,1.172c0.145,0,0.277-0.013,0.277-0.013v1.398
		c0,0-0.247,0.032-0.523,0.032c-0.894,0-2.211-0.246-2.211-2.312V67.019z"/>
	<path style="fill:#00AC92;" d="M335.41,77.115h2.539V69.69c0-0.359,0.015-0.718,0.015-0.718h-0.033c0,0-0.128,0.259-0.554,0.667
		l-1.072,1.059l-0.975-1.008l2.746-2.671h1.436v10.096h2.504v1.401h-6.605V77.115z"/>
	<path style="fill:#00AC92;" d="M343.476,72.752c0-3.308,0.993-5.929,4.052-5.929c3.072,0,4.065,2.621,4.065,5.929
		c0,3.32-0.993,5.959-4.065,5.959C344.469,78.712,343.476,76.073,343.476,72.752z M349.948,72.752c0-2.495-0.533-4.448-2.42-4.448
		c-1.872,0-2.408,1.953-2.408,4.448c0,2.507,0.536,4.479,2.408,4.479C349.415,77.231,349.948,75.26,349.948,72.752z"/>
	<path style="fill:#00AC92;" d="M354.079,73.174h4.752v1.399h-4.752V73.174z"/>
	<path style="fill:#00AC92;" d="M361.202,77.115h2.538V69.69c0-0.359,0.014-0.718,0.014-0.718h-0.029c0,0-0.135,0.259-0.553,0.667
		l-1.071,1.059l-0.979-1.008l2.746-2.671h1.435v10.096h2.505v1.401h-6.604V77.115z"/>
	<path style="fill:#00AC92;" d="M369.138,77.635c0-4.102,5.627-4.688,5.627-7.39c0-1.14-0.859-1.909-2.065-1.909
		c-1.512,0-2.326,1.468-2.326,1.468l-1.186-0.8c0,0,1.044-2.18,3.627-2.18c2.113,0,3.624,1.317,3.624,3.302
		c0,3.78-5.478,4.366-5.513,6.99h5.692v1.401h-7.399C369.174,78.208,369.138,77.912,369.138,77.635z"/>
	<path style="fill:#00AC92;" d="M382.959,70.276h1.447v0.699c0,0.327-0.03,0.604-0.03,0.604h0.03c0,0,0.703-1.5,2.768-1.5
		c2.21,0,3.611,1.758,3.611,4.316c0,2.621-1.576,4.315-3.725,4.315c-1.804,0-2.521-1.354-2.521-1.354h-0.033
		c0,0,0.033,0.295,0.033,0.718v3.698h-1.58V70.276z M386.817,77.358c1.302,0,2.373-1.072,2.373-2.948
		c0-1.79-0.958-2.949-2.327-2.949c-1.236,0-2.373,0.863-2.373,2.967C384.49,75.896,385.302,77.358,386.817,77.358z"/>
	<path style="fill:#00AC92;" d="M396.261,70.081c2.329,0,3.562,1.726,3.562,3.856c0,0.214-0.047,0.687-0.047,0.687h-6
		c0.08,1.808,1.365,2.721,2.827,2.721c1.418,0,2.439-0.963,2.439-0.963l0.653,1.159c0,0-1.22,1.172-3.188,1.172
		c-2.588,0-4.362-1.871-4.362-4.315C392.146,71.775,393.92,70.081,396.261,70.081z M398.212,73.433
		c-0.047-1.417-0.924-2.099-1.98-2.099c-1.204,0-2.177,0.75-2.408,2.099H398.212z"/>
	<path style="fill:#00AC92;" d="M405.582,70.081c2.459,0,4.438,1.809,4.438,4.297c0,2.508-1.979,4.334-4.438,4.334
		c-2.453,0-4.437-1.827-4.437-4.334C401.145,71.889,403.128,70.081,405.582,70.081z M405.582,77.345c1.562,0,2.832-1.24,2.832-2.967
		c0-1.707-1.27-2.929-2.832-2.929c-1.543,0-2.826,1.222-2.826,2.929C402.755,76.104,404.039,77.345,405.582,77.345z"/>
	<path style="fill:#00AC92;" d="M411.893,70.276h1.446v0.699c0,0.327-0.032,0.604-0.032,0.604h0.032c0,0,0.701-1.5,2.765-1.5
		c2.213,0,3.612,1.758,3.612,4.316c0,2.621-1.58,4.315-3.727,4.315c-1.807,0-2.521-1.354-2.521-1.354h-0.033
		c0,0,0.033,0.295,0.033,0.718v3.698h-1.575V70.276z M415.745,77.358c1.304,0,2.378-1.072,2.378-2.948
		c0-1.79-0.961-2.949-2.327-2.949c-1.235,0-2.373,0.863-2.373,2.967C413.422,75.896,414.234,77.358,415.745,77.358z"/>
	<path style="fill:#00AC92;" d="M421.553,67.019h1.578v8.971c0,0.996,0.391,1.172,0.876,1.172c0.145,0,0.277-0.013,0.277-0.013
		v1.398c0,0-0.246,0.032-0.524,0.032c-0.894,0-2.207-0.246-2.207-2.312V67.019z"/>
	<path style="fill:#00AC92;" d="M429.506,70.081c2.322,0,3.562,1.726,3.562,3.856c0,0.214-0.05,0.687-0.05,0.687h-6.004
		c0.08,1.808,1.364,2.721,2.832,2.721c1.414,0,2.436-0.963,2.436-0.963l0.654,1.159c0,0-1.223,1.172-3.188,1.172
		c-2.588,0-4.357-1.871-4.357-4.315C425.392,71.775,427.162,70.081,429.506,70.081z M431.458,73.433
		c-0.05-1.417-0.929-2.099-1.984-2.099c-1.207,0-2.182,0.75-2.407,2.099H431.458z"/>
	<path style="fill:#00AC92;" d="M435.197,76.803h1.61l-1.367,3.357h-1.251L435.197,76.803z"/>
	<path style="fill:#00AC92;" d="M447.147,70.081c2.459,0,4.44,1.809,4.44,4.297c0,2.508-1.981,4.334-4.44,4.334
		c-2.455,0-4.438-1.827-4.438-4.334C442.708,71.889,444.692,70.081,447.147,70.081z M447.147,77.345c1.565,0,2.829-1.24,2.829-2.967
		c0-1.707-1.264-2.929-2.829-2.929c-1.543,0-2.827,1.222-2.827,2.929C444.32,76.104,445.604,77.345,447.147,77.345z"/>
	<path style="fill:#00AC92;" d="M453.458,70.276h1.527v1.09c0,0.327-0.03,0.604-0.03,0.604h0.03
		c0.327-0.719,1.304-1.891,3.092-1.891c1.938,0,2.832,1.059,2.832,3.157v5.279h-1.581v-4.92c0-1.153-0.242-2.067-1.562-2.067
		c-1.251,0-2.258,0.832-2.6,2.016c-0.098,0.328-0.131,0.705-0.131,1.109v3.862h-1.578V70.276z"/>
	<path style="fill:#00AC92;" d="M471.736,73.37h0.36v-0.145c0-1.354-0.767-1.808-1.808-1.808c-1.27,0-2.291,0.794-2.291,0.794
		l-0.654-1.153c0,0,1.191-0.977,3.079-0.977c2.079,0,3.251,1.141,3.251,3.226v5.21h-1.464v-0.781c0-0.377,0.03-0.655,0.03-0.655
		h-0.03c0,0-0.668,1.631-2.638,1.631c-1.412,0-2.795-0.863-2.795-2.508C466.777,73.483,470.355,73.37,471.736,73.37z
		 M469.918,77.439c1.329,0,2.194-1.399,2.194-2.621V74.56h-0.406c-1.19,0-3.335,0.082-3.335,1.562
		C468.372,76.791,468.892,77.439,469.918,77.439z"/>
	<path style="fill:#00AC92;" d="M474.909,70.276h1.674l1.999,5.569c0.165,0.454,0.262,1.122,0.278,1.122h0.032
		c0.018,0,0.131-0.668,0.295-1.122l1.998-5.569h1.659l-3.04,8.24h-1.825L474.909,70.276z"/>
	<path style="fill:#00AC92;" d="M487.741,70.081c2.328,0,3.561,1.726,3.561,3.856c0,0.214-0.05,0.687-0.05,0.687h-6.001
		c0.082,1.808,1.37,2.721,2.83,2.721c1.415,0,2.441-0.963,2.441-0.963l0.647,1.159c0,0-1.219,1.172-3.186,1.172
		c-2.585,0-4.359-1.871-4.359-4.315C483.625,71.775,485.399,70.081,487.741,70.081z M489.691,73.433
		c-0.05-1.417-0.927-2.099-1.982-2.099c-1.202,0-2.18,0.75-2.41,2.099H489.691z"/>
	<path style="fill:#00AC92;" d="M493.219,70.276h1.529v1.431c0,0.346-0.032,0.617-0.032,0.617h0.032
		c0.372-1.204,1.336-2.148,2.599-2.148c0.215,0,0.411,0.031,0.411,0.031v1.568c0,0-0.215-0.05-0.453-0.05
		c-1.015,0-1.938,0.718-2.312,1.935c-0.149,0.473-0.196,0.981-0.196,1.486v3.371h-1.577V70.276z"/>
	<path style="fill:#00AC92;" d="M503.611,73.37h0.357v-0.145c0-1.354-0.76-1.808-1.804-1.808c-1.27,0-2.292,0.794-2.292,0.794
		l-0.652-1.153c0,0,1.187-0.977,3.073-0.977c2.084,0,3.256,1.141,3.256,3.226v5.21h-1.468v-0.781c0-0.377,0.032-0.655,0.032-0.655
		h-0.032c0,0-0.667,1.631-2.632,1.631c-1.414,0-2.799-0.863-2.799-2.508C498.651,73.483,502.231,73.37,503.611,73.37z
		 M501.791,77.439c1.334,0,2.198-1.399,2.198-2.621V74.56h-0.411c-1.188,0-3.335,0.082-3.335,1.562
		C500.243,76.791,500.765,77.439,501.791,77.439z"/>
	<path style="fill:#00AC92;" d="M510.897,80.57c1.431,0,2.603-0.637,2.603-2.318v-0.599c0-0.264,0.016-0.522,0.016-0.522h-0.032
		c-0.489,0.812-1.251,1.285-2.442,1.285c-2.29,0-3.674-1.839-3.674-4.215c0-2.362,1.318-4.121,3.596-4.121
		c1.986,0,2.582,1.222,2.582,1.222h0.037c0,0-0.017-0.113-0.017-0.264v-0.762h1.512v7.9c0,2.716-2.064,3.761-4.147,3.761
		c-0.992,0-2.016-0.277-2.813-0.687l0.521-1.235C508.636,80.016,509.664,80.57,510.897,80.57z M513.533,74.214
		c0-2.149-1.044-2.766-2.328-2.766c-1.428,0-2.242,1.04-2.242,2.721c0,1.708,0.909,2.88,2.389,2.88
		C512.489,77.049,513.533,76.369,513.533,74.214z"/>
	<path style="fill:#00AC92;" d="M521.093,70.081c2.327,0,3.561,1.726,3.561,3.856c0,0.214-0.047,0.687-0.047,0.687h-6.002
		c0.082,1.808,1.367,2.721,2.829,2.721c1.416,0,2.439-0.963,2.439-0.963l0.654,1.159c0,0-1.222,1.172-3.192,1.172
		c-2.584,0-4.357-1.871-4.357-4.315C516.978,71.775,518.751,70.081,521.093,70.081z M523.043,73.433
		c-0.048-1.417-0.928-2.099-1.984-2.099c-1.2,0-2.178,0.75-2.404,2.099H523.043z"/>
</g>
<g>
	<path style="fill:#00AC92;" d="M136.244,72.75h5.93V53.357c0-0.752,0.036-1.467,0.036-1.467h-0.072c0,0-0.266,0.562-1.314,1.58
		l-2.816,2.817l-1.65-1.692l5.964-5.937h2.406V72.75h5.817v2.326h-14.299V72.75z"/>
	<path style="fill:#00AC92;" d="M153.884,73.389c0-9.285,13.507-10.487,13.507-17.629c0-2.895-2.175-5.072-5.48-5.072
		c-3.862,0-5.889,3.609-5.889,3.609l-1.951-1.318c0,0,2.401-4.771,7.994-4.771c5.025,0,8.028,3.267,8.028,7.403
		c0,8.872-13.321,10.108-13.359,17.139h13.773v2.326h-16.475C153.919,74.479,153.884,73.91,153.884,73.389z"/>
</g>
<g>
	<path style="fill:#00AC92;" d="M116.331,62.952l-5.407-6.091l1.026-1.027l5.359,6.039l5.353-6.039l1.027,1.027l-5.43,6.091
		l5.43,6.085l-1.027,1.028l-5.353-6.04l-5.359,6.04l-1.026-1.028L116.331,62.952z"/>
</g>
<g id="Shape_5">
	<g>
		<path style="fill:#00AC92;" d="M84.678,72.527l-11.513-3.173v-3.39c3.38-2.507,5.631-6.885,5.631-11.872
			C78.797,46.322,73.339,40,66.631,40c-6.71,0-12.167,6.322-12.167,14.093c0,4.948,2.215,9.299,5.552,11.815v3.446l-11.583,3.189
			c-2.61,0.934-4.363,3.421-4.363,6.196V85.1h45.036V78.74C89.106,75.965,87.357,73.479,84.678,72.527z M66.631,41.882
			c4.469,0,8.268,3.402,9.685,8.136c-0.381,0.364-0.901,0.537-1.585,0.521c-1.915-0.072-4.41-1.667-5.448-3.492l-0.869-1.519
			l-0.784,1.567c-0.794,1.584-2.143,2.551-4.022,2.868c-2.502,0.424-5.139-0.408-6.295-1.021
			C58.953,44.779,62.508,41.882,66.631,41.882z M56.339,54.093c0-1.155,0.145-2.269,0.398-3.329
			c1.735,0.842,4.601,1.495,7.188,1.054c1.933-0.33,3.495-1.232,4.593-2.627c1.564,1.809,4.025,3.146,6.139,3.225
			c0.069,0.002,0.131,0.003,0.193,0.003c0.706,0,1.348-0.146,1.903-0.425c0.101,0.684,0.163,1.382,0.163,2.099
			c0,6.734-4.612,12.215-10.286,12.215C60.956,66.308,56.339,60.827,56.339,54.093z M87.231,83.223H45.951V78.74
			c0-1.98,1.252-3.758,3.045-4.403l12.901-3.554v-3.705c1.456,0.715,3.056,1.111,4.734,1.111c1.648,0,3.219-0.385,4.654-1.077v3.67
			l12.83,3.531c1.864,0.667,3.117,2.446,3.117,4.425V83.223z"/>
	</g>
</g>
<g>
	<path style="fill:#E28442;" d="M136.071,268.175h5.904v-19.387c0-0.758,0.035-1.472,0.035-1.472h-0.073
		c0,0-0.263,0.566-1.309,1.583l-2.802,2.819l-1.644-1.695l5.94-5.94h2.392v24.092h5.794v2.332h-14.237V268.175z"/>
	<path style="fill:#E28442;" d="M154.011,257.274c0-7.588,2.243-13.641,9.084-13.641c6.839,0,9.044,6.053,9.044,13.641
		c0,7.67-2.205,13.683-9.044,13.683C156.254,270.957,154.011,264.944,154.011,257.274z M169.448,257.274
		c0-6.271-1.385-11.197-6.353-11.197c-5.009,0-6.393,4.926-6.393,11.197c0,6.319,1.384,11.237,6.393,11.237
		C168.063,268.512,169.448,263.594,169.448,257.274z"/>
	<path style="fill:#E28442;" d="M176.853,248.858c0-2.853,2.315-5.225,5.232-5.225c2.917,0,5.271,2.372,5.271,5.225
		c0,2.894-2.354,5.226-5.271,5.226C179.168,254.084,176.853,251.752,176.853,248.858z M197.11,244.083h2.652l-19.993,26.424h-2.693
		L197.11,244.083z M185.148,248.858c0-1.687-1.344-3.119-3.064-3.119s-3.028,1.433-3.028,3.119c0,1.728,1.308,3.119,3.028,3.119
		S185.148,250.586,185.148,248.858z M194.718,260.508c2.915,0,5.269,2.37,5.269,5.264c0,2.854-2.354,5.186-5.269,5.186
		c-2.917,0-5.232-2.332-5.232-5.186C189.486,262.878,191.801,260.508,194.718,260.508z M194.718,268.85
		c1.72,0,3.064-1.391,3.064-3.119c0-1.688-1.344-3.118-3.064-3.118c-1.721,0-2.99,1.431-2.99,3.118
		C191.729,267.459,192.997,268.85,194.718,268.85z"/>
</g>
<g>
	<path style="fill:#E28442;" d="M112.373,257.65h5.76v-6.393h1.522v6.393h5.734v1.452h-5.734v6.394h-1.522v-6.394h-5.76V257.65z"/>
</g>
<g id="Shape_6_copy">
	<g>
		<path style="fill:#E28442;" d="M95.666,232.039h-7.497c-0.498,0-0.932,0.341-1.047,0.829l-2.83,12.06H46.383
			c-0.341,0-0.667,0.158-0.868,0.446c-0.2,0.278-0.255,0.638-0.146,0.966l6.429,19.329c0.145,0.439,0.554,0.731,1.013,0.731h26.441
			l-0.505,2.152H56.029c-2.365,0-4.286,1.927-4.286,4.294c0,2.369,1.921,4.294,4.286,4.294c2.363,0,4.285-1.925,4.285-4.294
			c0-0.785-0.227-1.512-0.595-2.146h16.189c-0.369,0.634-0.595,1.36-0.595,2.146c0,2.369,1.921,4.294,4.285,4.294
			c2.364,0,4.286-1.925,4.286-4.294c0-1.911-1.261-3.516-2.987-4.07l0.685-2.916c0.092-0.158,0.16-0.332,0.16-0.53
			c0-0.029-0.014-0.053-0.017-0.081l7.291-31.061h6.65c0.591,0,1.073-0.48,1.073-1.078
			C96.738,232.521,96.256,232.039,95.666,232.039z M53.585,264.26l-5.711-17.187h35.914l-4.034,17.187H53.585z M58.171,272.847
			c0,1.182-0.964,2.149-2.143,2.149c-1.186,0-2.143-0.968-2.143-2.149s0.957-2.146,2.143-2.146
			C57.208,270.701,58.171,271.665,58.171,272.847z M81.741,272.847c0,1.182-0.963,2.149-2.143,2.149
			c-1.185,0-2.142-0.968-2.142-2.149s0.958-2.146,2.142-2.146C80.777,270.701,81.741,271.665,81.741,272.847z"/>
	</g>
</g>
<g>
	<path style="fill:#C972B9;" d="M140.667,152.978c-1.869-1.246-3.253-2.862-3.253-5.377c0-3.42,2.616-6.688,7.925-6.688
		c4.897,0,8.035,2.741,8.035,6.875c0,3.76-2.914,6.839-3.215,7.144c2.168,1.238,3.812,2.926,3.812,5.677
		c0,4.131-3.624,7.629-8.708,7.629c-4.746,0-8.894-3.048-8.894-8.048C136.369,155.944,140.07,153.347,140.667,152.978z
		 M142.798,154.104c-0.823,0.488-3.775,2.588-3.775,5.972c0,3.569,3.064,5.747,6.24,5.747c3.103,0,6.056-2.137,6.056-5.256
		C151.319,157.148,146.683,155.983,142.798,154.104z M148.031,153.877c0.485-0.45,2.728-2.82,2.728-5.977
		c0-2.818-2.243-4.585-5.419-4.585c-3.364,0-5.309,1.953-5.309,4.323C140.031,151.057,144.256,152.223,148.031,153.877z"/>
	<path style="fill:#C972B9;" d="M158.724,166.088c0-9.284,13.454-10.481,13.454-17.621c0-2.896-2.168-5.076-5.458-5.076
		c-3.848,0-5.868,3.606-5.868,3.606l-1.944-1.312c0,0,2.392-4.772,7.963-4.772c5.006,0,7.999,3.269,7.999,7.403
		c0,8.866-13.269,10.104-13.305,17.139h13.715v2.327h-16.407C158.759,167.182,158.724,166.62,158.724,166.088z"/>
	<path style="fill:#C972B9;" d="M179.693,146.135c0-2.855,2.315-5.223,5.232-5.223s5.271,2.367,5.271,5.223
		c0,2.895-2.354,5.227-5.271,5.227S179.693,149.029,179.693,146.135z M199.95,141.362h2.652l-19.993,26.419h-2.693L199.95,141.362z
		 M187.989,146.135c0-1.693-1.343-3.119-3.064-3.119c-1.72,0-3.028,1.426-3.028,3.119c0,1.729,1.308,3.119,3.028,3.119
		C186.646,149.254,187.989,147.863,187.989,146.135z M197.558,157.785c2.917,0,5.27,2.368,5.27,5.263
		c0,2.856-2.353,5.188-5.27,5.188s-5.232-2.332-5.232-5.188C192.326,160.153,194.641,157.785,197.558,157.785z M197.558,166.128
		c1.72,0,3.064-1.39,3.064-3.117c0-1.697-1.344-3.119-3.064-3.119c-1.721,0-2.99,1.422-2.99,3.119
		C194.568,164.738,195.837,166.128,197.558,166.128z"/>
</g>
<g>
	<path style="fill:#C972B9;" d="M111.122,154.93h5.759v-6.392h1.523v6.392h5.733v1.452h-5.733v6.39h-1.523v-6.39h-5.759V154.93z"/>
</g>
<g id="Shape_6">
	<g>
		<path style="fill:#C462B2;" d="M55.093,151.842c-0.516-0.332-1.207-0.182-1.542,0.332l-4.449,6.873
			c-0.274-3.712,0.603-7.402,2.605-10.627c2.507-4.047,6.445-6.88,11.093-7.972c6.422-1.516,13.131,0.608,17.509,5.535
			c0.411,0.457,1.115,0.502,1.578,0.096c0.464-0.407,0.504-1.109,0.099-1.569c-4.927-5.543-12.469-7.929-19.698-6.231
			c-5.229,1.232-9.661,4.42-12.486,8.973c-2.135,3.451-3.148,7.37-2.979,11.335l-4.864-5.592c-0.403-0.464-1.105-0.514-1.573-0.112
			c-0.467,0.4-0.518,1.104-0.112,1.567l7.317,8.41c0.015,0.018,0.038,0.023,0.053,0.04c0.075,0.076,0.159,0.14,0.252,0.191
			c0.041,0.022,0.078,0.048,0.121,0.065c0.131,0.053,0.269,0.088,0.415,0.088c0,0,0,0,0,0c0,0,0,0,0,0
			c0.026,0,0.052-0.001,0.079-0.003c0.026-0.001,0.05-0.01,0.075-0.014c0.034-0.004,0.068-0.003,0.103-0.011
			c0.01-0.002,0.017-0.01,0.027-0.013c0.125-0.032,0.24-0.087,0.346-0.159c0.021-0.015,0.039-0.029,0.059-0.045
			c0.096-0.075,0.185-0.16,0.252-0.264l6.054-9.354C55.761,152.869,55.613,152.175,55.093,151.842z M92.938,164.271l-6.175-9.171
			c0,0,0,0,0-0.001l-0.051-0.075c-0.055-0.081-0.123-0.151-0.195-0.214c-0.031-0.026-0.063-0.047-0.096-0.069
			c-0.079-0.055-0.164-0.1-0.255-0.132c-0.036-0.013-0.07-0.024-0.108-0.034c-0.069-0.017-0.14-0.031-0.212-0.035
			c-0.057-0.005-0.112,0.003-0.167,0.007c-0.005,0.001-0.01-0.002-0.015-0.001c-0.002,0-0.004,0.002-0.006,0.002
			c-0.147,0.015-0.285,0.061-0.411,0.132c-0.003,0.002-0.005,0.004-0.008,0.005c-0.115,0.067-0.222,0.148-0.309,0.253l-7.161,8.54
			c-0.393,0.479-0.332,1.173,0.142,1.566c0.474,0.399,1.176,0.331,1.575-0.136l5.275-6.292c-0.357,7.814-5.864,14.644-13.731,16.495
			c-6.029,1.422-12.264-0.317-16.677-4.657c-0.44-0.431-1.152-0.427-1.582,0.013c-0.435,0.439-0.433,1.137,0.01,1.57
			c3.83,3.762,8.872,5.788,14.085,5.788c1.555,0,3.119-0.177,4.675-0.547c8.626-2.033,14.744-9.381,15.421-17.892l4.125,6.128
			c0.212,0.319,0.567,0.494,0.928,0.494c0.217,0,0.428-0.064,0.62-0.196C93.15,165.472,93.282,164.784,92.938,164.271z"/>
	</g>
</g>
<g>
	<path style="fill:#DE9059;" d="M271.288,223.612h4.198c2.097,0,3.61,1.416,3.61,3.595c0,2.181-1.513,3.654-3.61,3.654h-2.587v4.246
		h-1.611V223.612z M275.225,229.459c1.381,0,2.228-0.865,2.228-2.252c0-1.384-0.847-2.192-2.213-2.192h-2.341v4.444H275.225z"/>
	<path style="fill:#DE9059;" d="M284.381,226.674c2.324,0,3.561,1.726,3.561,3.859c0,0.214-0.05,0.681-0.05,0.681h-6
		c0.081,1.814,1.365,2.723,2.83,2.723c1.416,0,2.441-0.959,2.441-0.959l0.648,1.155c0,0-1.219,1.176-3.188,1.176
		c-2.586,0-4.358-1.877-4.358-4.32C280.265,228.367,282.037,226.674,284.381,226.674z M286.332,230.029
		c-0.049-1.422-0.928-2.104-1.984-2.104c-1.204,0-2.18,0.752-2.407,2.104H286.332z"/>
	<path style="fill:#DE9059;" d="M293.699,226.674c2.455,0,4.438,1.807,4.438,4.302c0,2.507-1.982,4.333-4.438,4.333
		c-2.458,0-4.442-1.826-4.442-4.333C289.257,228.48,291.242,226.674,293.699,226.674z M293.699,233.937
		c1.562,0,2.828-1.235,2.828-2.961c0-1.714-1.267-2.937-2.828-2.937c-1.547,0-2.831,1.223-2.831,2.937
		C290.869,232.701,292.152,233.937,293.699,233.937z"/>
	<path style="fill:#DE9059;" d="M300.007,226.868h1.448v0.704c0,0.323-0.033,0.596-0.033,0.596h0.033c0,0,0.698-1.494,2.766-1.494
		c2.209,0,3.609,1.756,3.609,4.314c0,2.62-1.576,4.32-3.725,4.32c-1.803,0-2.521-1.359-2.521-1.359h-0.031
		c0,0,0.031,0.297,0.031,0.719v3.698h-1.578V226.868z M303.863,233.949c1.299,0,2.373-1.072,2.373-2.948
		c0-1.789-0.957-2.946-2.326-2.946c-1.236,0-2.374,0.866-2.374,2.971C301.536,232.487,302.349,233.949,303.863,233.949z"/>
	<path style="fill:#DE9059;" d="M309.667,223.612h1.577v8.976c0,0.991,0.39,1.172,0.878,1.172c0.148,0,0.276-0.018,0.276-0.018
		v1.402c0,0-0.242,0.026-0.519,0.026c-0.894,0-2.213-0.239-2.213-2.307V223.612z"/>
	<path style="fill:#DE9059;" d="M317.619,226.674c2.329,0,3.562,1.726,3.562,3.859c0,0.214-0.048,0.681-0.048,0.681h-6
		c0.079,1.814,1.365,2.723,2.827,2.723c1.416,0,2.439-0.959,2.439-0.959l0.651,1.155c0,0-1.22,1.176-3.187,1.176
		c-2.587,0-4.36-1.877-4.36-4.32C313.505,228.367,315.278,226.674,317.619,226.674z M319.571,230.029
		c-0.049-1.422-0.926-2.104-1.984-2.104c-1.202,0-2.178,0.752-2.408,2.104H319.571z"/>
	<path style="fill:#DE9059;" d="M326.321,226.868h1.675l1.706,5.783c0.131,0.424,0.196,0.881,0.212,0.881h0.032
		c0,0,0.081-0.457,0.214-0.881l1.787-5.771h1.448l1.774,5.771c0.128,0.424,0.226,0.881,0.226,0.881h0.031
		c0,0,0.066-0.457,0.196-0.881l1.725-5.783h1.66l-2.652,8.239h-1.739l-1.709-5.292c-0.13-0.428-0.227-0.895-0.227-0.895h-0.034
		c0,0-0.095,0.467-0.228,0.895l-1.691,5.292h-1.757L326.321,226.868z"/>
	<path style="fill:#DE9059;" d="M340.5,223.612h1.595v1.612H340.5V223.612z M340.517,226.868h1.578v8.239h-1.578V226.868z"/>
	<path style="fill:#DE9059;" d="M344.469,223.612h1.577v8.976c0,0.991,0.39,1.172,0.878,1.172c0.149,0,0.277-0.018,0.277-0.018
		v1.402c0,0-0.243,0.026-0.519,0.026c-0.898,0-2.214-0.239-2.214-2.307V223.612z"/>
	<path style="fill:#DE9059;" d="M348.778,223.612h1.58v8.976c0,0.991,0.391,1.172,0.875,1.172c0.147,0,0.276-0.018,0.276-0.018
		v1.402c0,0-0.242,0.026-0.52,0.026c-0.895,0-2.212-0.239-2.212-2.307V223.612z"/>
	<path style="fill:#DE9059;" d="M357.461,232.978c0,0,0.929,0.959,2.362,0.959c0.681,0,1.362-0.357,1.362-1.026
		c0-1.518-4.229-1.204-4.229-3.89c0-1.498,1.334-2.347,2.98-2.347c1.803,0,2.646,0.912,2.646,0.912l-0.632,1.185
		c0,0-0.73-0.731-2.037-0.731c-0.68,0-1.347,0.291-1.347,1.009c0,1.485,4.229,1.159,4.229,3.862c0,1.366-1.17,2.398-2.973,2.398
		c-2.022,0-3.122-1.209-3.122-1.209L357.461,232.978z"/>
	<path style="fill:#DE9059;" d="M364.647,226.868h1.448v0.704c0,0.323-0.028,0.596-0.028,0.596h0.028c0,0,0.702-1.494,2.768-1.494
		c2.213,0,3.611,1.756,3.611,4.314c0,2.62-1.576,4.32-3.727,4.32c-1.801,0-2.518-1.359-2.518-1.359h-0.035
		c0,0,0.035,0.297,0.035,0.719v3.698h-1.583V226.868z M368.507,233.949c1.298,0,2.37-1.072,2.37-2.948
		c0-1.789-0.959-2.946-2.32-2.946c-1.242,0-2.378,0.866-2.378,2.971C366.179,232.487,366.991,233.949,368.507,233.949z"/>
	<path style="fill:#DE9059;" d="M377.951,226.674c2.327,0,3.562,1.726,3.562,3.859c0,0.214-0.048,0.681-0.048,0.681h-5.998
		c0.079,1.814,1.363,2.723,2.83,2.723c1.414,0,2.435-0.959,2.435-0.959l0.653,1.155c0,0-1.22,1.176-3.188,1.176
		c-2.589,0-4.359-1.877-4.359-4.32C373.837,228.367,375.608,226.674,377.951,226.674z M379.905,230.029
		c-0.047-1.422-0.928-2.104-1.983-2.104c-1.205,0-2.178,0.752-2.403,2.104H379.905z"/>
	<path style="fill:#DE9059;" d="M383.432,226.868h1.527v1.095c0,0.323-0.028,0.601-0.028,0.601h0.028
		c0.327-0.717,1.305-1.89,3.092-1.89c1.938,0,2.832,1.058,2.832,3.155v5.278h-1.582v-4.914c0-1.159-0.239-2.07-1.56-2.07
		c-1.251,0-2.257,0.831-2.602,2.021c-0.097,0.327-0.13,0.696-0.13,1.107v3.856h-1.578V226.868z"/>
	<path style="fill:#DE9059;" d="M396.426,226.674c1.901,0,2.536,1.303,2.536,1.303h0.033c0,0-0.033-0.245-0.033-0.555v-3.81h1.578
		v11.495h-1.497v-0.78c0-0.328,0.021-0.555,0.021-0.555h-0.033c0,0-0.667,1.536-2.698,1.536c-2.229,0-3.633-1.764-3.633-4.32
		C392.7,228.367,394.249,226.674,396.426,226.674z M396.639,233.937c1.221,0,2.374-0.861,2.374-2.961
		c0-1.474-0.763-2.937-2.323-2.937c-1.302,0-2.379,1.073-2.379,2.949C394.311,232.776,395.271,233.937,396.639,233.937z"/>
	<path style="fill:#DE9059;" d="M407.081,226.868h1.577v4.913c0,1.146,0.227,2.055,1.545,2.055c1.674,0,2.667-1.478,2.667-3.112
		v-3.855h1.577v8.239h-1.526v-1.089c0-0.347,0.03-0.6,0.03-0.6h-0.03c-0.348,0.808-1.417,1.89-3.029,1.89
		c-1.851,0-2.811-0.981-2.811-3.162V226.868z"/>
	<path style="fill:#DE9059;" d="M416.915,226.868h1.447v0.704c0,0.323-0.029,0.596-0.029,0.596h0.029c0,0,0.705-1.494,2.768-1.494
		c2.212,0,3.612,1.756,3.612,4.314c0,2.62-1.577,4.32-3.726,4.32c-1.804,0-2.521-1.359-2.521-1.359h-0.033
		c0,0,0.033,0.297,0.033,0.719v3.698h-1.581V226.868z M420.774,233.949c1.3,0,2.371-1.072,2.371-2.948
		c0-1.789-0.957-2.946-2.322-2.946c-1.239,0-2.378,0.866-2.378,2.971C418.445,232.487,419.257,233.949,420.774,233.949z"/>
	<path style="fill:#DE9059;" d="M431.197,228.253h-1.073v-1.271h1.121V224.6h1.527v2.382h1.987v1.271h-1.987v3.667
		c0,1.639,1.157,1.853,1.757,1.853c0.23,0,0.372-0.03,0.372-0.03v1.402c0,0-0.229,0.026-0.548,0.026
		c-1.058,0-3.156-0.327-3.156-3.074V228.253z"/>
	<path style="fill:#DE9059;" d="M440.512,226.674c2.456,0,4.442,1.807,4.442,4.302c0,2.507-1.986,4.333-4.442,4.333
		c-2.453,0-4.436-1.826-4.436-4.333C436.077,228.48,438.059,226.674,440.512,226.674z M440.512,233.937
		c1.562,0,2.831-1.235,2.831-2.961c0-1.714-1.27-2.937-2.831-2.937c-1.541,0-2.83,1.223-2.83,2.937
		C437.682,232.701,438.971,233.937,440.512,233.937z"/>
	<path style="fill:#DE9059;" d="M450.679,233.709h2.535v-7.426c0-0.36,0.017-0.714,0.017-0.714h-0.032c0,0-0.131,0.254-0.554,0.667
		l-1.07,1.059l-0.979-1.012l2.75-2.671h1.433v10.097h2.5v1.398h-6.599V233.709z"/>
	<path style="fill:#DE9059;" d="M458.743,229.345c0-3.309,0.995-5.93,4.054-5.93c3.071,0,4.064,2.621,4.064,5.93
		c0,3.319-0.993,5.964-4.064,5.964C459.738,235.309,458.743,232.664,458.743,229.345z M465.217,229.345
		c0-2.49-0.538-4.443-2.421-4.443c-1.872,0-2.412,1.953-2.412,4.443c0,2.508,0.54,4.478,2.412,4.478
		C464.679,233.822,465.217,231.853,465.217,229.345z"/>
	<path style="fill:#DE9059;" d="M468.666,225.823c0-1.312,1.091-2.408,2.454-2.408c1.367,0,2.475,1.096,2.475,2.408
		c0,1.335-1.107,2.417-2.475,2.417C469.756,228.24,468.666,227.158,468.666,225.823z M477.69,223.612h1.531l-8.784,11.495h-1.529
		L477.69,223.612z M472.324,225.823c0-0.669-0.524-1.224-1.204-1.224c-0.683,0-1.201,0.555-1.201,1.224
		c0,0.689,0.519,1.208,1.201,1.208C471.799,227.031,472.324,226.513,472.324,225.823z M477.023,230.483
		c1.35,0,2.475,1.092,2.475,2.407c0,1.336-1.125,2.418-2.475,2.418c-1.384,0-2.472-1.082-2.472-2.418
		C474.551,231.575,475.639,230.483,477.023,230.483z M477.023,234.1c0.667,0,1.203-0.521,1.203-1.209
		c0-0.667-0.536-1.222-1.203-1.222c-0.684,0-1.2,0.555-1.2,1.222C475.823,233.579,476.339,234.1,477.023,234.1z"/>
	<path style="fill:#DE9059;" d="M485.675,226.868h1.528v1.095c0,0.323-0.032,0.601-0.032,0.601h0.032
		c0.391-0.965,1.544-1.89,2.827-1.89c1.384,0,2.194,0.634,2.472,1.87h0.033c0.457-0.995,1.598-1.87,2.929-1.87
		c1.854,0,2.715,1.058,2.715,3.155v5.278h-1.578v-4.938c0-1.149-0.227-2.066-1.461-2.066c-1.157,0-2.017,0.98-2.311,2.104
		c-0.08,0.339-0.112,0.718-0.112,1.142v3.759h-1.579v-4.938c0-1.071-0.163-2.066-1.431-2.066c-1.204,0-2.05,0.995-2.357,2.166
		c-0.084,0.327-0.099,0.706-0.099,1.079v3.759h-1.576V226.868z"/>
	<path style="fill:#DE9059;" d="M504.377,226.674c2.454,0,4.437,1.807,4.437,4.302c0,2.507-1.982,4.333-4.437,4.333
		c-2.459,0-4.441-1.826-4.441-4.333C499.936,228.48,501.918,226.674,504.377,226.674z M504.377,233.937
		c1.562,0,2.829-1.235,2.829-2.961c0-1.714-1.268-2.937-2.829-2.937c-1.547,0-2.831,1.223-2.831,2.937
		C501.546,232.701,502.831,233.937,504.377,233.937z"/>
	<path style="fill:#DE9059;" d="M510.687,226.868h1.525v1.435c0,0.342-0.03,0.618-0.03,0.618h0.03
		c0.377-1.209,1.332-2.154,2.604-2.154c0.212,0,0.406,0.038,0.406,0.038v1.562c0,0-0.209-0.051-0.456-0.051
		c-1.007,0-1.935,0.718-2.308,1.94c-0.147,0.467-0.197,0.978-0.197,1.481v3.369h-1.574V226.868z"/>
	<path style="fill:#DE9059;" d="M520.279,226.674c2.327,0,3.562,1.726,3.562,3.859c0,0.214-0.046,0.681-0.046,0.681h-5.999
		c0.077,1.814,1.363,2.723,2.826,2.723c1.414,0,2.438-0.959,2.438-0.959l0.651,1.155c0,0-1.219,1.176-3.187,1.176
		c-2.588,0-4.362-1.877-4.362-4.32C516.163,228.367,517.937,226.674,520.279,226.674z M522.23,230.029
		c-0.048-1.422-0.925-2.104-1.981-2.104c-1.203,0-2.178,0.752-2.407,2.104H522.23z"/>
	<path style="fill:#DE9059;" d="M271.401,249.55h-1.022v-1.268h1.022v-0.391c0-2.722,2.05-3.062,3.091-3.062
		c0.357,0,0.602,0.046,0.602,0.046v1.353c0,0-0.162-0.037-0.408-0.037c-0.6,0-1.723,0.201-1.723,1.726v0.365h1.953v1.268h-1.953
		v6.859h-1.562V249.55z"/>
	<path style="fill:#DE9059;" d="M280.266,247.968c2.456,0,4.438,1.811,4.438,4.298c0,2.51-1.982,4.334-4.438,4.334
		c-2.455,0-4.44-1.824-4.44-4.334C275.825,249.778,277.811,247.968,280.266,247.968z M280.266,255.233
		c1.561,0,2.829-1.242,2.829-2.968c0-1.704-1.268-2.926-2.829-2.926c-1.546,0-2.83,1.222-2.83,2.926
		C277.436,253.991,278.719,255.233,280.266,255.233z"/>
	<path style="fill:#DE9059;" d="M286.576,248.168h1.527v1.425c0,0.349-0.032,0.625-0.032,0.625h0.032
		c0.374-1.205,1.333-2.149,2.602-2.149c0.214,0,0.409,0.034,0.409,0.034v1.562c0,0-0.213-0.047-0.457-0.047
		c-1.01,0-1.934,0.715-2.31,1.937c-0.146,0.472-0.195,0.976-0.195,1.479v3.376h-1.577V248.168z"/>
	<path style="fill:#DE9059;" d="M297.195,249.55h-1.076v-1.268h1.124v-2.381h1.529v2.381h1.983v1.268h-1.983v3.66
		c0,1.649,1.153,1.863,1.756,1.863c0.227,0,0.373-0.037,0.373-0.037v1.4c0,0-0.227,0.036-0.552,0.036
		c-1.058,0-3.154-0.328-3.154-3.079V249.55z"/>
	<path style="fill:#DE9059;" d="M302.674,244.906h1.579v4.22c0,0.392-0.031,0.682-0.031,0.682h0.031
		c0.358-0.795,1.397-1.84,3.04-1.84c1.937,0,2.832,1.058,2.832,3.162v5.279h-1.58v-4.925c0-1.152-0.243-2.067-1.56-2.067
		c-1.236,0-2.26,0.845-2.604,2.041c-0.097,0.322-0.128,0.693-0.128,1.085v3.866h-1.579V244.906z"/>
	<path style="fill:#DE9059;" d="M316.027,247.968c2.324,0,3.562,1.726,3.562,3.862c0,0.208-0.05,0.686-0.05,0.686h-6.001
		c0.082,1.803,1.366,2.718,2.829,2.718c1.417,0,2.442-0.965,2.442-0.965l0.649,1.158c0,0-1.22,1.173-3.188,1.173
		c-2.583,0-4.358-1.87-4.358-4.311C311.911,249.664,313.686,247.968,316.027,247.968z M317.978,251.319
		c-0.049-1.411-0.928-2.092-1.982-2.092c-1.206,0-2.181,0.744-2.408,2.092H317.978z"/>
	<path style="fill:#DE9059;" d="M325.783,254.269c0,0,0.929,0.965,2.357,0.965c0.686,0,1.367-0.36,1.367-1.028
		c0-1.512-4.229-1.202-4.229-3.893c0-1.5,1.334-2.345,2.976-2.345c1.806,0,2.65,0.915,2.65,0.915l-0.632,1.188
		c0,0-0.732-0.731-2.035-0.731c-0.683,0-1.349,0.291-1.349,1.01c0,1.48,4.228,1.157,4.228,3.855c0,1.372-1.171,2.395-2.977,2.395
		c-2.015,0-3.121-1.202-3.121-1.202L325.783,254.269z"/>
	<path style="fill:#DE9059;" d="M337.263,251.256h0.36v-0.144c0-1.354-0.766-1.809-1.808-1.809c-1.266,0-2.291,0.796-2.291,0.796
		l-0.651-1.149c0,0,1.188-0.982,3.076-0.982c2.079,0,3.25,1.143,3.25,3.226v5.216h-1.463v-0.782c0-0.377,0.032-0.654,0.032-0.654
		h-0.032c0,0-0.668,1.627-2.633,1.627c-1.418,0-2.799-0.859-2.799-2.508C332.305,251.37,335.884,251.256,337.263,251.256z
		 M335.445,255.327c1.335,0,2.194-1.4,2.194-2.621v-0.258h-0.406c-1.189,0-3.336,0.081-3.336,1.566
		C333.897,254.683,334.417,255.327,335.445,255.327z"/>
	<path style="fill:#DE9059;" d="M341.559,248.168h1.526v1.086c0,0.326-0.034,0.604-0.034,0.604h0.034
		c0.391-0.958,1.548-1.89,2.832-1.89c1.383,0,2.192,0.638,2.47,1.877h0.034c0.455-0.995,1.592-1.877,2.926-1.877
		c1.857,0,2.717,1.058,2.717,3.162v5.279h-1.577v-4.938c0-1.158-0.227-2.066-1.462-2.066c-1.156,0-2.021,0.974-2.311,2.103
		c-0.08,0.341-0.113,0.715-0.113,1.136v3.767h-1.578v-4.938c0-1.071-0.162-2.066-1.433-2.066c-1.204,0-2.048,0.995-2.354,2.167
		c-0.085,0.322-0.1,0.694-0.1,1.071v3.767h-1.577V248.168z"/>
	<path style="fill:#DE9059;" d="M359.965,247.968c2.327,0,3.562,1.726,3.562,3.862c0,0.208-0.05,0.686-0.05,0.686h-5.996
		c0.077,1.803,1.363,2.718,2.823,2.718c1.419,0,2.441-0.965,2.441-0.965l0.652,1.158c0,0-1.221,1.173-3.186,1.173
		c-2.59,0-4.364-1.87-4.364-4.311C355.849,249.664,357.624,247.968,359.965,247.968z M361.916,251.319
		c-0.05-1.411-0.922-2.092-1.978-2.092c-1.206,0-2.186,0.744-2.412,2.092H361.916z"/>
	<path style="fill:#DE9059;" d="M369.626,248.168h1.448v0.694c0,0.328-0.034,0.604-0.034,0.604h0.034c0,0,0.696-1.499,2.763-1.499
		c2.212,0,3.609,1.764,3.609,4.321c0,2.621-1.575,4.311-3.723,4.311c-1.804,0-2.52-1.35-2.52-1.35h-0.03c0,0,0.03,0.29,0.03,0.719
		v3.691h-1.578V248.168z M373.482,255.25c1.297,0,2.375-1.075,2.375-2.948c0-1.789-0.962-2.947-2.327-2.947
		c-1.234,0-2.376,0.863-2.376,2.961C371.154,253.784,371.968,255.25,373.482,255.25z"/>
	<path style="fill:#DE9059;" d="M379.384,248.168h1.53v1.425c0,0.349-0.033,0.625-0.033,0.625h0.033
		c0.371-1.205,1.33-2.149,2.599-2.149c0.213,0,0.41,0.034,0.41,0.034v1.562c0,0-0.214-0.047-0.461-0.047
		c-1.007,0-1.93,0.715-2.304,1.937c-0.15,0.472-0.198,0.976-0.198,1.479v3.376h-1.576V248.168z"/>
	<path style="fill:#DE9059;" d="M389.271,247.968c2.459,0,4.438,1.811,4.438,4.298c0,2.51-1.979,4.334-4.438,4.334
		c-2.454,0-4.438-1.824-4.438-4.334C384.833,249.778,386.817,247.968,389.271,247.968z M389.271,255.233
		c1.562,0,2.833-1.242,2.833-2.968c0-1.704-1.271-2.926-2.833-2.926c-1.542,0-2.827,1.222-2.827,2.926
		C386.444,253.991,387.729,255.233,389.271,255.233z"/>
	<path style="fill:#DE9059;" d="M398.766,247.968c1.908,0,2.542,1.306,2.542,1.306h0.032c0,0-0.032-0.248-0.032-0.555v-3.812h1.575
		v11.503h-1.499v-0.782c0-0.326,0.02-0.554,0.02-0.554h-0.032c0,0-0.667,1.526-2.698,1.526c-2.228,0-3.632-1.757-3.632-4.311
		C395.042,249.664,396.589,247.968,398.766,247.968z M398.981,255.233c1.221,0,2.373-0.864,2.373-2.968
		c0-1.464-0.763-2.926-2.323-2.926c-1.301,0-2.379,1.072-2.379,2.949C396.652,254.078,397.616,255.233,398.981,255.233z"/>
	<path style="fill:#DE9059;" d="M405.244,248.168h1.577v4.915c0,1.143,0.227,2.054,1.543,2.054c1.674,0,2.669-1.485,2.669-3.111
		v-3.857h1.577v8.241h-1.529v-1.096c0-0.341,0.031-0.604,0.031-0.604h-0.031c-0.346,0.817-1.414,1.89-3.025,1.89
		c-1.853,0-2.812-0.973-2.812-3.16V248.168z"/>
	<path style="fill:#DE9059;" d="M418.903,247.968c2.063,0,3.091,1.209,3.091,1.209l-0.75,1.108c0,0-0.88-0.945-2.277-0.945
		c-1.661,0-2.862,1.235-2.862,2.926c0,1.683,1.201,2.968,2.913,2.968c1.529,0,2.537-1.105,2.537-1.105l0.634,1.155
		c0,0-1.138,1.316-3.285,1.316c-2.584,0-4.41-1.841-4.41-4.311C414.493,249.845,416.319,247.968,418.903,247.968z"/>
	<path style="fill:#DE9059;" d="M424.315,249.55h-1.07v-1.268h1.12v-2.381h1.531v2.381h1.98v1.268h-1.98v3.66
		c0,1.649,1.15,1.863,1.755,1.863c0.226,0,0.376-0.037,0.376-0.037v1.4c0,0-0.23,0.036-0.553,0.036
		c-1.058,0-3.159-0.328-3.159-3.079V249.55z"/>
	<path style="fill:#DE9059;" d="M434.417,249.55h-1.028v-1.268h1.028v-0.391c0-2.722,2.05-3.062,3.088-3.062
		c0.359,0,0.604,0.046,0.604,0.046v1.353c0,0-0.164-0.037-0.408-0.037c-0.601,0-1.724,0.201-1.724,1.726v0.365h1.95v1.268h-1.95
		v6.859h-1.561V249.55z"/>
	<path style="fill:#DE9059;" d="M439.442,248.168h1.531v1.425c0,0.349-0.038,0.625-0.038,0.625h0.038
		c0.37-1.205,1.327-2.149,2.598-2.149c0.214,0,0.408,0.034,0.408,0.034v1.562c0,0-0.212-0.047-0.458-0.047
		c-1.008,0-1.933,0.715-2.31,1.937c-0.146,0.472-0.195,0.976-0.195,1.479v3.376h-1.574V248.168z"/>
	<path style="fill:#DE9059;" d="M449.33,247.968c2.454,0,4.438,1.811,4.438,4.298c0,2.51-1.983,4.334-4.438,4.334
		s-4.439-1.824-4.439-4.334C444.89,249.778,446.875,247.968,449.33,247.968z M449.33,255.233c1.562,0,2.827-1.242,2.827-2.968
		c0-1.704-1.266-2.926-2.827-2.926c-1.545,0-2.831,1.222-2.831,2.926C446.499,253.991,447.785,255.233,449.33,255.233z"/>
	<path style="fill:#DE9059;" d="M455.638,248.168h1.526v1.086c0,0.326-0.028,0.604-0.028,0.604h0.028
		c0.396-0.958,1.546-1.89,2.83-1.89c1.384,0,2.197,0.638,2.475,1.877h0.031c0.455-0.995,1.595-1.877,2.929-1.877
		c1.853,0,2.716,1.058,2.716,3.162v5.279h-1.58v-4.938c0-1.158-0.227-2.066-1.461-2.066c-1.157,0-2.018,0.974-2.307,2.103
		c-0.084,0.341-0.115,0.715-0.115,1.136v3.767h-1.58v-4.938c0-1.071-0.163-2.066-1.433-2.066c-1.202,0-2.046,0.995-2.356,2.167
		c-0.079,0.322-0.101,0.694-0.101,1.071v3.767h-1.574V248.168z"/>
	<path style="fill:#DE9059;" d="M478.974,251.256h0.358v-0.144c0-1.354-0.765-1.809-1.806-1.809c-1.27,0-2.292,0.796-2.292,0.796
		l-0.654-1.149c0,0,1.191-0.982,3.078-0.982c2.081,0,3.254,1.143,3.254,3.226v5.216h-1.466v-0.782c0-0.377,0.029-0.654,0.029-0.654
		h-0.029c0,0-0.667,1.627-2.639,1.627c-1.41,0-2.794-0.859-2.794-2.508C474.014,251.37,477.591,251.256,478.974,251.256z
		 M477.157,255.327c1.327,0,2.193-1.4,2.193-2.621v-0.258h-0.406c-1.191,0-3.335,0.081-3.335,1.566
		C475.609,254.683,476.128,255.327,477.157,255.327z"/>
	<path style="fill:#DE9059;" d="M491.268,247.968c2.065,0,3.093,1.209,3.093,1.209l-0.751,1.108c0,0-0.878-0.945-2.277-0.945
		c-1.658,0-2.862,1.235-2.862,2.926c0,1.683,1.204,2.968,2.911,2.968c1.532,0,2.538-1.105,2.538-1.105l0.635,1.155
		c0,0-1.137,1.316-3.286,1.316c-2.583,0-4.405-1.841-4.405-4.311C486.863,249.845,488.685,247.968,491.268,247.968z"/>
	<path style="fill:#DE9059;" d="M500.179,247.968c2.455,0,4.441,1.811,4.441,4.298c0,2.51-1.986,4.334-4.441,4.334
		c-2.453,0-4.439-1.824-4.439-4.334C495.74,249.778,497.726,247.968,500.179,247.968z M500.179,255.233
		c1.561,0,2.833-1.242,2.833-2.968c0-1.704-1.272-2.926-2.833-2.926c-1.545,0-2.831,1.222-2.831,2.926
		C497.348,253.991,498.634,255.233,500.179,255.233z"/>
	<path style="fill:#DE9059;" d="M506.494,248.168h1.525v1.086c0,0.326-0.033,0.604-0.033,0.604h0.033
		c0.39-0.958,1.545-1.89,2.829-1.89c1.384,0,2.194,0.638,2.472,1.877h0.033c0.456-0.995,1.594-1.877,2.927-1.877
		c1.854,0,2.716,1.058,2.716,3.162v5.279h-1.578v-4.938c0-1.158-0.226-2.066-1.459-2.066c-1.159,0-2.022,0.974-2.312,2.103
		c-0.081,0.341-0.113,0.715-0.113,1.136v3.767h-1.578v-4.938c0-1.071-0.162-2.066-1.43-2.066c-1.207,0-2.052,0.995-2.357,2.167
		c-0.084,0.322-0.102,0.694-0.102,1.071v3.767h-1.572V248.168z"/>
	<path style="fill:#DE9059;" d="M521.355,248.168h1.449v0.694c0,0.328-0.034,0.604-0.034,0.604h0.034c0,0,0.696-1.499,2.761-1.499
		c2.214,0,3.611,1.764,3.611,4.321c0,2.621-1.578,4.311-3.724,4.311c-1.806,0-2.521-1.35-2.521-1.35H522.9
		c0,0,0.032,0.29,0.032,0.719v3.691h-1.577V248.168z M525.208,255.25c1.301,0,2.377-1.075,2.377-2.948
		c0-1.789-0.963-2.947-2.326-2.947c-1.234,0-2.376,0.863-2.376,2.961C522.882,253.784,523.697,255.25,525.208,255.25z"/>
	<path style="fill:#DE9059;" d="M534.659,247.968c2.321,0,3.563,1.726,3.563,3.862c0,0.208-0.052,0.686-0.052,0.686h-6.003
		c0.081,1.803,1.366,2.718,2.832,2.718c1.414,0,2.441-0.965,2.441-0.965l0.646,1.158c0,0-1.221,1.173-3.186,1.173
		c-2.587,0-4.357-1.87-4.357-4.311C530.544,249.664,532.315,247.968,534.659,247.968z M536.611,251.319
		c-0.05-1.411-0.93-2.092-1.986-2.092c-1.207,0-2.181,0.744-2.406,2.092H536.611z"/>
	<path style="fill:#DE9059;" d="M540.479,249.55h-1.075v-1.268h1.124v-2.381h1.529v2.381h1.983v1.268h-1.983v3.66
		c0,1.649,1.153,1.863,1.757,1.863c0.227,0,0.373-0.037,0.373-0.037v1.4c0,0-0.227,0.036-0.555,0.036
		c-1.057,0-3.153-0.328-3.153-3.079V249.55z"/>
	<path style="fill:#DE9059;" d="M545.94,244.906h1.595v1.612h-1.595V244.906z M545.96,248.168h1.574v8.241h-1.574V248.168z"/>
	<path style="fill:#DE9059;" d="M550.352,249.55h-1.077v-1.268h1.12v-2.381h1.531v2.381h1.982v1.268h-1.982v3.66
		c0,1.649,1.156,1.863,1.756,1.863c0.227,0,0.376-0.037,0.376-0.037v1.4c0,0-0.229,0.036-0.555,0.036
		c-1.057,0-3.151-0.328-3.151-3.079V249.55z"/>
	<path style="fill:#DE9059;" d="M559.667,247.968c2.455,0,4.441,1.811,4.441,4.298c0,2.51-1.986,4.334-4.441,4.334
		s-4.439-1.824-4.439-4.334C555.228,249.778,557.212,247.968,559.667,247.968z M559.667,255.233c1.561,0,2.83-1.242,2.83-2.968
		c0-1.704-1.27-2.926-2.83-2.926c-1.545,0-2.83,1.222-2.83,2.926C556.837,253.991,558.123,255.233,559.667,255.233z"/>
	<path style="fill:#DE9059;" d="M565.975,248.168h1.532v1.425c0,0.349-0.033,0.625-0.033,0.625h0.033
		c0.375-1.205,1.334-2.149,2.604-2.149c0.206,0,0.404,0.034,0.404,0.034v1.562c0,0-0.214-0.047-0.454-0.047
		c-1.013,0-1.938,0.715-2.312,1.937c-0.147,0.472-0.192,0.976-0.192,1.479v3.376h-1.582V248.168z"/>
	<path style="fill:#DE9059;" d="M271.305,270.844h-1.074v-1.271h1.124v-2.374h1.529v2.374h1.983v1.271h-1.983v3.667
		c0,1.646,1.154,1.853,1.756,1.853c0.227,0,0.374-0.025,0.374-0.025v1.399c0,0-0.229,0.032-0.554,0.032
		c-1.058,0-3.155-0.328-3.155-3.082V270.844z"/>
	<path style="fill:#DE9059;" d="M276.785,266.207h1.577v4.217c0,0.391-0.032,0.685-0.032,0.685h0.032
		c0.357-0.798,1.4-1.839,3.042-1.839c1.934,0,2.829,1.058,2.829,3.157v5.272h-1.577v-4.914c0-1.159-0.246-2.067-1.561-2.067
		c-1.237,0-2.261,0.845-2.603,2.03c-0.097,0.326-0.131,0.704-0.131,1.096v3.855h-1.577V266.207z"/>
	<path style="fill:#DE9059;" d="M290.884,272.558h0.357v-0.151c0-1.348-0.764-1.802-1.806-1.802c-1.268,0-2.293,0.794-2.293,0.794
		l-0.648-1.158c0,0,1.186-0.971,3.073-0.971c2.082,0,3.252,1.135,3.252,3.224v5.206h-1.464v-0.781c0-0.37,0.033-0.648,0.033-0.648
		h-0.033c0,0-0.667,1.631-2.633,1.631c-1.416,0-2.798-0.868-2.798-2.507C285.924,272.671,289.503,272.558,290.884,272.558z
		 M289.062,276.628c1.334,0,2.196-1.399,2.196-2.621v-0.264h-0.407c-1.186,0-3.334,0.087-3.334,1.562
		C287.518,275.974,288.039,276.628,289.062,276.628z"/>
	<path style="fill:#DE9059;" d="M295.471,270.844h-1.072v-1.271h1.121v-2.374h1.528v2.374h1.984v1.271h-1.984v3.667
		c0,1.646,1.154,1.853,1.756,1.853c0.229,0,0.374-0.025,0.374-0.025v1.399c0,0-0.227,0.032-0.551,0.032
		c-1.058,0-3.156-0.328-3.156-3.082V270.844z"/>
	<path style="fill:#DE9059;" d="M308.968,269.27c2.456,0,4.441,1.803,4.441,4.297c0,2.508-1.986,4.334-4.441,4.334
		s-4.438-1.826-4.438-4.334C304.53,271.072,306.512,269.27,308.968,269.27z M308.968,276.528c1.562,0,2.831-1.236,2.831-2.962
		c0-1.714-1.269-2.936-2.831-2.936c-1.543,0-2.83,1.222-2.83,2.936C306.138,275.292,307.424,276.528,308.968,276.528z"/>
	<path style="fill:#DE9059;" d="M321.133,270.73h-3.904v6.969h-1.561v-6.969h-1.024v-1.271h1.024v-0.277
		c0-2.721,2.049-3.062,3.09-3.062c0.359,0,0.604,0.05,0.604,0.05v1.353c0,0-0.164-0.03-0.409-0.03c-0.602,0-1.724,0.19-1.724,1.727
		v0.24h3.904v-0.277c0-2.721,2.048-3.062,3.09-3.062c0.355,0,0.601,0.05,0.601,0.05v1.353c0,0-0.163-0.03-0.406-0.03
		c-0.601,0-1.725,0.19-1.725,1.727v0.24h1.952v1.271h-1.952v6.969h-1.56V270.73z"/>
	<path style="fill:#DE9059;" d="M329.703,269.27c2.326,0,3.563,1.726,3.563,3.855c0,0.214-0.048,0.681-0.048,0.681h-6.004
		c0.082,1.813,1.366,2.723,2.83,2.723c1.415,0,2.44-0.959,2.44-0.959l0.649,1.158c0,0-1.22,1.173-3.188,1.173
		c-2.586,0-4.356-1.877-4.356-4.321C325.589,270.959,327.36,269.27,329.703,269.27z M331.656,272.621
		c-0.048-1.416-0.929-2.104-1.986-2.104c-1.203,0-2.178,0.755-2.404,2.104H331.656z"/>
	<path style="fill:#DE9059;" d="M335.182,269.459h1.529v1.436c0,0.341-0.032,0.618-0.032,0.618h0.032
		c0.374-1.202,1.332-2.147,2.604-2.147c0.212,0,0.402,0.031,0.402,0.031v1.562c0,0-0.206-0.05-0.452-0.05
		c-1.009,0-1.933,0.717-2.309,1.938c-0.146,0.475-0.195,0.982-0.195,1.486v3.365h-1.579V269.459z"/>
	<path style="fill:#DE9059;" d="M341.378,275.569c0,0,0.928,0.959,2.36,0.959c0.683,0,1.364-0.354,1.364-1.021
		c0-1.517-4.229-1.209-4.229-3.894c0-1.5,1.333-2.344,2.979-2.344c1.803,0,2.648,0.907,2.648,0.907l-0.635,1.187
		c0,0-0.729-0.732-2.034-0.732c-0.682,0-1.349,0.298-1.349,1.016c0,1.479,4.229,1.151,4.229,3.86c0,1.36-1.172,2.394-2.975,2.394
		c-2.018,0-3.123-1.209-3.123-1.209L341.378,275.569z"/>
	<path style="fill:#DE9059;" d="M352.748,266.207h1.576v3.757c0,0.41-0.033,0.704-0.033,0.704h0.033c0,0,0.697-1.398,2.634-1.398
		c2.214,0,3.611,1.752,3.611,4.31c0,2.621-1.575,4.321-3.739,4.321c-1.839,0-2.59-1.422-2.59-1.422h-0.029
		c0,0,0.029,0.263,0.029,0.623v0.598h-1.492V266.207z M356.603,276.548c1.299,0,2.37-1.079,2.37-2.949
		c0-1.796-0.958-2.947-2.32-2.947c-1.242,0-2.379,0.861-2.379,2.965C354.274,275.079,355.041,276.548,356.603,276.548z"/>
	<path style="fill:#DE9059;" d="M366.052,269.27c2.321,0,3.562,1.726,3.562,3.855c0,0.214-0.05,0.681-0.05,0.681h-6.003
		c0.079,1.813,1.363,2.723,2.832,2.723c1.413,0,2.439-0.959,2.439-0.959l0.647,1.158c0,0-1.221,1.173-3.187,1.173
		c-2.589,0-4.356-1.877-4.356-4.321C361.937,270.959,363.705,269.27,366.052,269.27z M368.004,272.621
		c-0.051-1.416-0.932-2.104-1.986-2.104c-1.207,0-2.179,0.755-2.406,2.104H368.004z"/>
	<path style="fill:#DE9059;" d="M371.872,270.844h-1.073v-1.271h1.122v-2.374h1.527v2.374h1.984v1.271h-1.984v3.667
		c0,1.646,1.155,1.853,1.758,1.853c0.227,0,0.374-0.025,0.374-0.025v1.399c0,0-0.226,0.032-0.554,0.032
		c-1.058,0-3.154-0.328-3.154-3.082V270.844z"/>
	<path style="fill:#DE9059;" d="M377.694,270.844h-1.075v-1.271h1.126v-2.374h1.526v2.374h1.984v1.271h-1.984v3.667
		c0,1.646,1.154,1.853,1.758,1.853c0.227,0,0.371-0.025,0.371-0.025v1.399c0,0-0.229,0.032-0.555,0.032
		c-1.057,0-3.151-0.328-3.151-3.082V270.844z"/>
	<path style="fill:#DE9059;" d="M386.718,269.27c2.327,0,3.561,1.726,3.561,3.855c0,0.214-0.046,0.681-0.046,0.681h-6.003
		c0.083,1.813,1.368,2.723,2.831,2.723c1.41,0,2.438-0.959,2.438-0.959l0.648,1.158c0,0-1.215,1.173-3.187,1.173
		c-2.584,0-4.355-1.877-4.355-4.321C382.605,270.959,384.376,269.27,386.718,269.27z M388.672,272.621
		c-0.05-1.416-0.931-2.104-1.987-2.104c-1.2,0-2.179,0.755-2.405,2.104H388.672z"/>
	<path style="fill:#DE9059;" d="M392.196,269.459h1.531v1.436c0,0.341-0.033,0.618-0.033,0.618h0.033
		c0.377-1.202,1.335-2.147,2.605-2.147c0.206,0,0.403,0.031,0.403,0.031v1.562c0,0-0.211-0.05-0.453-0.05
		c-1.012,0-1.935,0.717-2.312,1.938c-0.147,0.475-0.193,0.982-0.193,1.486v3.365h-1.582V269.459z"/>
	<path style="fill:#DE9059;" d="M402.575,275.569c0,0,0.924,0.959,2.358,0.959c0.68,0,1.368-0.354,1.368-1.021
		c0-1.517-4.229-1.209-4.229-3.894c0-1.5,1.333-2.344,2.975-2.344c1.808,0,2.651,0.907,2.651,0.907l-0.638,1.187
		c0,0-0.729-0.732-2.032-0.732c-0.679,0-1.346,0.298-1.346,1.016c0,1.479,4.229,1.151,4.229,3.86c0,1.36-1.177,2.394-2.979,2.394
		c-2.016,0-3.121-1.209-3.121-1.209L402.575,275.569z"/>
	<path style="fill:#DE9059;" d="M413.307,269.27c2.324,0,3.565,1.726,3.565,3.855c0,0.214-0.051,0.681-0.051,0.681h-6.004
		c0.081,1.813,1.365,2.723,2.832,2.723c1.414,0,2.437-0.959,2.437-0.959l0.651,1.158c0,0-1.22,1.173-3.184,1.173
		c-2.593,0-4.36-1.877-4.36-4.321C409.194,270.959,410.961,269.27,413.307,269.27z M415.261,272.621
		c-0.05-1.416-0.928-2.104-1.985-2.104c-1.207,0-2.181,0.755-2.408,2.104H415.261z"/>
	<path style="fill:#DE9059;" d="M418.789,269.459h1.524v1.436c0,0.341-0.03,0.618-0.03,0.618h0.03
		c0.378-1.202,1.334-2.147,2.605-2.147c0.214,0,0.404,0.031,0.404,0.031v1.562c0,0-0.209-0.05-0.455-0.05
		c-1.008,0-1.931,0.717-2.309,1.938c-0.146,0.475-0.196,0.982-0.196,1.486v3.365h-1.574V269.459z"/>
	<path style="fill:#DE9059;" d="M423.761,269.459h1.677l1.998,5.569c0.164,0.461,0.264,1.128,0.278,1.128h0.036
		c0.013,0,0.126-0.667,0.29-1.128l2-5.569h1.66l-3.043,8.24h-1.817L423.761,269.459z"/>
	<path style="fill:#DE9059;" d="M433.035,266.207h1.596v1.612h-1.596V266.207z M433.049,269.459h1.581v8.24h-1.581V269.459z"/>
	<path style="fill:#DE9059;" d="M440.922,269.27c2.064,0,3.089,1.197,3.089,1.197l-0.748,1.108c0,0-0.877-0.944-2.277-0.944
		c-1.657,0-2.865,1.241-2.865,2.936c0,1.676,1.208,2.962,2.915,2.962c1.527,0,2.535-1.109,2.535-1.109l0.637,1.158
		c0,0-1.14,1.323-3.285,1.323c-2.588,0-4.411-1.84-4.411-4.321C436.511,271.135,438.334,269.27,440.922,269.27z"/>
	<path style="fill:#DE9059;" d="M449.537,269.27c2.328,0,3.564,1.726,3.564,3.855c0,0.214-0.045,0.681-0.045,0.681h-6.005
		c0.081,1.813,1.364,2.723,2.833,2.723c1.412,0,2.436-0.959,2.436-0.959l0.651,1.158c0,0-1.22,1.173-3.188,1.173
		c-2.589,0-4.355-1.877-4.355-4.321C445.428,270.959,447.195,269.27,449.537,269.27z M451.493,272.621
		c-0.048-1.416-0.929-2.104-1.987-2.104c-1.203,0-2.177,0.755-2.403,2.104H451.493z"/>
</g>
</svg>
