<?xml version="1.0" encoding="utf-8"?>
<!-- Generator: Adobe Illustrator 16.0.0, SVG Export Plug-In . SVG Version: 6.00 Build 0)  -->
<!DOCTYPE svg PUBLIC "-//W3C//DTD SVG 1.1//EN" "http://www.w3.org/Graphics/SVG/1.1/DTD/svg11.dtd">
<svg version="1.1" id="Layer_1" xmlns="http://www.w3.org/2000/svg" xmlns:xlink="http://www.w3.org/1999/xlink" x="0px" y="0px"
	 width="238px" height="70px" viewBox="0 0 238 70" enable-background="new 0 0 238 70" xml:space="preserve">
<g>
	<path fill="#333333" d="M102.344,47V32.312c0-0.531,0.005-1.073,0.016-1.625c0.01-0.552,0.026-1.057,0.047-1.516
		c0.021-0.531,0.047-1.047,0.078-1.547c-0.146,0.531-0.297,1.058-0.453,1.578c-0.136,0.448-0.284,0.925-0.445,1.43
		c-0.162,0.505-0.32,0.961-0.477,1.367l-5.688,15h-2.094l-5.766-15c-0.062-0.156-0.128-0.338-0.195-0.547
		c-0.068-0.208-0.141-0.43-0.219-0.664s-0.156-0.474-0.234-0.719c-0.078-0.245-0.154-0.487-0.227-0.727
		c-0.177-0.552-0.349-1.125-0.516-1.719c0.01,0.583,0.026,1.162,0.047,1.734c0.021,0.49,0.036,1.003,0.047,1.539
		c0.01,0.537,0.016,1.008,0.016,1.414V47h-2.656V24.984h3.922l5.859,15.266c0.073,0.209,0.161,0.477,0.266,0.805
		c0.104,0.328,0.203,0.664,0.297,1.008s0.18,0.67,0.258,0.977c0.078,0.308,0.133,0.545,0.164,0.711
		c0.031-0.166,0.088-0.406,0.172-0.719c0.083-0.312,0.18-0.641,0.289-0.984s0.216-0.677,0.32-1c0.104-0.322,0.198-0.588,0.281-0.797
		l5.75-15.266h3.828V47H102.344z"/>
	<path fill="#333333" d="M113.831,47.312c-1.698,0-2.974-0.447-3.828-1.344c-0.854-0.896-1.281-2.125-1.281-3.688
		c0-1.114,0.211-2.028,0.633-2.742c0.422-0.713,0.974-1.273,1.656-1.68c0.682-0.406,1.461-0.688,2.336-0.844
		s1.766-0.244,2.672-0.266l3.797-0.062v-0.922c0-0.698-0.073-1.292-0.219-1.781c-0.146-0.489-0.37-0.885-0.672-1.188
		c-0.302-0.302-0.68-0.523-1.133-0.664s-0.987-0.211-1.602-0.211c-0.542,0-1.031,0.039-1.469,0.117s-0.818,0.219-1.141,0.422
		c-0.323,0.203-0.583,0.479-0.781,0.828c-0.198,0.349-0.328,0.789-0.391,1.32l-2.938-0.266c0.104-0.667,0.302-1.278,0.594-1.836
		c0.292-0.557,0.706-1.039,1.242-1.445c0.536-0.406,1.208-0.721,2.016-0.945c0.807-0.224,1.784-0.336,2.93-0.336
		c2.125,0,3.724,0.487,4.797,1.461c1.073,0.974,1.609,2.383,1.609,4.227v7.281c0,0.834,0.109,1.461,0.328,1.883
		s0.635,0.633,1.25,0.633c0.156,0,0.312-0.01,0.469-0.031c0.156-0.021,0.308-0.047,0.453-0.078v1.75
		c-0.354,0.084-0.705,0.146-1.055,0.188c-0.349,0.041-0.721,0.062-1.117,0.062c-0.531,0-0.987-0.07-1.367-0.211
		c-0.38-0.141-0.69-0.354-0.93-0.641c-0.24-0.286-0.422-0.641-0.547-1.062s-0.203-0.914-0.234-1.477h-0.094
		c-0.302,0.542-0.633,1.031-0.992,1.469s-0.779,0.811-1.258,1.117c-0.479,0.308-1.023,0.545-1.633,0.711
		S114.622,47.312,113.831,47.312z M114.471,45.203c0.896,0,1.68-0.164,2.352-0.492s1.229-0.747,1.672-1.258
		c0.442-0.51,0.773-1.067,0.992-1.672c0.219-0.604,0.328-1.182,0.328-1.734v-1.391l-3.078,0.062
		c-0.688,0.011-1.341,0.061-1.961,0.148c-0.62,0.089-1.164,0.264-1.633,0.523c-0.469,0.261-0.841,0.625-1.117,1.094
		c-0.276,0.469-0.414,1.084-0.414,1.844c0,0.917,0.247,1.625,0.742,2.125C112.849,44.953,113.554,45.203,114.471,45.203z"/>
	<path fill="#333333" d="M140.361,42.328c0,0.792-0.154,1.498-0.461,2.117c-0.309,0.62-0.754,1.141-1.336,1.562
		c-0.584,0.422-1.301,0.745-2.148,0.969c-0.85,0.224-1.82,0.336-2.914,0.336c-0.98,0-1.863-0.076-2.648-0.227
		c-0.787-0.15-1.477-0.393-2.07-0.727c-0.594-0.333-1.092-0.773-1.492-1.32c-0.402-0.547-0.695-1.216-0.883-2.008l2.484-0.484
		c0.238,0.906,0.734,1.57,1.484,1.992s1.791,0.633,3.125,0.633c0.604,0,1.158-0.041,1.664-0.125c0.504-0.083,0.939-0.227,1.305-0.43
		c0.363-0.203,0.648-0.474,0.852-0.812c0.203-0.338,0.305-0.758,0.305-1.258c0-0.51-0.121-0.93-0.359-1.258
		c-0.24-0.328-0.574-0.602-1-0.82c-0.428-0.219-0.945-0.408-1.555-0.57c-0.609-0.161-1.279-0.341-2.008-0.539
		c-0.678-0.177-1.35-0.375-2.016-0.594c-0.668-0.219-1.27-0.508-1.805-0.867c-0.537-0.359-0.973-0.805-1.305-1.336
		c-0.334-0.531-0.5-1.198-0.5-2c0-1.542,0.549-2.716,1.648-3.523c1.098-0.807,2.699-1.211,4.805-1.211
		c1.863,0,3.346,0.328,4.445,0.984c1.098,0.656,1.793,1.708,2.086,3.156l-2.531,0.312c-0.094-0.438-0.266-0.805-0.516-1.102
		s-0.553-0.536-0.906-0.719c-0.355-0.182-0.754-0.312-1.195-0.391c-0.443-0.078-0.904-0.117-1.383-0.117
		c-1.271,0-2.209,0.193-2.812,0.578c-0.605,0.386-0.906,0.969-0.906,1.75c0,0.458,0.111,0.836,0.336,1.133
		c0.223,0.297,0.535,0.547,0.938,0.75c0.4,0.203,0.883,0.381,1.445,0.531c0.562,0.151,1.182,0.311,1.859,0.477
		c0.447,0.115,0.906,0.237,1.375,0.367c0.469,0.131,0.924,0.287,1.367,0.469c0.441,0.183,0.859,0.396,1.25,0.641
		c0.391,0.245,0.73,0.539,1.023,0.883c0.291,0.344,0.523,0.745,0.695,1.203C140.275,41.193,140.361,41.725,140.361,42.328z"/>
	<path fill="#333333" d="M146.198,32.984c0.312-0.573,0.65-1.06,1.016-1.461c0.364-0.401,0.766-0.731,1.203-0.992
		c0.438-0.26,0.916-0.45,1.438-0.57c0.521-0.12,1.104-0.18,1.75-0.18c1.083,0,1.971,0.146,2.664,0.438
		c0.692,0.292,1.239,0.701,1.641,1.227c0.4,0.526,0.677,1.154,0.828,1.883c0.15,0.729,0.227,1.531,0.227,2.406V47h-2.828V36.281
		c0-0.719-0.045-1.349-0.133-1.891c-0.089-0.542-0.258-0.992-0.508-1.352s-0.604-0.63-1.062-0.812
		c-0.459-0.182-1.053-0.273-1.781-0.273c-0.667,0-1.269,0.12-1.805,0.359c-0.537,0.24-0.995,0.578-1.375,1.016
		c-0.381,0.438-0.675,0.969-0.883,1.594c-0.209,0.625-0.312,1.328-0.312,2.109V47h-2.812V23.812h2.812v6.031
		c0,0.344-0.006,0.688-0.016,1.031c-0.011,0.344-0.023,0.662-0.039,0.953c-0.016,0.292-0.029,0.539-0.039,0.742
		c-0.011,0.203-0.021,0.341-0.031,0.414H146.198z"/>
	<path fill="#333333" d="M167.32,46.875c-0.428,0.115-0.862,0.205-1.305,0.273c-0.443,0.067-0.956,0.102-1.539,0.102
		c-2.25,0-3.375-1.275-3.375-3.828V32.141h-1.953v-2.047h2.062l0.828-3.781h1.875v3.781h3.125v2.047h-3.125v10.672
		c0,0.812,0.133,1.383,0.398,1.711s0.727,0.492,1.383,0.492c0.271,0,0.533-0.021,0.789-0.062c0.255-0.041,0.533-0.094,0.836-0.156
		V46.875z"/>
	<path fill="#333333" d="M169.647,26.5v-2.688h2.812V26.5H169.647z M169.647,47V30.094h2.812V47H169.647z"/>
	<path fill="#333333" d="M186.268,47V36.281c0-0.823-0.053-1.51-0.156-2.062c-0.104-0.552-0.279-0.997-0.523-1.336
		c-0.245-0.338-0.565-0.578-0.961-0.719c-0.396-0.141-0.881-0.211-1.453-0.211c-0.594,0-1.131,0.117-1.609,0.352
		c-0.479,0.234-0.889,0.573-1.227,1.016c-0.339,0.443-0.6,0.99-0.781,1.641c-0.183,0.651-0.273,1.398-0.273,2.242V47h-2.797V33.703
		c0-0.354-0.003-0.727-0.008-1.117c-0.006-0.391-0.014-0.76-0.023-1.109c-0.011-0.349-0.021-0.648-0.031-0.898
		c-0.011-0.25-0.021-0.411-0.031-0.484h2.656c0.01,0.052,0.021,0.193,0.031,0.422c0.01,0.229,0.023,0.492,0.039,0.789
		s0.028,0.599,0.039,0.906c0.01,0.308,0.016,0.565,0.016,0.773h0.047c0.25-0.489,0.521-0.932,0.812-1.328
		c0.291-0.396,0.633-0.731,1.023-1.008c0.391-0.276,0.838-0.489,1.344-0.641c0.505-0.151,1.091-0.227,1.758-0.227
		c1.281,0,2.294,0.255,3.039,0.766c0.744,0.511,1.263,1.323,1.555,2.438h0.047c0.25-0.489,0.531-0.932,0.844-1.328
		c0.312-0.396,0.677-0.731,1.094-1.008c0.416-0.276,0.885-0.489,1.406-0.641c0.521-0.151,1.114-0.227,1.781-0.227
		c0.854,0,1.591,0.115,2.211,0.344c0.619,0.229,1.127,0.583,1.523,1.062c0.396,0.479,0.688,1.097,0.875,1.852
		c0.188,0.755,0.281,1.654,0.281,2.695V47h-2.781V36.281c0-0.823-0.053-1.51-0.156-2.062c-0.104-0.552-0.279-0.997-0.523-1.336
		c-0.245-0.338-0.565-0.578-0.961-0.719c-0.396-0.141-0.881-0.211-1.453-0.211c-0.594,0-1.131,0.112-1.609,0.336
		c-0.479,0.224-0.889,0.555-1.227,0.992c-0.339,0.438-0.6,0.984-0.781,1.641c-0.183,0.656-0.273,1.417-0.273,2.281V47H186.268z"/>
	<path fill="#333333" d="M204.98,39.141c0,0.886,0.091,1.701,0.273,2.445c0.182,0.745,0.463,1.386,0.844,1.922
		c0.38,0.537,0.867,0.953,1.461,1.25s1.307,0.445,2.141,0.445c1.219,0,2.195-0.244,2.93-0.734c0.734-0.489,1.231-1.109,1.492-1.859
		l2.469,0.703c-0.178,0.469-0.425,0.94-0.742,1.414c-0.318,0.475-0.742,0.901-1.273,1.281c-0.531,0.381-1.195,0.693-1.992,0.938
		s-1.758,0.367-2.883,0.367c-2.5,0-4.404-0.744-5.711-2.234c-1.308-1.489-1.961-3.703-1.961-6.641c0-1.583,0.197-2.924,0.594-4.023
		c0.396-1.099,0.938-1.992,1.625-2.68s1.489-1.185,2.406-1.492c0.916-0.307,1.896-0.461,2.938-0.461
		c1.416,0,2.602,0.229,3.555,0.688c0.953,0.458,1.719,1.091,2.297,1.898c0.578,0.808,0.989,1.758,1.234,2.852
		c0.244,1.094,0.367,2.276,0.367,3.547v0.375H204.98z M214.137,36.984c-0.156-1.781-0.609-3.081-1.359-3.898
		c-0.75-0.817-1.828-1.227-3.234-1.227c-0.469,0-0.961,0.076-1.477,0.227c-0.516,0.151-0.992,0.419-1.43,0.805
		c-0.438,0.386-0.808,0.909-1.109,1.57c-0.303,0.662-0.475,1.503-0.516,2.523H214.137z"/>
</g>
<g>
	<polygon fill="#FCB31D" points="55,54 47,54 47,19.443 55,14 	"/>
	<polygon fill="#EB4F2A" points="35,25.693 15,14 15,25.09 35,36.77 55,25.09 55,14 	"/>
	<polygon fill="#FCB31D" points="23,54 15,54 15,14 23,19.443 	"/>
</g>
</svg>
