<?xml version="1.0" encoding="utf-8"?>
<!-- Generator: Adobe Illustrator 16.0.0, SVG Export Plug-In . SVG Version: 6.00 Build 0)  -->
<!DOCTYPE svg PUBLIC "-//W3C//DTD SVG 1.1//EN" "http://www.w3.org/Graphics/SVG/1.1/DTD/svg11.dtd">
<svg version="1.1" id="Layer_1" xmlns="http://www.w3.org/2000/svg" xmlns:xlink="http://www.w3.org/1999/xlink" x="0px" y="0px"
	 width="636px" height="328px" viewBox="-154 154 636 328" enable-background="new -154 154 636 328" xml:space="preserve">
<path id="phone_3_" fill="#424A55" d="M447.801,477.932h-566.049c-12.855,0-24.905-10.389-26.546-23.256
	c-3.677-28.854-9.145-81.029-9.145-136.238c0-55.208,5.468-107.385,9.146-136.236c1.641-12.869,13.69-23.258,26.546-23.258h566.048
	c8.567,0,19.334,6.637,21.42,15.027c5.503,22.132,12.719,69.201,12.719,144.466s-7.216,122.337-12.719,144.467
	C467.135,471.295,456.371,477.932,447.801,477.932z"/>
<path fill="#4D5562" d="M-71.818,153.939v5.004h-46.43c-12.855,0-24.905,10.389-26.546,23.258
	c-3.677,28.85-9.145,81.028-9.145,136.236c0,55.209,5.468,107.384,9.146,136.238c1.64,12.865,13.69,23.255,26.545,23.255h87.552
	v4.009h99.315v-4.008h379.182c8.567,0,19.334-6.635,21.42-15.026c5.503-22.131,12.719-69.202,12.719-144.467
	s-7.216-122.335-12.719-144.466c-2.086-8.393-12.853-15.027-21.42-15.027H-30.696v-5.004L-71.818,153.939L-71.818,153.939z
	 M447.801,165c6.438,0,14.312,5.271,15.601,10.443c3.771,15.159,12.537,59.447,12.537,142.995
	c0,83.549-8.767,127.832-12.537,142.993c-1.287,5.173-9.159,10.443-15.601,10.443h-566.049c-9.921,0-19.352-8.229-20.594-17.972
	c-3.397-26.651-9.097-79.692-9.097-135.465c0-55.776,5.699-108.812,9.097-135.461c1.242-9.747,10.673-17.978,20.594-17.978H447.801
	L447.801,165z"/>
<path id="Camera_1_" fill="#4D5562" d="M-127.063,318.854c0-2.567,2.071-4.659,4.616-4.659c2.545,0,4.616,2.092,4.616,4.659
	c0,2.569-2.071,4.657-4.616,4.657C-124.993,323.512-127.063,321.422-127.063,318.854 M-130.063,318.854
	c0,4.244,3.41,7.688,7.617,7.688s7.617-3.443,7.617-7.688c0-4.243-3.41-7.687-7.617-7.687S-130.063,314.61-130.063,318.854
	L-130.063,318.854z"/>
<g id="Mic">
	<ellipse fill="#4D5562" cx="-121.495" cy="425.51" rx="3.015" ry="3.043"/>
</g>
</svg>
