<?xml version="1.0" encoding="utf-8"?>
<!-- Generator: Adobe Illustrator 16.0.0, SVG Export Plug-In . SVG Version: 6.00 Build 0)  -->
<!DOCTYPE svg PUBLIC "-//W3C//DTD SVG 1.1//EN" "http://www.w3.org/Graphics/SVG/1.1/DTD/svg11.dtd">
<svg version="1.1" id="Layer_1" xmlns="http://www.w3.org/2000/svg" xmlns:xlink="http://www.w3.org/1999/xlink" x="0px" y="0px"
	 width="328px" height="636px" viewBox="0 0 328 636" enable-background="new 0 0 328 636" xml:space="preserve">
<path opacity="0.3" enable-background="new    " d="M52.756,629.999h222.485c11.891,0,21.53,1.218,21.53,2.718v0.566
	c0,1.5-9.643,2.717-21.53,2.717H52.756c-11.892,0-21.53-1.217-21.53-2.717v-0.566C31.226,631.217,40.864,629.999,52.756,629.999z"/>
<g>
	<path id="phone_3_" fill="#EBEBEB" d="M5.963,601.74V35.691c0-12.855,10.294-24.905,23.043-26.546
		C57.596,5.468,109.294,0,163.998,0C218.7,0,270.4,5.468,298.987,9.146c12.753,1.641,23.047,13.69,23.047,26.546V601.74
		c0,8.569-6.577,19.334-14.89,21.42c-21.93,5.503-68.569,12.719-143.146,12.719c-74.576,0-121.218-7.216-143.146-12.719
		C12.538,621.074,5.963,610.311,5.963,601.74z"/>
	<path id="phone_1_" fill="#CFCECE" d="M163.998,6.001c55.266,0,107.816,5.699,134.224,9.097
		c9.656,1.242,17.812,10.673,17.812,20.594V601.74c0,6.44-5.225,14.312-10.35,15.601c-15.021,3.771-58.902,12.537-141.687,12.537
		s-126.663-8.767-141.685-12.537c-5.126-1.287-10.349-9.159-10.349-15.601V35.691c0-9.921,8.155-19.352,17.808-20.594
		C56.181,11.7,108.735,6.001,163.998,6.001 M163.998,0C109.294,0,57.596,5.468,29.006,9.146
		c-12.749,1.64-23.043,13.69-23.043,26.545V601.74c0,8.569,6.575,19.334,14.888,21.42c21.929,5.503,68.57,12.719,143.146,12.719
		c74.577,0,121.218-7.216,143.146-12.719c8.312-2.086,14.89-12.851,14.89-21.42V35.691c0-12.855-10.294-24.905-23.047-26.546
		C270.4,5.468,218.7,0,163.998,0L163.998,0z"/>
</g>
<rect x="1.5" y="123.243" fill="#CFCECE" width="4.501" height="99.315"/>
<rect x="321.999" y="82.121" fill="#CFCECE" width="4.501" height="41.123"/>
<path id="Camera_1_" fill="#CFCECE" d="M163.585,26.876c2.545,0,4.615,2.071,4.615,4.616c0,2.545-2.07,4.616-4.615,4.616
	c-2.546,0-4.616-2.071-4.616-4.616C158.969,28.947,161.04,26.876,163.585,26.876 M163.585,23.876c-4.206,0-7.617,3.41-7.617,7.617
	s3.411,7.617,7.617,7.617c4.205,0,7.616-3.41,7.616-7.617C171.202,27.286,167.791,23.876,163.585,23.876L163.585,23.876z"/>
<g id="Mic">
	<circle fill="#CFCECE" cx="57.905" cy="32.444" r="3.015"/>
</g>
</svg>
