<?xml version="1.0" encoding="utf-8"?>
<!-- Generator: Adobe Illustrator 16.0.0, SVG Export Plug-In . SVG Version: 6.00 Build 0)  -->
<!DOCTYPE svg PUBLIC "-//W3C//DTD SVG 1.1//EN" "http://www.w3.org/Graphics/SVG/1.1/DTD/svg11.dtd">
<svg version="1.1" id="Layer_1" xmlns="http://www.w3.org/2000/svg" xmlns:xlink="http://www.w3.org/1999/xlink" x="0px" y="0px"
	 width="328px" height="636px" viewBox="0 0 328 636" enable-background="new 0 0 328 636" xml:space="preserve">
<path id="phone_3_" fill="#424A55" d="M4.008,601.74V35.691c0-12.855,10.389-24.905,23.255-26.546C56.118,5.468,108.293,0,163.502,0
	c55.208,0,107.385,5.468,136.236,9.146c12.87,1.641,23.258,13.69,23.258,26.546V601.74c0,8.568-6.636,19.334-15.027,21.42
	c-22.132,5.503-69.201,12.719-144.466,12.719c-75.265,0-122.337-7.216-144.467-12.719C10.644,621.074,4.008,610.311,4.008,601.74z"
	/>
<path fill="#4D5562" d="M328,82.121h-5.004v-46.43c0-12.855-10.388-24.905-23.258-26.546C270.889,5.468,218.71,0,163.502,0
	C108.293,0,56.118,5.468,27.264,9.146c-12.866,1.64-23.255,13.69-23.255,26.545v87.552H0v99.315h4.008V601.74
	c0,8.568,6.635,19.334,15.026,21.42c22.131,5.503,69.203,12.719,144.467,12.719c75.265,0,122.335-7.216,144.466-12.719
	c8.393-2.086,15.027-12.852,15.027-21.42V123.243h5.004L328,82.121L328,82.121z M316.939,601.74c0,6.439-5.271,14.312-10.443,15.601
	c-15.159,3.771-59.447,12.537-142.995,12.537c-83.549,0-127.832-8.767-142.993-12.537c-5.173-1.287-10.444-9.159-10.444-15.601
	V35.691c0-9.921,8.23-19.352,17.972-20.594C54.688,11.7,107.729,6,163.501,6c55.776,0,108.812,5.699,135.461,9.097
	c9.747,1.242,17.978,10.673,17.978,20.594V601.74L316.939,601.74z"/>
<path id="Camera_1_" fill="#4D5562" d="M163.085,26.876c2.567,0,4.659,2.071,4.659,4.616c0,2.545-2.092,4.616-4.659,4.616
	c-2.569,0-4.658-2.071-4.658-4.616C158.427,28.947,160.517,26.876,163.085,26.876 M163.085,23.876c-4.244,0-7.688,3.41-7.688,7.617
	s3.443,7.617,7.688,7.617c4.243,0,7.687-3.41,7.687-7.617S167.329,23.876,163.085,23.876L163.085,23.876z"/>
<g id="Mic">
	<ellipse fill="#4D5562" cx="56.429" cy="32.444" rx="3.043" ry="3.015"/>
</g>
</svg>
