<?xml version="1.0" encoding="utf-8"?>
<!-- Generator: Adobe Illustrator 16.0.0, SVG Export Plug-In . SVG Version: 6.00 Build 0)  -->
<!DOCTYPE svg PUBLIC "-//W3C//DTD SVG 1.1//EN" "http://www.w3.org/Graphics/SVG/1.1/DTD/svg11.dtd">
<svg version="1.1" id="Layer_1" xmlns="http://www.w3.org/2000/svg" xmlns:xlink="http://www.w3.org/1999/xlink" x="0px" y="0px"
	 width="300.981px" height="635.971px" viewBox="0 0 300.981 635.971" enable-background="new 0 0 300.981 635.971"
	 xml:space="preserve">
<g>
	<path opacity="0.3" enable-background="new    " d="M39.268,629.971h222.447c11.888,0,21.525,1.217,21.525,2.717v0.566
		c0,1.5-9.639,2.717-21.525,2.717H39.268c-11.89,0-21.526-1.217-21.526-2.717v-0.566C17.741,631.188,27.378,629.971,39.268,629.971z
		"/>
	<path fill="#EBEBEB" d="M43.794,628.971c-21.478,0-38.951-17.474-38.951-38.952V44.521c0-22.569,16.381-38.95,38.951-38.95H259.03
		c22.206,0,38.951,16.746,38.951,38.95V590.02c0,21.479-17.473,38.952-38.951,38.952L43.794,628.971L43.794,628.971z"/>
	<path fill="#EBEBEB" d="M151.413,611.584c-14.21,0-25.771-11.56-25.771-25.769c0-14.21,11.561-25.771,25.771-25.771
		c14.209,0,25.771,11.561,25.771,25.771C177.183,600.024,165.622,611.584,151.413,611.584L151.413,611.584z"/>
	<path fill="#E0D4C3" d="M151.413,561.546c13.381,0,24.271,10.887,24.271,24.271c0,13.381-10.89,24.269-24.271,24.269
		c-13.385,0-24.271-10.887-24.271-24.269C127.142,572.433,138.028,561.546,151.413,561.546 M151.413,558.546
		c-15.062,0-27.271,12.208-27.271,27.271c0,15.06,12.21,27.269,27.271,27.269s27.271-12.208,27.271-27.269
		C178.683,570.754,166.474,558.546,151.413,558.546L151.413,558.546z"/>
	<path fill="#E0D4C3" d="M289.229,14.911c-7.762-7.957-18.486-12.339-30.199-12.339h-8.846V1.177c0-0.648-0.645-1.177-1.439-1.177
		H202.92c-0.795,0-1.438,0.528-1.438,1.177v1.395H43.794c-24.309,0-41.951,17.643-41.951,41.95V88.6H1.438
		C0.645,88.599,0,89.243,0,90.038v26.167c0,0.794,0.645,1.438,1.438,1.438h0.404v30.946H1.438c-0.794,0-1.438,0.644-1.438,1.438
		v18.811c0,0.794,0.645,1.438,1.438,1.438h0.404v30.186H1.438C0.645,200.462,0,201.104,0,201.9v19.444
		c0,0.794,0.645,1.44,1.438,1.44h0.404V590.02c0,23.133,18.818,41.952,41.951,41.952H259.03c23.133,0,41.951-18.818,41.951-41.952
		V44.521C300.981,33.198,296.808,22.683,289.229,14.911z M294.981,590.02c0,19.854-16.096,35.952-35.951,35.952H43.794
		c-19.855,0-35.951-16.098-35.951-35.952V44.521c0-21.022,14.955-35.95,35.951-35.95H259.03c21.143,0,35.951,16.095,35.951,35.95
		V590.02z"/>
	<path fill="#D7D7D8" d="M172.846,50.678h-42.867c-3.433,0-6.216,2.782-6.216,6.213c0,3.433,2.783,6.215,6.216,6.215h42.867
		c3.433,0,6.215-2.782,6.215-6.215C179.061,53.459,176.278,50.678,172.846,50.678z M172.084,59.555h-41.345
		c-1.4,0-2.537-1.136-2.537-2.536c0-1.402,1.137-2.536,2.537-2.536h41.345c1.401,0,2.537,1.134,2.537,2.536
		C174.622,58.419,173.486,59.555,172.084,59.555z"/>
	<g>
		<path fill="#D7D7D8" d="M151.413,40.508c-3.905,0-7.081-3.176-7.081-7.08v-0.254c0-3.904,3.176-7.08,7.081-7.08
			c3.903,0,7.08,3.176,7.08,7.08v0.254C158.493,37.332,155.316,40.508,151.413,40.508L151.413,40.508z M151.413,29.095
			c-2.251,0-4.081,1.83-4.081,4.08v0.254c0,2.25,1.829,4.08,4.081,4.08c2.248,0,4.08-1.83,4.08-4.08v-0.254
			C155.493,30.924,153.661,29.095,151.413,29.095L151.413,29.095z"/>
	</g>
</g>
</svg>
