<?xml version="1.0" encoding="utf-8"?>
<!-- Generator: Adobe Illustrator 16.0.0, SVG Export Plug-In . SVG Version: 6.00 Build 0)  -->
<!DOCTYPE svg PUBLIC "-//W3C//DTD SVG 1.1//EN" "http://www.w3.org/Graphics/SVG/1.1/DTD/svg11.dtd">
<svg version="1.1" id="Layer_1" xmlns="http://www.w3.org/2000/svg" xmlns:xlink="http://www.w3.org/1999/xlink" x="0px" y="0px"
	 width="300.981px" height="635.971px" viewBox="0 0 300.981 635.971" enable-background="new 0 0 300.981 635.971"
	 xml:space="preserve">
<g>
	<path opacity="0.3" enable-background="new    " d="M39.267,629.971h222.446c11.889,0,21.527,1.217,21.527,2.717v0.566
		c0,1.5-9.64,2.717-21.527,2.717H39.267c-11.89,0-21.526-1.217-21.526-2.717v-0.566C17.74,631.188,27.377,629.971,39.267,629.971z"
		/>
	<path fill="#EBEBEB" d="M43.794,628.971c-21.478,0-38.952-17.474-38.952-38.952V44.521c0-22.569,16.381-38.95,38.952-38.95H259.03
		c22.206,0,38.951,16.746,38.951,38.95V590.02c0,21.479-17.473,38.952-38.951,38.952L43.794,628.971L43.794,628.971z"/>
	<path fill="#CFCECE" d="M259.03,8.571c21.143,0,35.951,16.095,35.951,35.95V590.02c0,19.854-16.096,35.952-35.951,35.952H43.794
		c-19.855,0-35.952-16.098-35.952-35.952V44.521c0-21.022,14.956-35.95,35.952-35.95H259.03 M259.03,2.571H43.794
		c-24.309,0-41.952,17.643-41.952,41.95V590.02c0,23.133,18.82,41.952,41.952,41.952H259.03c23.133,0,41.951-18.818,41.951-41.952
		V44.521c0-11.323-4.175-21.838-11.752-29.61C281.467,6.954,270.743,2.571,259.03,2.571L259.03,2.571z"/>
	<path fill="#EBEBEB" d="M151.413,611.584c-14.21,0-25.771-11.56-25.771-25.769c0-14.21,11.561-25.771,25.771-25.771
		c14.209,0,25.771,11.561,25.771,25.771C177.183,600.024,165.622,611.584,151.413,611.584L151.413,611.584z"/>
	<path fill="#CFCECE" d="M151.413,561.546c13.383,0,24.271,10.887,24.271,24.271c0,13.381-10.888,24.269-24.271,24.269
		c-13.384,0-24.271-10.887-24.271-24.269C127.142,572.433,138.029,561.546,151.413,561.546 M151.413,558.546
		c-15.062,0-27.271,12.208-27.271,27.271c0,15.06,12.21,27.269,27.271,27.269s27.271-12.208,27.271-27.269
		C178.683,570.754,166.474,558.546,151.413,558.546L151.413,558.546z"/>
	<path fill="#CFCECE" d="M4.185,116.204c0,0.794-0.643,1.438-1.438,1.438H1.438c-0.794,0-1.438-0.644-1.438-1.438V90.038
		c0-0.795,0.645-1.439,1.438-1.439h1.309c0.795,0,1.438,0.644,1.438,1.439V116.204z"/>
	<path fill="#CFCECE" d="M4.819,168.838c0,0.794-0.646,1.438-1.438,1.438H1.438c-0.794,0-1.438-0.643-1.438-1.438v-18.811
		c0-0.794,0.645-1.438,1.438-1.438H3.38c0.793,0,1.438,0.644,1.438,1.438L4.819,168.838L4.819,168.838z"/>
	<path fill="#CFCECE" d="M4.819,221.344c0,0.794-0.646,1.44-1.438,1.44H1.438c-0.794,0-1.438-0.646-1.438-1.44V201.9
		c0-0.796,0.645-1.438,1.438-1.438H3.38c0.793,0,1.438,0.642,1.438,1.438L4.819,221.344L4.819,221.344z"/>
	<path fill="#CFCECE" d="M250.185,4.009c0,0.65-0.646,1.177-1.438,1.177h-45.824c-0.795,0-1.438-0.527-1.438-1.177V1.177
		c0-0.648,0.644-1.177,1.438-1.177h45.824c0.795,0,1.438,0.528,1.438,1.177V4.009z"/>
	<path fill="#D7D7D8" d="M172.846,50.678h-42.867c-3.433,0-6.215,2.782-6.215,6.213c0,3.433,2.782,6.215,6.215,6.215h42.867
		c3.432,0,6.215-2.782,6.215-6.215C179.061,53.459,176.277,50.678,172.846,50.678z M172.084,59.555h-41.345
		c-1.4,0-2.537-1.136-2.537-2.536c0-1.402,1.137-2.536,2.537-2.536h41.345c1.401,0,2.537,1.134,2.537,2.536
		C174.622,58.419,173.486,59.555,172.084,59.555z"/>
	<g>
		<path fill="#D7D7D8" d="M151.413,40.508c-3.905,0-7.081-3.176-7.081-7.08v-0.254c0-3.904,3.176-7.08,7.081-7.08
			c3.903,0,7.08,3.176,7.08,7.08v0.254C158.493,37.332,155.316,40.508,151.413,40.508L151.413,40.508z M151.413,29.095
			c-2.25,0-4.081,1.83-4.081,4.08v0.254c0,2.25,1.83,4.08,4.081,4.08c2.25,0,4.08-1.83,4.08-4.08v-0.254
			C155.493,30.924,153.663,29.095,151.413,29.095L151.413,29.095z"/>
	</g>
</g>
</svg>
