<?xml version="1.0" encoding="utf-8"?>
<!-- Generator: Adobe Illustrator 16.0.0, SVG Export Plug-In . SVG Version: 6.00 Build 0)  -->
<!DOCTYPE svg PUBLIC "-//W3C//DTD SVG 1.1//EN" "http://www.w3.org/Graphics/SVG/1.1/DTD/svg11.dtd">
<svg version="1.1" id="Layer_1" xmlns="http://www.w3.org/2000/svg" xmlns:xlink="http://www.w3.org/1999/xlink" x="0px" y="0px"
	 width="238px" height="70px" viewBox="0 0 238 70" enable-background="new 0 0 238 70" xml:space="preserve">
<g>
	<g>
		<path fill="#1A1A1A" d="M71.669,15.172H54.823v40.119H67.36V41.777h5.334c4.87,0,8.602-1.129,11.195-3.389
			c2.595-2.26,3.891-5.461,3.891-9.6c0-4.16-1.288-7.417-3.863-9.773C81.13,16.453,77.047,15.172,71.669,15.172z M69.568,32.789
			H67.36v-8.627h2.312c3.52,0,5.282,1.438,5.282,4.313C74.955,31.351,73.158,32.789,69.568,32.789z M113.509,14
			c-6.956,0-12.544,2.104-16.766,6.315c-3.979,3.967-5.967,8.939-5.967,14.914c0,5.976,1.988,10.949,5.967,14.916
			c4.222,4.209,9.81,6.314,16.766,6.314c6.959,0,12.538-2.105,16.742-6.314c3.979-3.967,5.97-8.939,5.97-14.916
			c0-5.975-1.99-10.947-5.97-14.914C126.046,16.104,120.468,14,113.509,14z M120.317,42.428c-1.839,1.838-4.11,2.756-6.809,2.756
			c-2.699,0-4.974-0.918-6.831-2.756c-1.913-1.902-2.864-4.305-2.864-7.199c0-2.892,0.951-5.29,2.864-7.195
			c1.856-1.837,4.132-2.755,6.831-2.755c2.698,0,4.97,0.918,6.809,2.755c1.909,1.905,2.865,4.303,2.865,7.195
			C123.183,38.123,122.226,40.525,120.317,42.428z M136.508,25.384h8.727v29.907h12.533V25.384h8.676V15.172h-29.936V25.384z
			 M170.49,55.291h25.623V45.283h-13.09v-5.428h12.115v-9.459h-12.115v-5.222h13.09V15.172H170.49V55.291z M227.758,25.174V15.172
			h-25.625v40.119h25.625V45.283h-13.086v-5.428h12.111v-9.459h-12.111v-5.222H227.758z"/>
	</g>
</g>
<rect x="10" y="15.25" fill="#2CBCE5" width="30.97" height="7.966"/>
<rect x="10" y="23.227" fill="#FB7A69" width="30.97" height="7.966"/>
<rect x="10" y="31.204" fill="#FCAC65" width="30.97" height="7.966"/>
<rect x="10" y="39.18" fill="#F7D987" width="30.97" height="7.967"/>
<rect x="10" y="47.156" fill="#BBD369" width="30.97" height="7.967"/>
</svg>
