<?xml version="1.0" encoding="utf-8"?>
<!-- Generator: Adobe Illustrator 16.0.0, SVG Export Plug-In . SVG Version: 6.00 Build 0)  -->
<!DOCTYPE svg PUBLIC "-//W3C//DTD SVG 1.1//EN" "http://www.w3.org/Graphics/SVG/1.1/DTD/svg11.dtd">
<svg version="1.1" id="Layer_1" xmlns="http://www.w3.org/2000/svg" xmlns:xlink="http://www.w3.org/1999/xlink" x="0px" y="0px"
	 width="300.981px" height="635.969px" viewBox="0 0 300.981 635.969" enable-background="new 0 0 300.981 635.969"
	 xml:space="preserve">
<path opacity="0.3" enable-background="new    " d="M40.188,629.969h222.447c11.888,0,21.525,1.217,21.525,2.717v0.566
	c0,1.5-9.639,2.716-21.525,2.716H40.188c-11.889,0-21.526-1.216-21.526-2.716v-0.566C18.662,631.188,28.3,629.969,40.188,629.969z"
	/>
<g>
	<path fill="#424A55" d="M43.794,628.969c-21.478,0-38.951-17.473-38.951-38.952V44.521c0-22.57,16.381-38.951,38.951-38.951H259.03
		c22.206,0,38.951,16.745,38.951,38.951v545.497c0,21.479-17.473,38.952-38.951,38.952L43.794,628.969L43.794,628.969z"/>
	<circle fill="#3F4651" cx="151.413" cy="585.813" r="27.271"/>
	<g>
		<path fill="#4D5562" d="M157.581,596.559h-12.335c-2.441,0-4.427-1.985-4.427-4.427v-12.939c0-2.44,1.985-4.426,4.427-4.426
			h12.335c2.439,0,4.426,1.985,4.426,4.426v12.939C162.006,594.573,160.021,596.559,157.581,596.559L157.581,596.559z
			 M145.245,576.767c-1.338,0-2.427,1.087-2.427,2.426v12.939c0,1.337,1.089,2.427,2.427,2.427h12.335
			c1.338,0,2.426-1.09,2.426-2.427v-12.939c0-1.339-1.088-2.426-2.426-2.426H145.245L145.245,576.767z"/>
	</g>
	<path fill="#E9E085" d="M289.229,14.911C281.467,6.952,270.743,2.57,259.03,2.57h-8.846V1.175c0-0.649-0.645-1.175-1.438-1.175
		H202.92c-0.795,0-1.438,0.526-1.438,1.175V2.57H43.794c-24.309,0-41.951,17.643-41.951,41.951v44.076H1.438
		C0.645,88.597,0,89.243,0,90.036v26.167c0,0.793,0.645,1.438,1.438,1.438h0.404v10.947H1.438c-0.794,0-1.438,0.644-1.438,1.438
		v38.811c0,0.794,0.645,1.438,1.438,1.438h0.404v10.186H1.438c-0.794,0-1.438,0.644-1.438,1.438v39.444
		c0,0.794,0.645,1.44,1.438,1.44h0.404v367.234c0,23.134,18.819,41.952,41.951,41.952H259.03c23.133,0,41.951-18.818,41.951-41.952
		V44.521C300.981,33.197,296.807,22.68,289.229,14.911z M294.981,590.018c0,19.854-16.096,35.952-35.951,35.952H43.794
		c-19.855,0-35.951-16.097-35.951-35.952V44.521c0-21.025,14.955-35.951,35.951-35.951H259.03c21.143,0,35.951,16.095,35.951,35.951
		V590.018z"/>
	<path fill="#4D5562" d="M172.846,50.675h-42.867c-3.433,0-6.215,2.783-6.215,6.216c0,3.431,2.782,6.214,6.215,6.214h42.867
		c3.433,0,6.215-2.783,6.215-6.214C179.061,53.458,176.278,50.675,172.846,50.675z M172.084,59.553h-41.345
		c-1.4,0-2.537-1.135-2.537-2.536c0-1.402,1.137-2.537,2.537-2.537h41.345c1.401,0,2.537,1.135,2.537,2.537
		C174.622,58.418,173.486,59.553,172.084,59.553z"/>
	<g>
		<path fill="#4D5562" d="M151.413,40.508c-3.905,0-7.081-3.177-7.081-7.081v-0.254c0-3.903,3.176-7.081,7.081-7.081
			c3.903,0,7.08,3.177,7.08,7.081v0.254C158.493,37.332,155.316,40.508,151.413,40.508L151.413,40.508z M151.413,29.092
			c-2.25,0-4.081,1.831-4.081,4.081v0.254c0,2.25,1.83,4.081,4.081,4.081c2.25,0,4.08-1.831,4.08-4.081v-0.254
			C155.493,30.923,153.663,29.092,151.413,29.092L151.413,29.092z"/>
	</g>
</g>
</svg>
