<?xml version="1.0" encoding="utf-8"?>
<!-- Generator: Adobe Illustrator 16.0.0, SVG Export Plug-In . SVG Version: 6.00 Build 0)  -->
<!DOCTYPE svg PUBLIC "-//W3C//DTD SVG 1.1//EN" "http://www.w3.org/Graphics/SVG/1.1/DTD/svg11.dtd">
<svg version="1.1" id="Layer_1" xmlns="http://www.w3.org/2000/svg" xmlns:xlink="http://www.w3.org/1999/xlink" x="0px" y="0px"
	 width="300.982px" height="635.969px" viewBox="0 0 300.982 635.969" enable-background="new 0 0 300.982 635.969"
	 xml:space="preserve">
<path opacity="0.3" enable-background="new    " d="M39.268,629.969h222.447c11.888,0,21.526,1.217,21.526,2.717v0.566
	c0,1.5-9.639,2.716-21.526,2.716H39.268c-11.89,0-21.526-1.216-21.526-2.716v-0.566C17.741,631.188,27.378,629.969,39.268,629.969z"
	/>
<g>
	<path fill="#424A55" d="M43.794,628.969c-21.478,0-38.951-17.473-38.951-38.952V44.521c0-22.57,16.382-38.951,38.951-38.951H259.03
		c22.205,0,38.952,16.745,38.952,38.951v545.497c0,21.479-17.475,38.952-38.952,38.952L43.794,628.969L43.794,628.969z"/>
	<circle fill="#3F4651" cx="151.413" cy="585.813" r="27.271"/>
	<g>
		<path fill="#4D5562" d="M157.58,596.559h-12.335c-2.44,0-4.427-1.985-4.427-4.427v-12.939c0-2.44,1.986-4.426,4.427-4.426h12.335
			c2.44,0,4.427,1.985,4.427,4.426v12.939C162.007,594.573,160.021,596.559,157.58,596.559L157.58,596.559z M145.245,576.767
			c-1.337,0-2.427,1.087-2.427,2.426v12.939c0,1.337,1.09,2.427,2.427,2.427h12.335c1.338,0,2.427-1.09,2.427-2.427v-12.939
			c0-1.339-1.089-2.426-2.427-2.426H145.245L145.245,576.767z"/>
	</g>
	<path fill="#EBEBEB" d="M289.229,14.911C281.469,6.952,270.744,2.57,259.03,2.57h-8.846V1.175c0-0.649-0.645-1.175-1.439-1.175
		h-45.824c-0.795,0-1.438,0.526-1.438,1.175V2.57H43.794c-24.308,0-41.951,17.643-41.951,41.951v44.076H1.439
		C0.645,88.597,0,89.243,0,90.036v26.167c0,0.793,0.645,1.438,1.439,1.438h0.403v10.947H1.439c-0.795,0-1.439,0.644-1.439,1.438
		v38.811c0,0.794,0.645,1.438,1.439,1.438h0.403v10.186H1.439c-0.795,0-1.439,0.644-1.439,1.438v39.444
		c0,0.794,0.645,1.44,1.439,1.44h0.403v367.234c0,23.134,18.818,41.952,41.951,41.952H259.03c23.133,0,41.952-18.818,41.952-41.952
		V44.521C300.982,33.197,296.81,22.68,289.229,14.911z M294.981,590.018c0,19.854-16.096,35.952-35.951,35.952H43.794
		c-19.854,0-35.951-16.097-35.951-35.952V44.521c0-21.025,14.955-35.951,35.951-35.951H259.03c21.143,0,35.951,16.095,35.951,35.951
		V590.018z"/>
	<path fill="#4D5562" d="M172.847,50.675h-42.868c-3.433,0-6.216,2.783-6.216,6.216c0,3.431,2.783,6.214,6.216,6.214h42.868
		c3.434,0,6.215-2.783,6.215-6.214C179.062,53.458,176.278,50.675,172.847,50.675z M172.086,59.553h-41.347
		c-1.4,0-2.536-1.135-2.536-2.536c0-1.402,1.136-2.537,2.536-2.537h41.347c1.399,0,2.537,1.135,2.537,2.537
		C174.623,58.418,173.485,59.553,172.086,59.553z"/>
	<g>
		<path fill="#4D5562" d="M151.412,40.508c-3.904,0-7.08-3.177-7.08-7.081v-0.254c0-3.903,3.176-7.081,7.08-7.081
			c3.903,0,7.081,3.177,7.081,7.081v0.254C158.493,37.332,155.315,40.508,151.412,40.508L151.412,40.508z M151.412,29.092
			c-2.251,0-4.08,1.831-4.08,4.081v0.254c0,2.25,1.829,4.081,4.08,4.081c2.249,0,4.081-1.831,4.081-4.081v-0.254
			C155.493,30.923,153.661,29.092,151.412,29.092L151.412,29.092z"/>
	</g>
</g>
</svg>
