<?xml version="1.0" encoding="utf-8"?>
<!-- Generator: Adobe Illustrator 16.0.0, SVG Export Plug-In . SVG Version: 6.00 Build 0)  -->
<!DOCTYPE svg PUBLIC "-//W3C//DTD SVG 1.1//EN" "http://www.w3.org/Graphics/SVG/1.1/DTD/svg11.dtd">
<svg version="1.1" id="Layer_1" xmlns="http://www.w3.org/2000/svg" xmlns:xlink="http://www.w3.org/1999/xlink" x="0px" y="0px"
	 width="1538.758px" height="1292.723px" viewBox="0 0 1538.758 1292.723" enable-background="new 0 0 1538.758 1292.723"
	 xml:space="preserve">
<g id="Layer_4">
	<path opacity="0.3" enable-background="new    " d="M506.074,1284.848h532.598c9.17,0,16.607,1.6,16.607,3.567v0.743
		c0,1.969-7.438,3.563-16.607,3.563H506.074c-9.171,0-16.605-1.596-16.605-3.563v-0.743
		C489.469,1286.446,496.903,1284.848,506.074,1284.848z"/>
</g>
<g id="Layer_1_1_">
	<g>
		<path fill="#464D59" d="M1538.758,931.041V50.916c0-28.12-22.795-50.916-50.916-50.916H50.916C22.794,0,0,22.796,0,50.916v880.125
			H1538.758z"/>
		<path fill="#DCDDDE" d="M1050.834,1275.136c-10.857-2.497-39.195-8.22-54.684-11.796c-19.459-4.491-17.211-23.2-17.211-23.2
			l-11.229-138.458H577.033l-11.228,138.458c0,0,2.246,18.709-17.214,23.2c-16.243,3.749-46.562,10.104-56.144,12.103
			c-2.98,0.901-2.98,3.151-2.98,3.151v10.191h1.493h562.817h1.5v-9.822C1055.28,1278.963,1055.28,1276.156,1050.834,1275.136z"/>
		<path fill="#EBEBEB" d="M0,931.041v119.723c0,28.122,22.794,50.918,50.916,50.918h1436.926c28.121,0,50.916-22.796,50.916-50.918
			V931.041H0z"/>
		<polygon fill="#C9CACC" points="971.233,1145.109 967.711,1101.682 577.033,1101.682 573.513,1145.102 		"/>
		<path fill="#EBEBEB" d="M1052.487,1275.688H491.834c-2.336,1.008-2.365,2.906-2.365,2.906v10.191h1.493h562.818h1.5v-9.822
			C1055.28,1278.963,1055.256,1276.924,1052.487,1275.688z"/>
	</g>
</g>
</svg>
