<?xml version="1.0" encoding="utf-8"?>
<!-- Generator: Adobe Illustrator 16.0.0, SVG Export Plug-In . SVG Version: 6.00 Build 0)  -->
<!DOCTYPE svg PUBLIC "-//W3C//DTD SVG 1.1//EN" "http://www.w3.org/Graphics/SVG/1.1/DTD/svg11.dtd">
<svg version="1.1" id="Layer_1" xmlns="http://www.w3.org/2000/svg" xmlns:xlink="http://www.w3.org/1999/xlink" x="0px" y="0px"
	 width="1075.001px" height="650px" viewBox="1000.161 -89.23 1075.001 650" enable-background="new 1000.161 -89.23 1075.001 650"
	 xml:space="preserve">
<path fill="#424A55" d="M1048.157-89.219c-26.532,0.161-47.996,22.181-47.996,49.332V511.43c0,27.148,21.464,49.167,47.996,49.332
	v0.008h978.716c26.669,0,48.289-22.09,48.289-49.34V-39.887c0-27.253-21.62-49.344-48.289-49.344h-978.716V-89.219z"/>
<path fill="#4D5562" d="M1063.18,238.021c0,6.425-5.263,11.652-11.73,11.652c-6.47,0-11.733-5.228-11.733-11.652
	c0-6.427,5.264-11.654,11.733-11.654C1057.917,226.367,1063.18,231.595,1063.18,238.021z M1043.714,238.021
	c0,4.22,3.471,7.652,7.735,7.652c4.263,0,7.731-3.433,7.731-7.652c0-4.221-3.469-7.655-7.731-7.655
	C1047.185,230.366,1043.714,233.801,1043.714,238.021z"/>
<path fill="#3F4651" d="M1051.449,234.76c-1.817,0-3.292,1.459-3.292,3.262c0,1.799,1.475,3.262,3.292,3.262
	c1.814,0,3.287-1.463,3.287-3.262C1054.736,236.219,1053.264,234.76,1051.449,234.76z"/>
<path fill="#3F4651" d="M1051.449,197.691c-3.899,0-7.056,3.134-7.056,6.998c0,3.863,3.156,6.997,7.056,6.997
	c3.894,0,7.052-3.134,7.052-6.997C1058.501,200.825,1055.343,197.691,1051.449,197.691z"/>
<path fill="#4D5562" d="M1048.157-89.219c-26.532,0.161-47.996,22.181-47.996,49.332V511.43c0,27.148,21.464,49.167,47.996,49.332
	v0.008h978.716c26.669,0,48.289-22.09,48.289-49.34V-39.887c0-27.253-21.62-49.344-48.289-49.344h-978.716V-89.219z
	 M2021.437-83.498c26.534,0.164,47.998,22.185,47.998,49.337v539.859c0,27.147-21.464,49.167-47.998,49.331h-967.548
	c-26.532-0.164-47.995-22.184-47.995-49.331V-34.161c0-27.152,21.463-49.173,47.995-49.337H2021.437z"/>
</svg>
