<?xml version="1.0" encoding="utf-8"?>
<!-- Generator: Adobe Illustrator 16.0.0, SVG Export Plug-In . SVG Version: 6.00 Build 0)  -->
<!DOCTYPE svg PUBLIC "-//W3C//DTD SVG 1.1//EN" "http://www.w3.org/Graphics/SVG/1.1/DTD/svg11.dtd">
<svg version="1.1" id="Layer_1" xmlns="http://www.w3.org/2000/svg" xmlns:xlink="http://www.w3.org/1999/xlink" x="0px" y="0px"
	 width="1075px" height="650px" viewBox="0 0 1075 650" enable-background="new 0 0 1075 650" xml:space="preserve">
<path fill="#424A55" d="M47.995,0.012C21.464,0.172-0.001,22.192-0.001,49.343V600.66c0,27.148,21.465,49.167,47.996,49.332V650
	h978.717c26.668,0,48.289-22.09,48.289-49.34V49.343C1075.001,22.09,1053.38,0,1026.712,0H47.995V0.012z"/>
<path fill="#4D5562" d="M63.019,327.252c0,6.424-5.263,11.651-11.73,11.651c-6.47,0-11.732-5.228-11.732-11.651
	c0-6.428,5.264-11.654,11.732-11.654C57.755,315.598,63.019,320.826,63.019,327.252z M43.553,327.252
	c0,4.22,3.471,7.651,7.734,7.651c4.263,0,7.731-3.433,7.731-7.651c0-4.222-3.469-7.655-7.731-7.655
	C47.024,319.597,43.553,323.031,43.553,327.252z"/>
<path fill="#3F4651" d="M51.287,323.99c-1.816,0-3.292,1.459-3.292,3.262c0,1.799,1.476,3.263,3.292,3.263
	c1.814,0,3.287-1.464,3.287-3.263C54.574,325.449,53.103,323.99,51.287,323.99z"/>
<path fill="#3F4651" d="M51.287,286.921c-3.898,0-7.056,3.134-7.056,6.998c0,3.863,3.156,6.997,7.056,6.997
	c3.895,0,7.052-3.134,7.052-6.997C58.339,290.056,55.182,286.921,51.287,286.921z"/>
<path fill="#4D5562" d="M47.995,0.012C21.464,0.172-0.001,22.192-0.001,49.343V600.66c0,27.148,21.465,49.167,47.996,49.332V650
	h978.717c26.668,0,48.289-22.09,48.289-49.34V49.343C1075.001,22.09,1053.38,0,1026.712,0H47.995V0.012z M1021.276,5.732
	c26.534,0.164,47.998,22.185,47.998,49.337v539.859c0,27.146-21.464,49.167-47.998,49.331H53.728
	c-26.532-0.164-47.995-22.185-47.995-49.331V55.069c0-27.152,21.463-49.173,47.995-49.337H1021.276z"/>
</svg>
