<?xml version="1.0" encoding="iso-8859-1"?>
<!-- Generator: Adobe Illustrator 16.0.0, SVG Export Plug-In . SVG Version: 6.00 Build 0)  -->
<!DOCTYPE svg PUBLIC "-//W3C//DTD SVG 1.1//EN" "http://www.w3.org/Graphics/SVG/1.1/DTD/svg11.dtd">
<svg version="1.1" id="Layer_13" xmlns="http://www.w3.org/2000/svg" xmlns:xlink="http://www.w3.org/1999/xlink" x="0px" y="0px"
	 width="800px" height="348px" viewBox="0 24 800 348" style="enable-background:new 0 24 800 348;" xml:space="preserve">
<g>
	<path style="fill:#C462B2;" d="M338.251,167.385c3.395,0,5.132,1.854,5.132,1.854l-0.977,1.481c0,0-1.638-1.543-4.077-1.543
		c-3.154,0-5.213,2.398-5.213,5.393c0,3.019,2.101,5.578,5.235,5.578c2.653,0,4.351-1.839,4.351-1.839l1.061,1.423
		c0,0-1.938,2.23-5.47,2.23c-4.236,0-7.214-3.237-7.214-7.364C331.079,170.505,334.155,167.385,338.251,167.385z"/>
	<path style="fill:#C462B2;" d="M345.917,171.616h1.94v6.028c0,1.407,0.279,2.519,1.896,2.519c2.056,0,3.274-1.809,3.274-3.815
		v-4.731h1.939v10.108h-1.877v-1.345c0-0.416,0.038-0.726,0.038-0.726h-0.038c-0.419,0.989-1.739,2.309-3.715,2.309
		c-2.277,0-3.458-1.196-3.458-3.869V171.616L345.917,171.616z"/>
	<path style="fill:#C462B2;" d="M358.121,179.113c0,0,1.138,1.175,2.897,1.175c0.837,0,1.676-0.433,1.676-1.252
		c0-1.87-5.192-1.484-5.192-4.776c0-1.838,1.639-2.877,3.655-2.877c2.217,0,3.259,1.115,3.259,1.115l-0.783,1.454
		c0,0-0.899-0.898-2.491-0.898c-0.843,0-1.66,0.356-1.66,1.239c0,1.822,5.192,1.42,5.192,4.742c0,1.669-1.439,2.928-3.655,2.928
		c-2.475,0-3.834-1.474-3.834-1.474L358.121,179.113z"/>
	<path style="fill:#C462B2;" d="M367.37,173.316h-1.319v-1.562h1.382v-2.916h1.872v2.916h2.44v1.562h-2.44v4.498
		c0,2.01,1.419,2.272,2.162,2.272c0.278,0,0.454-0.046,0.454-0.046v1.73c0,0-0.279,0.029-0.679,0.029c-1.299,0-3.872-0.4-3.872-3.77
		V173.316z"/>
	<path style="fill:#C462B2;" d="M378.811,171.383c3.015,0,5.454,2.212,5.454,5.273c0,3.076-2.439,5.307-5.454,5.307
		s-5.452-2.23-5.452-5.307C373.358,173.595,375.796,171.383,378.811,171.383z M378.811,180.288c1.918,0,3.475-1.514,3.475-3.632
		c0-2.104-1.557-3.603-3.475-3.603c-1.897,0-3.476,1.499-3.476,3.603C375.335,178.774,376.913,180.288,378.811,180.288z"/>
	<path style="fill:#C462B2;" d="M386.562,171.616h1.875v1.347c0,0.399-0.04,0.731-0.04,0.731h0.04
		c0.48-1.18,1.901-2.312,3.478-2.312c1.7,0,2.691,0.774,3.032,2.291h0.043c0.558-1.221,1.955-2.291,3.594-2.291
		c2.28,0,3.331,1.299,3.331,3.867v6.475h-1.932v-6.058c0-1.407-0.279-2.534-1.794-2.534c-1.421,0-2.484,1.205-2.842,2.58
		c-0.094,0.416-0.14,0.881-0.14,1.395v4.617h-1.933v-6.058c0-1.315-0.201-2.534-1.762-2.534c-1.479,0-2.519,1.219-2.89,2.658
		c-0.107,0.4-0.126,0.865-0.126,1.316v4.617h-1.936V171.616L386.562,171.616z"/>
	<path style="fill:#C462B2;" d="M409.162,171.383c2.86,0,4.376,2.118,4.376,4.732c0,0.261-0.054,0.833-0.054,0.833h-7.371
		c0.099,2.227,1.676,3.34,3.476,3.34c1.738,0,2.99-1.175,2.99-1.175l0.804,1.406c0,0-1.499,1.444-3.909,1.444
		c-3.185,0-5.36-2.293-5.36-5.292C404.113,173.456,406.288,171.383,409.162,171.383z M411.565,175.497
		c-0.06-1.746-1.133-2.583-2.432-2.583c-1.484,0-2.677,0.927-2.963,2.583H411.565z"/>
	<path style="fill:#C462B2;" d="M415.901,171.616h1.871v1.764c0,0.416-0.029,0.757-0.029,0.757h0.029
		c0.464-1.482,1.638-2.642,3.2-2.642c0.262,0,0.492,0.045,0.492,0.045v1.916c0,0-0.255-0.062-0.554-0.062
		c-1.239,0-2.382,0.882-2.83,2.381c-0.187,0.573-0.248,1.19-0.248,1.814v4.136h-1.932V171.616z"/>
	<path style="fill:#C462B2;" d="M423.506,179.113c0,0,1.145,1.175,2.899,1.175c0.842,0,1.676-0.433,1.676-1.252
		c0-1.87-5.194-1.484-5.194-4.776c0-1.838,1.639-2.877,3.658-2.877c2.216,0,3.251,1.115,3.251,1.115l-0.771,1.454
		c0,0-0.903-0.898-2.505-0.898c-0.834,0-1.654,0.356-1.654,1.239c0,1.822,5.195,1.42,5.195,4.742c0,1.669-1.438,2.928-3.655,2.928
		c-2.481,0-3.838-1.474-3.838-1.474L423.506,179.113z"/>
	<path style="fill:#C462B2;" d="M442.742,175.418h0.44v-0.185c0-1.653-0.943-2.212-2.217-2.212c-1.554,0-2.823,0.976-2.823,0.976
		l-0.794-1.423c0,0,1.459-1.191,3.777-1.191c2.549,0,3.987,1.393,3.987,3.947v6.395h-1.791v-0.958c0-0.463,0.039-0.803,0.039-0.803
		h-0.039c0,0-0.819,1.999-3.236,1.999c-1.742,0-3.437-1.058-3.437-3.078C436.641,175.559,441.043,175.418,442.742,175.418z
		 M440.509,180.412c1.638,0,2.688-1.717,2.688-3.216v-0.324h-0.493c-1.46,0-4.097,0.093-4.097,1.916
		C438.607,179.607,439.242,180.412,440.509,180.412z"/>
	<path style="fill:#C462B2;" d="M448.016,171.616h1.874v1.764c0,0.416-0.036,0.757-0.036,0.757h0.036
		c0.466-1.482,1.639-2.642,3.201-2.642c0.257,0,0.492,0.045,0.492,0.045v1.916c0,0-0.263-0.062-0.555-0.062
		c-1.236,0-2.382,0.882-2.834,2.381c-0.18,0.573-0.242,1.19-0.242,1.814v4.136h-1.937V171.616L448.016,171.616z"/>
	<path style="fill:#C462B2;" d="M459.797,171.383c2.859,0,4.373,2.118,4.373,4.732c0,0.261-0.061,0.833-0.061,0.833h-7.375
		c0.111,2.227,1.687,3.34,3.48,3.34c1.741,0,2.998-1.175,2.998-1.175l0.799,1.406c0,0-1.495,1.444-3.916,1.444
		c-3.172,0-5.353-2.293-5.353-5.292C454.742,173.456,456.923,171.383,459.797,171.383z M462.193,175.497
		c-0.062-1.746-1.141-2.583-2.438-2.583c-1.472,0-2.678,0.927-2.958,2.583H462.193z"/>
	<path style="fill:#C462B2;" d="M473.537,173.89c-0.917-0.649-1.575-1.513-1.575-2.812c0-1.872,1.417-3.693,4.386-3.693
		c2.62,0,4.438,1.454,4.438,3.771c0,1.884-1.5,3.478-1.675,3.676c1.069,0.666,1.917,1.545,1.917,2.999
		c0,2.194-1.895,4.133-4.832,4.133c-2.817,0-4.915-1.753-4.915-4.319C471.281,175.497,473.157,174.153,473.537,173.89z
		 M474.989,174.739c-0.454,0.31-1.688,1.268-1.688,2.797c0,1.608,1.395,2.649,2.895,2.649c1.477,0,2.798-0.963,2.798-2.418
		C478.994,176.254,476.89,175.65,474.989,174.739z M477.611,174.06c0.224-0.219,1.238-1.298,1.238-2.784
		c0-1.296-1.038-2.115-2.514-2.115c-1.563,0-2.418,0.879-2.418,1.963C473.918,172.682,475.794,173.272,477.611,174.06z"/>
	<path style="fill:#C462B2;" d="M483.365,180.644c0-5.024,6.911-5.751,6.911-9.067c0-1.397-1.065-2.337-2.54-2.337
		c-1.855,0-2.854,1.804-2.854,1.804l-1.458-0.984c0,0,1.272-2.674,4.455-2.674c2.596,0,4.452,1.62,4.452,4.051
		c0,4.634-6.732,5.359-6.768,8.574h6.982v1.715h-9.088C483.4,181.338,483.365,180.982,483.365,180.644z"/>
	<path style="fill:#C462B2;" d="M494.648,170.336c0-1.608,1.332-2.951,3.015-2.951c1.677,0,3.036,1.343,3.036,2.951
		c0,1.638-1.359,2.965-3.036,2.965C495.98,173.301,494.648,171.974,494.648,170.336z M505.731,167.629h1.881l-10.789,14.096h-1.881
		L505.731,167.629z M499.142,170.336c0-0.819-0.645-1.497-1.479-1.497c-0.84,0-1.484,0.678-1.484,1.497
		c0,0.849,0.645,1.481,1.484,1.481C498.497,171.817,499.142,171.185,499.142,170.336z M504.914,176.053
		c1.651,0,3.035,1.344,3.035,2.953c0,1.638-1.383,2.957-3.035,2.957c-1.702,0-3.035-1.319-3.035-2.957
		C501.879,177.396,503.212,176.053,504.914,176.053z M504.914,180.489c0.817,0,1.477-0.634,1.477-1.483
		c0-0.819-0.659-1.499-1.477-1.499c-0.838,0-1.48,0.68-1.48,1.499C503.434,179.855,504.076,180.489,504.914,180.489z"/>
	<path style="fill:#C462B2;" d="M515.536,171.616h1.88v1.347c0,0.399-0.046,0.731-0.046,0.731h0.046
		c0.479-1.18,1.896-2.312,3.479-2.312c1.693,0,2.689,0.774,3.029,2.291h0.043c0.562-1.221,1.953-2.291,3.591-2.291
		c2.28,0,3.337,1.299,3.337,3.867v6.475h-1.931v-6.058c0-1.407-0.285-2.534-1.801-2.534c-1.419,0-2.482,1.205-2.838,2.58
		c-0.098,0.416-0.139,0.881-0.139,1.395v4.617h-1.938v-6.058c0-1.315-0.202-2.534-1.759-2.534c-1.483,0-2.519,1.219-2.896,2.658
		c-0.101,0.4-0.12,0.865-0.12,1.316v4.617h-1.943v-10.108H515.536z"/>
	<path style="fill:#C462B2;" d="M538.505,171.383c3.018,0,5.448,2.212,5.448,5.273c0,3.076-2.431,5.307-5.448,5.307
		c-3.023,0-5.454-2.23-5.454-5.307C533.051,173.595,535.481,171.383,538.505,171.383z M538.505,180.288
		c1.92,0,3.471-1.514,3.471-3.632c0-2.104-1.551-3.603-3.471-3.603c-1.897,0-3.476,1.499-3.476,3.603
		C535.029,178.774,536.607,180.288,538.505,180.288z"/>
	<path style="fill:#C462B2;" d="M546.25,171.616h1.877v1.764c0,0.416-0.035,0.757-0.035,0.757h0.035
		c0.464-1.482,1.636-2.642,3.2-2.642c0.259,0,0.494,0.045,0.494,0.045v1.916c0,0-0.254-0.062-0.557-0.062
		c-1.236,0-2.379,0.882-2.833,2.381c-0.181,0.573-0.243,1.19-0.243,1.814v4.136h-1.938V171.616L546.25,171.616z"/>
	<path style="fill:#C462B2;" d="M558.034,171.383c2.858,0,4.374,2.118,4.374,4.732c0,0.261-0.062,0.833-0.062,0.833h-7.364
		c0.101,2.227,1.678,3.34,3.47,3.34c1.742,0,2.999-1.175,2.999-1.175l0.803,1.406c0,0-1.499,1.444-3.912,1.444
		c-3.18,0-5.359-2.293-5.359-5.292C552.98,173.456,555.16,171.383,558.034,171.383z M560.429,175.497
		c-0.062-1.746-1.135-2.583-2.432-2.583c-1.479,0-2.678,0.927-2.962,2.583H560.429z"/>
	<path style="fill:#C462B2;" d="M569.779,167.629h1.932v11.006c0,1.221,0.479,1.438,1.083,1.438c0.179,0,0.34-0.031,0.34-0.031v1.73
		c0,0-0.298,0.029-0.64,0.029c-1.098,0-2.715-0.291-2.715-2.827V167.629z"/>
	<path style="fill:#C462B2;" d="M575.17,167.629h1.957v1.977h-1.957V167.629z M575.189,171.616h1.94v10.108h-1.94V171.616z"/>
	<path style="fill:#C462B2;" d="M580.163,167.629h1.936v7.701h1.423l2.751-3.714h2.2l-3.358,4.453v0.046l3.739,5.609h-2.256
		l-3.037-4.76h-1.462v4.76h-1.936V167.629L580.163,167.629z"/>
	<path style="fill:#C462B2;" d="M594.864,171.383c2.854,0,4.372,2.118,4.372,4.732c0,0.261-0.061,0.833-0.061,0.833h-7.371
		c0.103,2.227,1.68,3.34,3.478,3.34c1.736,0,2.997-1.175,2.997-1.175l0.8,1.406c0,0-1.5,1.444-3.921,1.444
		c-3.168,0-5.348-2.293-5.348-5.292C589.811,173.456,591.983,171.383,594.864,171.383z M597.26,175.497
		c-0.062-1.746-1.142-2.583-2.441-2.583c-1.473,0-2.674,0.927-2.952,2.583H597.26z"/>
	<path style="fill:#C462B2;" d="M601.475,167.629h1.938v11.006c0,1.221,0.478,1.438,1.076,1.438c0.177,0,0.342-0.031,0.342-0.031
		v1.73c0,0-0.305,0.029-0.643,0.029c-1.099,0-2.713-0.291-2.713-2.827V167.629z"/>
	<path style="fill:#C462B2;" d="M606.146,183.827c0,0,0.557,0.418,1.177,0.418c0.782,0,1.438-0.557,1.817-1.485l0.501-1.157
		l-4.234-9.986h2.177l2.536,6.616c0.2,0.51,0.381,1.221,0.381,1.221h0.035c0,0,0.163-0.679,0.341-1.206l2.458-6.631h2.095
		l-4.729,11.933c-0.617,1.544-1.86,2.364-3.275,2.364c-1.14,0-1.957-0.618-1.957-0.618L606.146,183.827z"/>
	<path style="fill:#C462B2;" d="M622.623,173.316h-1.318v-1.562h1.377v-2.916h1.877v2.916h2.439v1.562h-2.439v4.498
		c0,2.01,1.419,2.272,2.16,2.272c0.279,0,0.459-0.046,0.459-0.046v1.73c0,0-0.282,0.029-0.679,0.029c-1.299,0-3.874-0.4-3.874-3.77
		v-4.715H622.623z"/>
	<path style="fill:#C462B2;" d="M634.065,171.383c3.018,0,5.453,2.212,5.453,5.273c0,3.076-2.436,5.307-5.453,5.307
		c-3.02,0-5.453-2.23-5.453-5.307C628.612,173.595,631.046,171.383,634.065,171.383z M634.065,180.288
		c1.918,0,3.474-1.514,3.474-3.632c0-2.104-1.556-3.603-3.474-3.603c-1.895,0-3.474,1.499-3.474,3.603
		C630.592,178.774,632.171,180.288,634.065,180.288z"/>
	<path style="fill:#C462B2;" d="M646.944,171.616h1.879v1.764c0,0.416-0.038,0.757-0.038,0.757h0.038
		c0.462-1.482,1.636-2.642,3.196-2.642c0.257,0,0.5,0.045,0.5,0.045v1.916c0,0-0.257-0.062-0.56-0.062
		c-1.237,0-2.376,0.882-2.834,2.381c-0.181,0.573-0.242,1.19-0.242,1.814v4.136h-1.939V171.616L646.944,171.616z"/>
	<path style="fill:#C462B2;" d="M658.729,171.383c2.854,0,4.374,2.118,4.374,4.732c0,0.261-0.059,0.833-0.059,0.833h-7.368
		c0.099,2.227,1.675,3.34,3.472,3.34c1.74,0,2.997-1.175,2.997-1.175l0.798,1.406c0,0-1.496,1.444-3.912,1.444
		c-3.175,0-5.354-2.293-5.354-5.292C653.675,173.456,655.854,171.383,658.729,171.383z M661.123,175.497
		c-0.059-1.746-1.135-2.583-2.433-2.583c-1.479,0-2.676,0.927-2.958,2.583H661.123z"/>
	<path style="fill:#C462B2;" d="M665.463,171.616h1.777v0.865c0,0.401-0.043,0.732-0.043,0.732h0.043c0,0,0.855-1.831,3.393-1.831
		c2.717,0,4.434,2.151,4.434,5.288c0,3.214-1.936,5.292-4.574,5.292c-2.217,0-3.096-1.659-3.096-1.659h-0.039
		c0,0,0.039,0.363,0.039,0.88v4.527h-1.936v-14.095H665.463z M670.195,180.304c1.594,0,2.916-1.314,2.916-3.618
		c0-2.194-1.183-3.616-2.859-3.616c-1.514,0-2.913,1.066-2.913,3.646C667.337,178.51,668.336,180.304,670.195,180.304z"/>
	<path style="fill:#C462B2;" d="M677.303,171.616h1.937v6.028c0,1.407,0.28,2.519,1.9,2.519c2.057,0,3.276-1.809,3.276-3.815v-4.731
		h1.933v10.108h-1.876v-1.345c0-0.416,0.04-0.726,0.04-0.726h-0.04c-0.418,0.989-1.733,2.309-3.712,2.309
		c-2.278,0-3.458-1.196-3.458-3.869V171.616L677.303,171.616z"/>
	<path style="fill:#C462B2;" d="M689.387,171.616h1.878v1.764c0,0.416-0.038,0.757-0.038,0.757h0.038
		c0.456-1.482,1.636-2.642,3.194-2.642c0.262,0,0.499,0.045,0.499,0.045v1.916c0,0-0.26-0.062-0.559-0.062
		c-1.242,0-2.378,0.882-2.836,2.381c-0.184,0.573-0.239,1.19-0.239,1.814v4.136h-1.938V171.616z"/>
	<path style="fill:#C462B2;" d="M701.508,171.383c2.537,0,3.796,1.473,3.796,1.473l-0.919,1.357c0,0-1.08-1.159-2.798-1.159
		c-2.035,0-3.513,1.517-3.513,3.603c0,2.056,1.478,3.632,3.573,3.632c1.879,0,3.117-1.361,3.117-1.361l0.778,1.424
		c0,0-1.396,1.612-4.035,1.612c-3.172,0-5.414-2.258-5.414-5.292C696.094,173.674,698.336,171.383,701.508,171.383z"/>
	<path style="fill:#C462B2;" d="M707.739,167.629h1.939v5.164c0,0.479-0.042,0.847-0.042,0.847h0.042
		c0.435-0.985,1.718-2.257,3.734-2.257c2.372,0,3.473,1.299,3.473,3.867v6.475h-1.935v-6.026c0-1.423-0.302-2.537-1.916-2.537
		c-1.52,0-2.779,1.037-3.2,2.489c-0.116,0.402-0.156,0.867-0.156,1.347v4.728h-1.939V167.629L707.739,167.629z"/>
	<path style="fill:#C462B2;" d="M725.058,175.418h0.435v-0.185c0-1.653-0.937-2.212-2.212-2.212c-1.559,0-2.818,0.976-2.818,0.976
		l-0.797-1.423c0,0,1.452-1.191,3.771-1.191c2.558,0,3.995,1.393,3.995,3.947v6.395h-1.798v-0.958c0-0.463,0.042-0.803,0.042-0.803
		h-0.042c0,0-0.818,1.999-3.231,1.999c-1.74,0-3.436-1.058-3.436-3.078C718.963,175.559,723.358,175.418,725.058,175.418z
		 M722.818,180.412c1.638,0,2.694-1.717,2.694-3.216v-0.324h-0.502c-1.45,0-4.091,0.093-4.091,1.916
		C720.92,179.607,721.559,180.412,722.818,180.412z"/>
	<path style="fill:#C462B2;" d="M730.447,179.113c0,0,1.139,1.175,2.896,1.175c0.837,0,1.679-0.433,1.679-1.252
		c0-1.87-5.195-1.484-5.195-4.776c0-1.838,1.638-2.877,3.656-2.877c2.215,0,3.257,1.115,3.257,1.115l-0.782,1.454
		c0,0-0.898-0.898-2.492-0.898c-0.841,0-1.661,0.356-1.661,1.239c0,1.822,5.192,1.42,5.192,4.742c0,1.669-1.438,2.928-3.653,2.928
		c-2.476,0-3.832-1.474-3.832-1.474L730.447,179.113z"/>
	<path style="fill:#C462B2;" d="M743.627,171.383c2.854,0,4.373,2.118,4.373,4.732c0,0.261-0.06,0.833-0.06,0.833h-7.366
		c0.098,2.227,1.676,3.34,3.473,3.34c1.739,0,2.996-1.175,2.996-1.175l0.799,1.406c0,0-1.501,1.444-3.91,1.444
		c-3.178,0-5.355-2.293-5.355-5.292C738.573,173.456,740.751,171.383,743.627,171.383z M746.025,175.497
		c-0.06-1.746-1.135-2.583-2.436-2.583c-1.484,0-2.675,0.927-2.956,2.583H746.025z"/>
	<path style="fill:#C462B2;" d="M332.178,199.433h-1.257v-1.562h1.257v-0.479c0-3.339,2.518-3.756,3.797-3.756
		c0.438,0,0.741,0.063,0.741,0.063v1.655c0,0-0.2-0.031-0.504-0.031c-0.74,0-2.116,0.229-2.116,2.118v0.43h2.396v1.562h-2.396v8.407
		h-1.918V199.433z"/>
	<path style="fill:#C462B2;" d="M338.352,197.731h1.876v1.764c0,0.416-0.042,0.757-0.042,0.757h0.042
		c0.46-1.486,1.638-2.641,3.196-2.641c0.26,0,0.5,0.044,0.5,0.044v1.916c0,0-0.263-0.062-0.561-0.062
		c-1.238,0-2.377,0.882-2.837,2.382c-0.179,0.574-0.237,1.209-0.237,1.826v4.123h-1.938L338.352,197.731L338.352,197.731z"/>
	<path style="fill:#C462B2;" d="M350.494,197.503c3.015,0,5.454,2.207,5.454,5.271c0,3.074-2.439,5.315-5.454,5.315
		s-5.453-2.241-5.453-5.315C345.039,199.71,347.479,197.503,350.494,197.503z M350.494,206.403c1.916,0,3.477-1.513,3.477-3.629
		c0-2.105-1.561-3.605-3.477-3.605c-1.898,0-3.476,1.5-3.476,3.605C347.017,204.891,348.596,206.403,350.494,206.403z"/>
	<path style="fill:#C462B2;" d="M358.242,197.731h1.879v1.348c0,0.403-0.043,0.742-0.043,0.742h0.043
		c0.479-1.194,1.894-2.318,3.475-2.318c1.695,0,2.693,0.771,3.033,2.283h0.044c0.559-1.209,1.952-2.283,3.591-2.283
		c2.276,0,3.336,1.299,3.336,3.86v6.477h-1.933v-6.049c0-1.414-0.286-2.546-1.803-2.546c-1.414,0-2.477,1.208-2.834,2.583
		c-0.102,0.415-0.139,0.881-0.139,1.41v4.602h-1.938v-6.049c0-1.324-0.201-2.546-1.757-2.546c-1.48,0-2.519,1.222-2.897,2.658
		c-0.1,0.403-0.116,0.871-0.116,1.335v4.602h-1.94V197.731L358.242,197.731z"/>
	<path style="fill:#C462B2;" d="M386.898,201.537h0.441v-0.188c0-1.652-0.94-2.207-2.219-2.207c-1.552,0-2.815,0.972-2.815,0.972
		l-0.792-1.424c0,0,1.452-1.187,3.77-1.187c2.555,0,3.99,1.388,3.99,3.957v6.38h-1.795v-0.958c0-0.466,0.047-0.808,0.047-0.808
		h-0.047c0,0-0.818,2.015-3.229,2.015c-1.744,0-3.441-1.068-3.441-3.074C380.809,201.676,385.207,201.537,386.898,201.537z
		 M384.666,206.528c1.639,0,2.691-1.714,2.691-3.214v-0.327h-0.497c-1.451,0-4.095,0.112-4.095,1.915
		C382.766,205.722,383.404,206.528,384.666,206.528z"/>
	<path style="fill:#C462B2;" d="M401.998,197.503c2.537,0,3.796,1.464,3.796,1.464l-0.919,1.361c0,0-1.074-1.16-2.79-1.16
		c-2.04,0-3.522,1.518-3.522,3.604c0,2.056,1.482,3.631,3.577,3.631c1.877,0,3.113-1.362,3.113-1.362l0.781,1.423
		c0,0-1.399,1.626-4.036,1.626c-3.175,0-5.415-2.265-5.415-5.304C396.583,199.786,398.823,197.503,401.998,197.503z"/>
	<path style="fill:#C462B2;" d="M412.943,197.503c3.022,0,5.446,2.207,5.446,5.271c0,3.074-2.424,5.315-5.446,5.315
		c-3.019,0-5.449-2.241-5.449-5.315C407.495,199.71,409.928,197.503,412.943,197.503z M412.943,206.403
		c1.92,0,3.472-1.513,3.472-3.629c0-2.105-1.552-3.605-3.472-3.605c-1.894,0-3.471,1.5-3.471,3.605
		C409.474,204.891,411.05,206.403,412.943,206.403z"/>
	<path style="fill:#C462B2;" d="M420.692,197.731h1.875v1.348c0,0.403-0.033,0.742-0.033,0.742h0.033
		c0.482-1.194,1.896-2.318,3.475-2.318c1.699,0,2.706,0.771,3.044,2.283h0.031c0.563-1.209,1.964-2.283,3.602-2.283
		c2.271,0,3.338,1.299,3.338,3.86v6.477h-1.948v-6.049c0-1.414-0.277-2.546-1.792-2.546c-1.422,0-2.472,1.208-2.836,2.583
		c-0.101,0.415-0.142,0.881-0.142,1.41v4.602h-1.938v-6.049c0-1.324-0.202-2.546-1.759-2.546c-1.472,0-2.516,1.222-2.895,2.658
		c-0.1,0.403-0.123,0.871-0.123,1.335v4.602h-1.934L420.692,197.731L420.692,197.731z"/>
	<path style="fill:#C462B2;" d="M438.947,197.731h1.776v0.868c0,0.402-0.042,0.743-0.042,0.743h0.042c0,0,0.862-1.84,3.397-1.84
		c2.713,0,4.436,2.145,4.436,5.283c0,3.213-1.945,5.304-4.578,5.304c-2.22,0-3.103-1.674-3.103-1.674h-0.028
		c0,0,0.028,0.375,0.028,0.881v4.531h-1.931v-14.097H438.947z M443.675,206.415c1.603,0,2.923-1.312,2.923-3.617
		c0-2.193-1.183-3.595-2.86-3.595c-1.512,0-2.909,1.048-2.909,3.632C440.828,204.625,441.82,206.415,443.675,206.415z"/>
	<path style="fill:#C462B2;" d="M456.204,201.537h0.441v-0.188c0-1.652-0.944-2.207-2.222-2.207c-1.553,0-2.819,0.972-2.819,0.972
		l-0.791-1.424c0,0,1.456-1.187,3.777-1.187c2.548,0,3.984,1.388,3.984,3.957v6.38h-1.79v-0.958c0-0.466,0.034-0.808,0.034-0.808
		h-0.034c0,0-0.82,2.015-3.236,2.015c-1.743,0-3.439-1.068-3.439-3.074C450.104,201.676,454.506,201.537,456.204,201.537z
		 M453.967,206.528c1.639,0,2.692-1.714,2.692-3.214v-0.327h-0.492c-1.459,0-4.098,0.112-4.098,1.915
		C452.068,205.722,452.7,206.528,453.967,206.528z"/>
	<path style="fill:#C462B2;" d="M461.475,197.731h1.878v1.348c0,0.403-0.039,0.742-0.039,0.742h0.039
		c0.402-0.882,1.593-2.318,3.797-2.318c2.369,0,3.471,1.299,3.471,3.86v6.477h-1.936v-6.025c0-1.424-0.301-2.534-1.916-2.534
		c-1.537,0-2.78,1.021-3.2,2.472c-0.114,0.403-0.152,0.859-0.152,1.361v4.727h-1.939v-10.108H461.475z"/>
	<path style="fill:#C462B2;" d="M472.781,209.944c0,0,0.554,0.415,1.173,0.415c0.785,0,1.439-0.555,1.824-1.487l0.494-1.159
		l-4.234-9.982h2.181l2.534,6.617c0.201,0.521,0.38,1.221,0.38,1.221h0.034c0,0,0.166-0.678,0.342-1.207l2.458-6.63h2.104
		l-4.736,11.934c-0.622,1.543-1.864,2.363-3.277,2.363c-1.137,0-1.956-0.618-1.956-0.618L472.781,209.944z"/>
	<path style="fill:#C462B2;" d="M487.658,197.731h2.055l2.091,7.097c0.165,0.527,0.25,1.082,0.264,1.082h0.044
		c0,0,0.095-0.555,0.261-1.082l2.194-7.071h1.777l2.18,7.071c0.161,0.527,0.279,1.082,0.279,1.082h0.034
		c0,0,0.078-0.555,0.243-1.082l2.117-7.097h2.035l-3.25,10.108h-2.139l-2.098-6.492c-0.161-0.514-0.278-1.097-0.278-1.097h-0.049
		c0,0-0.113,0.573-0.276,1.097l-2.074,6.492h-2.161L487.658,197.731z"/>
	<path style="fill:#C462B2;" d="M505.092,193.746h1.939v5.162c0,0.48-0.044,0.852-0.044,0.852h0.044
		c0.434-0.994,1.713-2.257,3.734-2.257c2.373,0,3.473,1.299,3.473,3.86v6.477h-1.937v-6.025c0-1.424-0.296-2.534-1.916-2.534
		c-1.515,0-2.773,1.034-3.2,2.484c-0.112,0.403-0.154,0.87-0.154,1.349v4.727h-1.939V193.746L505.092,193.746z"/>
	<path style="fill:#C462B2;" d="M521.49,197.503c2.851,0,4.374,2.118,4.374,4.728c0,0.265-0.06,0.832-0.06,0.832h-7.368
		c0.093,2.23,1.671,3.341,3.472,3.341c1.737,0,2.999-1.173,2.999-1.173l0.794,1.415c0,0-1.499,1.444-3.91,1.444
		c-3.178,0-5.353-2.304-5.353-5.303C516.438,199.571,518.611,197.503,521.49,197.503z M523.888,201.612
		c-0.063-1.735-1.14-2.583-2.438-2.583c-1.484,0-2.677,0.932-2.958,2.583H523.888z"/>
	<path style="fill:#C462B2;" d="M528.22,197.731h1.876v1.764c0,0.416-0.035,0.757-0.035,0.757h0.035
		c0.458-1.486,1.637-2.641,3.195-2.641c0.263,0,0.503,0.044,0.503,0.044v1.916c0,0-0.263-0.062-0.566-0.062
		c-1.237,0-2.369,0.882-2.829,2.382c-0.185,0.574-0.246,1.209-0.246,1.826v4.123h-1.933V197.731z"/>
	<path style="fill:#C462B2;" d="M539.996,197.503c2.858,0,4.375,2.118,4.375,4.728c0,0.265-0.054,0.832-0.054,0.832h-7.37
		c0.097,2.23,1.674,3.341,3.478,3.341c1.737,0,2.987-1.173,2.987-1.173l0.806,1.415c0,0-1.5,1.444-3.917,1.444
		c-3.178,0-5.351-2.304-5.351-5.303C534.948,199.571,537.122,197.503,539.996,197.503z M542.4,201.612
		c-0.06-1.735-1.143-2.583-2.438-2.583c-1.48,0-2.675,0.932-2.956,2.583H542.4z"/>
	<path style="fill:#C462B2;" d="M552.284,199.433h-1.317v-1.562h1.381v-2.902h1.873v2.902h2.438v1.562h-2.438v4.499
		c0,2.004,1.419,2.268,2.158,2.268c0.28,0,0.46-0.034,0.46-0.034v1.723c0,0-0.277,0.026-0.679,0.026
		c-1.299,0-3.874-0.402-3.874-3.77v-4.712H552.284z"/>
	<path style="fill:#C462B2;" d="M559.014,193.746h1.938v5.162c0,0.48-0.042,0.852-0.042,0.852h0.042
		c0.436-0.994,1.719-2.257,3.734-2.257c2.375,0,3.473,1.299,3.473,3.86v6.477h-1.932v-6.025c0-1.424-0.3-2.534-1.918-2.534
		c-1.52,0-2.782,1.034-3.198,2.484c-0.118,0.403-0.157,0.87-0.157,1.349v4.727h-1.939V193.746L559.014,193.746z"/>
	<path style="fill:#C462B2;" d="M575.407,197.503c2.858,0,4.378,2.118,4.378,4.728c0,0.265-0.061,0.832-0.061,0.832h-7.368
		c0.098,2.23,1.675,3.341,3.474,3.341c1.738,0,2.992-1.173,2.992-1.173l0.803,1.415c0,0-1.497,1.444-3.914,1.444
		c-3.18,0-5.353-2.304-5.353-5.303C570.354,199.571,572.53,197.503,575.407,197.503z M577.809,201.612
		c-0.058-1.735-1.14-2.583-2.439-2.583c-1.478,0-2.673,0.932-2.951,2.583H577.809z"/>
	<path style="fill:#C462B2;" d="M581.404,209.944c0,0,0.557,0.415,1.174,0.415c0.782,0,1.439-0.555,1.823-1.487l0.495-1.159
		l-4.235-9.982h2.18l2.535,6.617c0.201,0.521,0.382,1.221,0.382,1.221h0.035c0,0,0.165-0.678,0.341-1.207l2.457-6.63h2.099
		l-4.731,11.934c-0.618,1.543-1.858,2.363-3.276,2.363c-1.138,0-1.958-0.618-1.958-0.618L581.404,209.944z"/>
	<path style="fill:#C462B2;" d="M596.281,197.731h2.055l2.096,7.097c0.162,0.527,0.241,1.082,0.261,1.082h0.039
		c0,0,0.099-0.555,0.265-1.082l2.193-7.071h1.779l2.179,7.071c0.157,0.527,0.277,1.082,0.277,1.082h0.037
		c0,0,0.079-0.555,0.241-1.082l2.117-7.097h2.041l-3.259,10.108h-2.138l-2.096-6.492c-0.158-0.514-0.283-1.097-0.283-1.097h-0.04
		c0,0-0.114,0.573-0.279,1.097l-2.078,6.492h-2.157L596.281,197.731z"/>
	<path style="fill:#C462B2;" d="M618.069,197.503c2.854,0,4.375,2.118,4.375,4.728c0,0.265-0.057,0.832-0.057,0.832h-7.372
		c0.096,2.23,1.674,3.341,3.477,3.341c1.736,0,2.992-1.173,2.992-1.173l0.799,1.415c0,0-1.497,1.444-3.915,1.444
		c-3.176,0-5.35-2.304-5.35-5.303C613.019,199.571,615.189,197.503,618.069,197.503z M620.465,201.612
		c-0.058-1.735-1.14-2.583-2.438-2.583c-1.477,0-2.673,0.932-2.952,2.583H620.465z"/>
	<path style="fill:#C462B2;" d="M624.796,197.731h1.878v1.764c0,0.416-0.037,0.757-0.037,0.757h0.037
		c0.463-1.486,1.638-2.641,3.2-2.641c0.259,0,0.5,0.044,0.5,0.044v1.916c0,0-0.26-0.062-0.562-0.062
		c-1.237,0-2.375,0.882-2.835,2.382c-0.18,0.574-0.241,1.209-0.241,1.826v4.123h-1.94V197.731z"/>
	<path style="fill:#C462B2;" d="M636.582,197.503c2.856,0,4.374,2.118,4.374,4.728c0,0.265-0.06,0.832-0.06,0.832h-7.365
		c0.096,2.23,1.674,3.341,3.469,3.341c1.739,0,2.998-1.173,2.998-1.173l0.803,1.415c0,0-1.501,1.444-3.916,1.444
		c-3.176,0-5.354-2.304-5.354-5.303C631.529,199.571,633.708,197.503,636.582,197.503z M638.977,201.612
		c-0.057-1.735-1.135-2.583-2.433-2.583c-1.48,0-2.676,0.932-2.956,2.583H638.977z"/>
	<path style="fill:#C462B2;" d="M648.565,205.23c0,0,1.137,1.173,2.894,1.173c0.841,0,1.68-0.43,1.68-1.247
		c0-1.871-5.193-1.488-5.193-4.778c0-1.84,1.639-2.874,3.656-2.874c2.215,0,3.255,1.11,3.255,1.11l-0.779,1.451
		c0,0-0.897-0.896-2.494-0.896c-0.843,0-1.661,0.376-1.661,1.237c0,1.825,5.193,1.423,5.193,4.75c0,1.663-1.44,2.934-3.656,2.934
		c-2.472,0-3.834-1.484-3.834-1.484L648.565,205.23z"/>
	<path style="fill:#C462B2;" d="M662.664,201.537h0.439v-0.188c0-1.652-0.937-2.207-2.215-2.207c-1.559,0-2.814,0.972-2.814,0.972
		l-0.803-1.424c0,0,1.457-1.187,3.776-1.187c2.557,0,3.994,1.388,3.994,3.957v6.38h-1.8v-0.958c0-0.466,0.041-0.808,0.041-0.808
		h-0.041c0,0-0.816,2.015-3.234,2.015c-1.735,0-3.432-1.068-3.432-3.074C656.574,201.676,660.968,201.537,662.664,201.537z
		 M660.428,206.528c1.639,0,2.698-1.714,2.698-3.214v-0.327h-0.501c-1.459,0-4.095,0.112-4.095,1.915
		C658.53,205.722,659.172,206.528,660.428,206.528z"/>
	<path style="fill:#C462B2;" d="M668.297,199.433h-1.318v-1.562h1.377v-2.902h1.88v2.902h2.437v1.562h-2.437v4.499
		c0,2.004,1.415,2.268,2.155,2.268c0.281,0,0.459-0.034,0.459-0.034v1.723c0,0-0.277,0.026-0.676,0.026
		c-1.304,0-3.876-0.402-3.876-3.77L668.297,199.433L668.297,199.433z"/>
	<path style="fill:#C462B2;" d="M675.006,193.746h1.958v1.979h-1.958V193.746z M675.029,197.731h1.935v10.108h-1.935V197.731z"/>
	<path style="fill:#C462B2;" d="M680.12,205.23c0,0,1.138,1.173,2.898,1.173c0.837,0,1.676-0.43,1.676-1.247
		c0-1.871-5.192-1.488-5.192-4.778c0-1.84,1.638-2.874,3.658-2.874c2.213,0,3.251,1.11,3.251,1.11l-0.778,1.451
		c0,0-0.896-0.896-2.498-0.896c-0.839,0-1.654,0.376-1.654,1.237c0,1.825,5.19,1.423,5.19,4.75c0,1.663-1.438,2.934-3.652,2.934
		c-2.479,0-3.834-1.484-3.834-1.484L680.12,205.23z"/>
	<path style="fill:#C462B2;" d="M695.661,199.294h-4.258v8.546h-1.916v-8.546h-1.257v-1.562h1.257v-0.341
		c0-3.339,2.516-3.756,3.797-3.756c0.437,0,0.738,0.063,0.738,0.063v1.655c0,0-0.203-0.031-0.502-0.031
		c-0.739,0-2.117,0.229-2.117,2.118v0.291h6.192v10.108h-1.938v-8.546H695.661z M695.637,193.746h1.959v1.979h-1.959V193.746z"/>
	<path style="fill:#C462B2;" d="M704.982,197.503c2.859,0,4.373,2.118,4.373,4.728c0,0.265-0.057,0.832-0.057,0.832h-7.37
		c0.102,2.23,1.679,3.341,3.475,3.341c1.739,0,2.995-1.173,2.995-1.173l0.802,1.415c0,0-1.497,1.444-3.918,1.444
		c-3.173,0-5.35-2.304-5.35-5.303C699.93,199.571,702.107,197.503,704.982,197.503z M707.379,201.612
		c-0.059-1.735-1.136-2.583-2.437-2.583c-1.474,0-2.675,0.932-2.954,2.583H707.379z"/>
	<path style="fill:#C462B2;" d="M715.632,197.503c2.333,0,3.113,1.589,3.113,1.589h0.038c0,0-0.038-0.29-0.038-0.68v-4.666h1.939
		v14.094h-1.838v-0.958c0-0.404,0.017-0.682,0.017-0.682h-0.037c0,0-0.82,1.89-3.316,1.89c-2.736,0-4.452-2.165-4.452-5.303
		C711.056,199.571,712.954,197.503,715.632,197.503z M715.891,206.403c1.496,0,2.914-1.048,2.914-3.629
		c0-1.792-0.938-3.605-2.857-3.605c-1.599,0-2.912,1.334-2.912,3.618C713.034,204.979,714.21,206.403,715.891,206.403z"/>
</g>
<g>
	<path style="fill:#00AC92;" d="M340.428,57.012l2.754,10.349c0.201,0.782,0.304,1.5,0.304,1.5h0.036c0,0,0.062-0.743,0.262-1.5
		l2.596-10.349h2.036l-3.693,14.105h-2.297l-2.437-9.151c-0.24-0.895-0.421-1.992-0.421-1.992h-0.038c0,0-0.181,1.097-0.417,1.992
		l-2.439,9.151h-2.299l-3.593-14.105h2.04l2.493,10.349c0.18,0.757,0.26,1.5,0.26,1.5h0.039c0,0,0.1-0.718,0.301-1.5l2.755-10.349
		H340.428z"/>
	<path style="fill:#00AC92;" d="M350.571,57.012h1.938v5.181c0,0.479-0.039,0.833-0.039,0.833h0.039
		c0.44-0.972,1.719-2.257,3.734-2.257c2.378,0,3.476,1.299,3.476,3.871v6.479h-1.937V65.08c0-1.412-0.302-2.534-1.919-2.534
		c-1.517,0-2.774,1.045-3.193,2.496c-0.123,0.402-0.161,0.856-0.161,1.336v4.739h-1.937V57.012H350.571z"/>
	<path style="fill:#00AC92;" d="M366.969,60.768c2.859,0,4.374,2.118,4.374,4.739c0,0.253-0.062,0.833-0.062,0.833h-7.369
		c0.104,2.218,1.681,3.34,3.476,3.34c1.735,0,2.997-1.185,2.997-1.185l0.8,1.424c0,0-1.496,1.438-3.917,1.438
		c-3.174,0-5.352-2.294-5.352-5.294C361.916,62.848,364.094,60.768,366.969,60.768z M369.365,64.89
		c-0.061-1.739-1.14-2.583-2.437-2.583c-1.476,0-2.678,0.92-2.956,2.583H369.365z"/>
	<path style="fill:#00AC92;" d="M373.698,61.008h1.879v1.336c0,0.403-0.041,0.744-0.041,0.744h0.041
		c0.402-0.883,1.597-2.32,3.793-2.32c2.376,0,3.474,1.299,3.474,3.871v6.479h-1.935V65.08c0-1.412-0.302-2.534-1.916-2.534
		c-1.541,0-2.779,1.021-3.197,2.482c-0.12,0.392-0.156,0.857-0.156,1.35v4.739h-1.941V61.008z"/>
	<path style="fill:#00AC92;" d="M395.563,60.768c2.541,0,3.801,1.476,3.801,1.476l-0.921,1.361c0,0-1.072-1.159-2.797-1.159
		c-2.031,0-3.514,1.524-3.514,3.592c0,2.067,1.482,3.643,3.572,3.643c1.882,0,3.118-1.362,3.118-1.362l0.775,1.413
		c0,0-1.393,1.625-4.035,1.625c-3.17,0-5.409-2.256-5.409-5.294C390.154,63.062,392.394,60.768,395.563,60.768z"/>
	<path style="fill:#00AC92;" d="M401.661,61.008h1.938v6.037c0,1.399,0.278,2.509,1.894,2.509c2.064,0,3.277-1.815,3.277-3.808
		v-4.739h1.939v10.109h-1.882v-1.336c0-0.428,0.041-0.744,0.041-0.744h-0.041c-0.421,0.996-1.735,2.319-3.714,2.319
		c-2.271,0-3.453-1.197-3.453-3.882V61.008L401.661,61.008z"/>
	<path style="fill:#00AC92;" d="M413.861,68.496c0,0,1.146,1.185,2.891,1.185c0.85,0,1.686-0.441,1.686-1.26
		c0-1.854-5.194-1.476-5.194-4.777c0-1.829,1.64-2.875,3.654-2.875c2.221,0,3.255,1.122,3.255,1.122l-0.773,1.462
		c0,0-0.9-0.906-2.503-0.906c-0.833,0-1.652,0.365-1.652,1.235c0,1.826,5.193,1.424,5.193,4.739c0,1.676-1.438,2.937-3.665,2.937
		c-2.472,0-3.832-1.475-3.832-1.475L413.861,68.496z"/>
	<path style="fill:#00AC92;" d="M423.104,62.709h-1.312v-1.563h1.375v-2.912h1.88v2.912h2.433v1.563h-2.433v4.487
		c0,2.017,1.421,2.281,2.153,2.281c0.279,0,0.465-0.038,0.465-0.038v1.715c0,0-0.279,0.038-0.679,0.038
		c-1.3,0-3.881-0.403-3.881-3.77L423.104,62.709L423.104,62.709z"/>
	<path style="fill:#00AC92;" d="M434.559,60.768c3.014,0,5.449,2.219,5.449,5.269c0,3.076-2.436,5.319-5.449,5.319
		c-3.02,0-5.456-2.244-5.456-5.319C429.103,62.987,431.539,60.768,434.559,60.768z M434.559,69.68c1.917,0,3.472-1.525,3.472-3.643
		c0-2.092-1.555-3.592-3.472-3.592c-1.901,0-3.478,1.5-3.478,3.592C431.081,68.155,432.655,69.68,434.559,69.68z"/>
	<path style="fill:#00AC92;" d="M442.3,61.008h1.882v1.336c0,0.403-0.04,0.744-0.04,0.744h0.04c0.479-1.185,1.888-2.32,3.466-2.32
		c1.7,0,2.708,0.782,3.049,2.294h0.036c0.56-1.21,1.956-2.294,3.596-2.294c2.269,0,3.338,1.299,3.338,3.871v6.479h-1.94v-6.05
		c0-1.424-0.287-2.534-1.801-2.534c-1.425,0-2.473,1.198-2.835,2.572c-0.103,0.416-0.139,0.882-0.139,1.399v4.614h-1.943v-6.05
		c0-1.323-0.201-2.534-1.752-2.534c-1.478,0-2.513,1.211-2.9,2.647c-0.096,0.403-0.119,0.857-0.119,1.323v4.614H442.3V61.008
		L442.3,61.008z"/>
	<path style="fill:#00AC92;" d="M464.914,60.768c2.854,0,4.373,2.118,4.373,4.739c0,0.253-0.06,0.833-0.06,0.833h-7.375
		c0.104,2.218,1.683,3.34,3.479,3.34c1.733,0,2.998-1.185,2.998-1.185l0.799,1.424c0,0-1.502,1.438-3.922,1.438
		c-3.166,0-5.346-2.294-5.346-5.294C459.86,62.848,462.037,60.768,464.914,60.768z M467.308,64.89
		c-0.062-1.739-1.144-2.583-2.443-2.583c-1.472,0-2.673,0.92-2.95,2.583H467.308z"/>
	<path style="fill:#00AC92;" d="M471.635,61.008h1.883v1.765c0,0.416-0.042,0.756-0.042,0.756h0.042
		c0.457-1.476,1.639-2.635,3.194-2.635c0.256,0,0.501,0.038,0.501,0.038v1.916c0,0-0.26-0.062-0.56-0.062
		c-1.24,0-2.374,0.882-2.839,2.382c-0.179,0.579-0.237,1.197-0.237,1.814v4.135h-1.942V61.008L471.635,61.008z"/>
	<path style="fill:#00AC92;" d="M479.251,68.496c0,0,1.133,1.185,2.896,1.185c0.833,0,1.678-0.441,1.678-1.26
		c0-1.854-5.193-1.476-5.193-4.777c0-1.829,1.639-2.875,3.655-2.875c2.215,0,3.254,1.122,3.254,1.122l-0.782,1.462
		c0,0-0.896-0.906-2.491-0.906c-0.842,0-1.658,0.365-1.658,1.235c0,1.826,5.189,1.424,5.189,4.739c0,1.676-1.439,2.937-3.651,2.937
		c-2.474,0-3.834-1.475-3.834-1.475L479.251,68.496z"/>
	<path style="fill:#00AC92;" d="M493.213,61.008h1.869v1.765c0,0.416-0.035,0.756-0.035,0.756h0.035
		c0.465-1.476,1.64-2.635,3.201-2.635c0.264,0,0.493,0.038,0.493,0.038v1.916c0,0-0.252-0.062-0.557-0.062
		c-1.235,0-2.378,0.882-2.833,2.382c-0.18,0.579-0.242,1.197-0.242,1.814v4.135h-1.932V61.008L493.213,61.008z"/>
	<path style="fill:#00AC92;" d="M504.988,60.768c2.862,0,4.375,2.118,4.375,4.739c0,0.253-0.062,0.833-0.062,0.833h-7.364
		c0.101,2.218,1.678,3.34,3.469,3.34c1.746,0,2.998-1.185,2.998-1.185l0.807,1.424c0,0-1.501,1.438-3.917,1.438
		c-3.179,0-5.358-2.294-5.358-5.294C499.935,62.848,502.114,60.768,504.988,60.768z M507.386,64.89
		c-0.06-1.739-1.133-2.583-2.432-2.583c-1.479,0-2.679,0.92-2.964,2.583H507.386z"/>
	<path style="fill:#00AC92;" d="M516.41,60.768c2.539,0,3.804,1.476,3.804,1.476l-0.927,1.361c0,0-1.072-1.159-2.787-1.159
		c-2.04,0-3.52,1.524-3.52,3.592c0,2.067,1.479,3.643,3.569,3.643c1.887,0,3.123-1.362,3.123-1.362l0.772,1.413
		c0,0-1.389,1.625-4.035,1.625c-3.166,0-5.407-2.256-5.407-5.294C511.003,63.062,513.244,60.768,516.41,60.768z"/>
	<path style="fill:#00AC92;" d="M526.999,60.768c2.86,0,4.374,2.118,4.374,4.739c0,0.253-0.062,0.833-0.062,0.833h-7.366
		c0.103,2.218,1.68,3.34,3.471,3.34c1.74,0,2.999-1.185,2.999-1.185l0.804,1.424c0,0-1.497,1.438-3.917,1.438
		c-3.176,0-5.355-2.294-5.355-5.294C521.945,62.848,524.125,60.768,526.999,60.768z M529.396,64.89
		c-0.063-1.739-1.137-2.583-2.434-2.583c-1.477,0-2.678,0.92-2.962,2.583H529.396z"/>
	<path style="fill:#00AC92;" d="M533.705,57.012h1.966v1.979h-1.966V57.012z M533.731,61.008h1.939v10.109h-1.939V61.008z"/>
	<path style="fill:#00AC92;" d="M537.322,61.008h2.058l2.455,6.832c0.202,0.555,0.327,1.375,0.341,1.375h0.041
		c0.021,0,0.16-0.819,0.362-1.375l2.456-6.832h2.035l-3.735,10.109h-2.237L537.322,61.008z"/>
	<path style="fill:#00AC92;" d="M553.084,60.768c2.858,0,4.371,2.118,4.371,4.739c0,0.253-0.057,0.833-0.057,0.833h-7.37
		c0.098,2.218,1.68,3.34,3.476,3.34c1.733,0,2.994-1.185,2.994-1.185l0.797,1.424c0,0-1.496,1.438-3.912,1.438
		c-3.174,0-5.352-2.294-5.352-5.294C548.031,62.848,550.208,60.768,553.084,60.768z M555.479,64.89
		c-0.057-1.739-1.137-2.583-2.437-2.583c-1.475,0-2.674,0.92-2.954,2.583H555.479z"/>
	<path style="fill:#00AC92;" d="M568.619,73.626c1.76,0,3.195-0.77,3.195-2.836v-0.732c0-0.327,0.022-0.643,0.022-0.643h-0.039
		c-0.601,0.996-1.538,1.576-2.995,1.576c-2.816,0-4.514-2.256-4.514-5.169c0-2.898,1.614-5.054,4.41-5.054
		c2.44,0,3.179,1.5,3.179,1.5h0.036c0,0-0.016-0.139-0.016-0.315v-0.945h1.854v9.693c0,3.328-2.533,4.613-5.089,4.613
		c-1.223,0-2.482-0.34-3.457-0.844l0.64-1.513C565.847,72.957,567.104,73.626,568.619,73.626z M571.854,65.848
		c0-2.646-1.274-3.402-2.852-3.402c-1.756,0-2.762,1.285-2.762,3.339c0,2.093,1.123,3.53,2.938,3.53
		C570.58,69.315,571.854,68.482,571.854,65.848z"/>
	<path style="fill:#00AC92;" d="M581.5,60.768c3.021,0,5.452,2.219,5.452,5.269c0,3.076-2.432,5.319-5.452,5.319
		c-3.019,0-5.451-2.244-5.451-5.319C576.049,62.987,578.481,60.768,581.5,60.768z M581.5,69.68c1.919,0,3.475-1.525,3.475-3.643
		c0-2.092-1.556-3.592-3.475-3.592c-1.895,0-3.472,1.5-3.472,3.592C578.028,68.155,579.605,69.68,581.5,69.68z"/>
	<path style="fill:#00AC92;" d="M593.963,60.768c3.016,0,5.452,2.219,5.452,5.269c0,3.076-2.437,5.319-5.452,5.319
		c-3.013,0-5.451-2.244-5.451-5.319C588.514,62.987,590.951,60.768,593.963,60.768z M593.963,69.68c1.916,0,3.478-1.525,3.478-3.643
		c0-2.092-1.562-3.592-3.478-3.592c-1.896,0-3.472,1.5-3.472,3.592C590.491,68.155,592.066,69.68,593.963,69.68z"/>
	<path style="fill:#00AC92;" d="M605.625,60.768c2.341,0,3.119,1.601,3.119,1.601h0.035c0,0-0.035-0.302-0.035-0.68v-4.677h1.932
		v14.105h-1.836v-0.958c0-0.403,0.023-0.681,0.023-0.681h-0.041c0,0-0.819,1.878-3.313,1.878c-2.734,0-4.449-2.156-4.449-5.294
		C601.056,62.848,602.948,60.768,605.625,60.768z M605.885,69.68c1.501,0,2.915-1.059,2.915-3.643c0-1.79-0.938-3.592-2.854-3.592
		c-1.597,0-2.917,1.323-2.917,3.617C603.029,68.255,604.211,69.68,605.885,69.68z"/>
	<path style="fill:#00AC92;" d="M618.971,68.496c0,0,1.133,1.185,2.894,1.185c0.839,0,1.678-0.441,1.678-1.26
		c0-1.854-5.191-1.476-5.191-4.777c0-1.829,1.637-2.875,3.655-2.875c2.213,0,3.256,1.122,3.256,1.122l-0.783,1.462
		c0,0-0.896-0.906-2.493-0.906c-0.84,0-1.66,0.365-1.66,1.235c0,1.826,5.196,1.424,5.196,4.739c0,1.676-1.445,2.937-3.657,2.937
		c-2.476,0-3.833-1.475-3.833-1.475L618.971,68.496z"/>
	<path style="fill:#00AC92;" d="M632.148,60.768c2.854,0,4.375,2.118,4.375,4.739c0,0.253-0.058,0.833-0.058,0.833h-7.371
		c0.098,2.218,1.676,3.34,3.477,3.34c1.736,0,2.993-1.185,2.993-1.185l0.801,1.424c0,0-1.499,1.438-3.916,1.438
		c-3.177,0-5.349-2.294-5.349-5.294C627.097,62.848,629.272,60.768,632.148,60.768z M634.547,64.89
		c-0.058-1.739-1.14-2.583-2.438-2.583c-1.479,0-2.673,0.92-2.953,2.583H634.547z"/>
	<path style="fill:#00AC92;" d="M638.878,61.008h1.879v1.765c0,0.416-0.039,0.756-0.039,0.756h0.039
		c0.462-1.476,1.636-2.635,3.196-2.635c0.257,0,0.498,0.038,0.498,0.038v1.916c0,0-0.256-0.062-0.558-0.062
		c-1.239,0-2.382,0.882-2.835,2.382c-0.182,0.579-0.243,1.197-0.243,1.814v4.135h-1.938V61.008z"/>
	<path style="fill:#00AC92;" d="M644.989,61.008h2.057l2.456,6.832c0.202,0.555,0.322,1.375,0.342,1.375h0.039
		c0.021,0,0.159-0.819,0.359-1.375l2.458-6.832h2.036l-3.734,10.109h-2.236L644.989,61.008z"/>
	<path style="fill:#00AC92;" d="M656.375,57.012h1.959v1.979h-1.959V57.012z M656.395,61.008h1.939v10.109h-1.939V61.008z"/>
	<path style="fill:#00AC92;" d="M666.062,60.768c2.534,0,3.792,1.476,3.792,1.476l-0.918,1.361c0,0-1.079-1.159-2.794-1.159
		c-2.041,0-3.518,1.524-3.518,3.592c0,2.067,1.477,3.643,3.577,3.643c1.875,0,3.112-1.362,3.112-1.362l0.779,1.413
		c0,0-1.395,1.625-4.031,1.625c-3.176,0-5.417-2.256-5.417-5.294C660.646,63.062,662.887,60.768,666.062,60.768z"/>
	<path style="fill:#00AC92;" d="M676.645,60.768c2.854,0,4.375,2.118,4.375,4.739c0,0.253-0.058,0.833-0.058,0.833h-7.369
		c0.097,2.218,1.676,3.34,3.474,3.34c1.733,0,2.993-1.185,2.993-1.185l0.802,1.424c0,0-1.499,1.438-3.914,1.438
		c-3.178,0-5.352-2.294-5.352-5.294C671.592,62.848,673.769,60.768,676.645,60.768z M679.041,64.89
		c-0.058-1.739-1.137-2.583-2.437-2.583c-1.48,0-2.673,0.92-2.956,2.583H679.041z"/>
	<path style="fill:#00AC92;" d="M683.639,69.012h1.975l-1.677,4.122h-1.537L683.639,69.012z"/>
	<path style="fill:#00AC92;" d="M332.062,88.824h-1.32v-1.563h1.379v-2.912h1.879v2.912h2.435v1.563h-2.435v4.488
		c0,2.017,1.42,2.281,2.154,2.281c0.28,0,0.461-0.038,0.461-0.038v1.714c0,0-0.278,0.038-0.68,0.038
		c-1.298,0-3.873-0.392-3.873-3.769V88.824z"/>
	<path style="fill:#00AC92;" d="M338.79,83.127h1.936v5.181c0,0.479-0.038,0.832-0.038,0.832h0.038
		c0.441-0.971,1.717-2.256,3.736-2.256c2.376,0,3.475,1.298,3.475,3.882v6.466h-1.939v-6.037c0-1.413-0.296-2.535-1.916-2.535
		c-1.518,0-2.774,1.046-3.191,2.496c-0.121,0.403-0.164,0.857-0.164,1.336v4.739h-1.936V83.127L338.79,83.127z"/>
	<path style="fill:#00AC92;" d="M355.189,86.883c2.854,0,4.371,2.118,4.371,4.739c0,0.252-0.059,0.833-0.059,0.833h-7.371
		c0.102,2.218,1.678,3.34,3.477,3.34c1.734,0,2.992-1.185,2.992-1.185l0.798,1.424c0,0-1.495,1.438-3.912,1.438
		c-3.176,0-5.35-2.293-5.35-5.293C350.136,88.963,352.31,86.883,355.189,86.883z M357.586,91.005
		c-0.062-1.739-1.143-2.584-2.441-2.584c-1.475,0-2.674,0.92-2.952,2.584H357.586z"/>
	<path style="fill:#00AC92;" d="M361.178,99.325c0,0,0.559,0.427,1.178,0.427c0.779,0,1.438-0.566,1.816-1.486l0.502-1.16
		l-4.234-9.983h2.174l2.538,6.617c0.196,0.517,0.38,1.211,0.38,1.211h0.039c0,0,0.161-0.681,0.34-1.198l2.457-6.63h2.097
		l-4.732,11.924c-0.618,1.562-1.854,2.382-3.275,2.382c-1.142,0-1.957-0.624-1.957-0.624L361.178,99.325z"/>
	<path style="fill:#00AC92;" d="M377.652,88.824h-1.317v-1.563h1.378v-2.912h1.883v2.912h2.43v1.563h-2.43v4.488
		c0,2.017,1.411,2.281,2.15,2.281c0.279,0,0.462-0.038,0.462-0.038v1.714c0,0-0.277,0.038-0.68,0.038
		c-1.299,0-3.876-0.392-3.876-3.769V88.824z"/>
	<path style="fill:#00AC92;" d="M388.736,86.883c2.855,0,4.372,2.118,4.372,4.739c0,0.252-0.058,0.833-0.058,0.833h-7.364
		c0.095,2.218,1.671,3.34,3.474,3.34c1.734,0,2.99-1.185,2.99-1.185l0.802,1.424c0,0-1.499,1.438-3.912,1.438
		c-3.18,0-5.357-2.293-5.357-5.293C383.683,88.963,385.86,86.883,388.736,86.883z M391.134,91.005
		c-0.054-1.739-1.136-2.584-2.434-2.584c-1.482,0-2.673,0.92-2.952,2.584H391.134z"/>
	<path style="fill:#00AC92;" d="M395.347,83.127h1.938v11.005c0,1.222,0.479,1.437,1.076,1.437c0.184,0,0.34-0.013,0.34-0.013v1.714
		c0,0-0.295,0.038-0.636,0.038c-1.097,0-2.718-0.291-2.718-2.835V83.127z"/>
	<path style="fill:#00AC92;" d="M400.643,83.127h1.937v11.005c0,1.222,0.479,1.437,1.083,1.437c0.172,0,0.341-0.013,0.341-0.013
		v1.714c0,0-0.311,0.038-0.649,0.038c-1.098,0-2.711-0.291-2.711-2.835V83.127z"/>
	<path style="fill:#00AC92;" d="M410.786,95.518h3.114v-9.113c0-0.441,0.023-0.872,0.023-0.872h-0.046c0,0-0.154,0.316-0.677,0.81
		l-1.317,1.297l-1.194-1.235l3.374-3.278h1.765v12.391h3.073v1.714h-8.113v-1.714H410.786z"/>
	<path style="fill:#00AC92;" d="M420.692,90.161c0-4.059,1.223-7.273,4.979-7.273c3.77,0,4.99,3.214,4.99,7.273
		c0,4.072-1.221,7.311-4.99,7.311C421.915,97.471,420.692,94.232,420.692,90.161z M428.636,90.161c0-3.051-0.655-5.447-2.964-5.447
		c-2.306,0-2.964,2.396-2.964,5.447c0,3.076,0.658,5.496,2.964,5.496C427.98,95.656,428.636,93.237,428.636,90.161z"/>
	<path style="fill:#00AC92;" d="M433.714,90.678h5.838v1.726h-5.838V90.678z"/>
	<path style="fill:#00AC92;" d="M442.452,95.518h3.125v-9.113c0-0.441,0.013-0.872,0.013-0.872h-0.029c0,0-0.17,0.316-0.677,0.81
		l-1.32,1.297l-1.201-1.235l3.367-3.278h1.767v12.391h3.075v1.714h-8.11v-1.714H442.452z"/>
	<path style="fill:#00AC92;" d="M452.208,96.149c0-5.03,6.908-5.749,6.908-9.064c0-1.399-1.056-2.333-2.534-2.333
		c-1.854,0-2.86,1.791-2.86,1.791l-1.45-0.971c0,0,1.277-2.684,4.45-2.684c2.597,0,4.45,1.625,4.45,4.058
		c0,4.638-6.722,5.358-6.771,8.572h6.994v1.714h-9.088C452.249,96.854,452.208,96.489,452.208,96.149z"/>
	<path style="fill:#00AC92;" d="M469.178,87.123h1.777v0.857c0,0.403-0.031,0.743-0.031,0.743h0.031c0,0,0.866-1.84,3.401-1.84
		c2.72,0,4.436,2.156,4.436,5.294c0,3.214-1.938,5.293-4.575,5.293c-2.217,0-3.099-1.663-3.099-1.663h-0.04
		c0,0,0.04,0.366,0.04,0.882v4.537h-1.943V87.123H469.178z M473.918,95.808c1.599,0,2.91-1.311,2.91-3.607
		c0-2.205-1.174-3.617-2.854-3.617c-1.521,0-2.91,1.059-2.91,3.631C471.064,94.018,472.055,95.808,473.918,95.808z"/>
	<path style="fill:#00AC92;" d="M485.515,86.883c2.859,0,4.375,2.118,4.375,4.739c0,0.252-0.053,0.833-0.053,0.833h-7.372
		c0.098,2.218,1.676,3.34,3.477,3.34c1.739,0,2.989-1.185,2.989-1.185l0.805,1.424c0,0-1.499,1.438-3.913,1.438
		c-3.182,0-5.355-2.293-5.355-5.293C480.464,88.963,482.64,86.883,485.515,86.883z M487.912,91.005
		c-0.057-1.739-1.133-2.584-2.432-2.584c-1.481,0-2.676,0.92-2.957,2.584H487.912z"/>
	<path style="fill:#00AC92;" d="M496.961,86.883c3.021,0,5.456,2.219,5.456,5.28c0,3.066-2.435,5.308-5.456,5.308
		c-3.013,0-5.448-2.242-5.448-5.308C491.513,89.102,493.948,86.883,496.961,86.883z M496.961,95.795c1.92,0,3.479-1.525,3.479-3.632
		c0-2.104-1.559-3.604-3.479-3.604c-1.894,0-3.471,1.5-3.471,3.604C493.49,94.271,495.067,95.795,496.961,95.795z"/>
	<path style="fill:#00AC92;" d="M504.712,87.123h1.776v0.857c0,0.403-0.035,0.743-0.035,0.743h0.035c0,0,0.859-1.84,3.398-1.84
		c2.717,0,4.434,2.156,4.434,5.294c0,3.214-1.943,5.293-4.576,5.293c-2.222,0-3.1-1.663-3.1-1.663h-0.031
		c0,0,0.031,0.366,0.031,0.882v4.537h-1.935V87.123H504.712z M509.44,95.808c1.603,0,2.92-1.311,2.92-3.607
		c0-2.205-1.179-3.617-2.859-3.617c-1.513,0-2.91,1.059-2.91,3.631C506.591,94.018,507.585,95.808,509.44,95.808z"/>
	<path style="fill:#00AC92;" d="M516.575,83.127h1.938v11.005c0,1.222,0.479,1.437,1.075,1.437c0.177,0,0.34-0.013,0.34-0.013v1.714
		c0,0-0.3,0.038-0.644,0.038c-1.098,0-2.709-0.291-2.709-2.835V83.127z"/>
	<path style="fill:#00AC92;" d="M526.343,86.883c2.849,0,4.375,2.118,4.375,4.739c0,0.252-0.061,0.833-0.061,0.833h-7.368
		c0.092,2.218,1.668,3.34,3.473,3.34c1.736,0,2.993-1.185,2.993-1.185l0.799,1.424c0,0-1.499,1.438-3.911,1.438
		c-3.177,0-5.351-2.293-5.351-5.293C521.29,88.963,523.466,86.883,526.343,86.883z M528.739,91.005
		c-0.063-1.739-1.14-2.584-2.437-2.584c-1.484,0-2.68,0.92-2.959,2.584H528.739z"/>
	<path style="fill:#00AC92;" d="M533.33,95.139h1.979l-1.681,4.11h-1.534L533.33,95.139z"/>
	<path style="fill:#00AC92;" d="M548.009,86.883c3.017,0,5.45,2.219,5.45,5.28c0,3.066-2.434,5.308-5.45,5.308
		c-3.019,0-5.454-2.242-5.454-5.308C542.557,89.102,544.99,86.883,548.009,86.883z M548.009,95.795c1.918,0,3.472-1.525,3.472-3.632
		c0-2.104-1.554-3.604-3.472-3.604c-1.899,0-3.475,1.5-3.475,3.604C544.535,94.271,546.109,95.795,548.009,95.795z"/>
	<path style="fill:#00AC92;" d="M555.76,87.123h1.871v1.336c0,0.403-0.037,0.743-0.037,0.743h0.037
		c0.402-0.882,1.602-2.319,3.802-2.319c2.377,0,3.474,1.298,3.474,3.882v6.466h-1.943v-6.037c0-1.413-0.291-2.535-1.916-2.535
		c-1.536,0-2.771,1.021-3.189,2.483c-0.123,0.392-0.163,0.857-0.163,1.35v4.739h-1.935V87.123L555.76,87.123z"/>
	<path style="fill:#00AC92;" d="M578.203,90.917h0.443v-0.176c0-1.652-0.939-2.218-2.221-2.218c-1.556,0-2.813,0.982-2.813,0.982
		l-0.8-1.424c0,0,1.459-1.198,3.778-1.198c2.556,0,3.994,1.399,3.994,3.958v6.391h-1.8v-0.958c0-0.466,0.037-0.803,0.037-0.803
		h-0.037c0,0-0.82,2-3.236,2c-1.736,0-3.434-1.058-3.434-3.075C572.114,91.056,576.506,90.917,578.203,90.917z M575.972,95.909
		c1.636,0,2.694-1.714,2.694-3.214v-0.315h-0.498c-1.464,0-4.097,0.101-4.097,1.916C574.07,95.115,574.71,95.909,575.972,95.909z"/>
	<path style="fill:#00AC92;" d="M582.099,87.123h2.056l2.457,6.832c0.201,0.555,0.326,1.374,0.341,1.374h0.038
		c0.024,0,0.162-0.819,0.364-1.374l2.456-6.832h2.034l-3.734,10.109h-2.235L582.099,87.123z"/>
	<path style="fill:#00AC92;" d="M597.859,86.883c2.854,0,4.373,2.118,4.373,4.739c0,0.252-0.061,0.833-0.061,0.833h-7.369
		c0.101,2.218,1.681,3.34,3.477,3.34c1.734,0,2.996-1.185,2.996-1.185l0.795,1.424c0,0-1.494,1.438-3.912,1.438
		c-3.174,0-5.354-2.293-5.354-5.293C592.802,88.963,594.983,86.883,597.859,86.883z M600.252,91.005
		c-0.056-1.739-1.137-2.584-2.436-2.584c-1.479,0-2.674,0.92-2.955,2.584H600.252z"/>
	<path style="fill:#00AC92;" d="M604.587,87.123h1.879v1.764c0,0.416-0.039,0.757-0.039,0.757h0.039
		c0.456-1.476,1.64-2.635,3.194-2.635c0.26,0,0.5,0.039,0.5,0.039v1.916c0,0-0.258-0.062-0.556-0.062
		c-1.243,0-2.382,0.882-2.839,2.382c-0.184,0.58-0.237,1.197-0.237,1.815v4.134h-1.941V87.123z"/>
	<path style="fill:#00AC92;" d="M617.35,90.917h0.435v-0.176c0-1.652-0.932-2.218-2.212-2.218c-1.561,0-2.814,0.982-2.814,0.982
		l-0.802-1.424c0,0,1.456-1.198,3.772-1.198c2.561,0,3.999,1.399,3.999,3.958v6.391h-1.804v-0.958c0-0.466,0.045-0.803,0.045-0.803
		h-0.045c0,0-0.814,2-3.229,2c-1.736,0-3.438-1.058-3.438-3.075C611.258,91.056,615.652,90.917,617.35,90.917z M615.111,95.909
		c1.638,0,2.701-1.714,2.701-3.214v-0.315h-0.505c-1.454,0-4.092,0.101-4.092,1.916C613.216,95.115,613.855,95.909,615.111,95.909z"
		/>
	<path style="fill:#00AC92;" d="M626.297,99.752c1.761,0,3.196-0.78,3.196-2.836v-0.742c0-0.315,0.017-0.643,0.017-0.643h-0.038
		c-0.598,0.996-1.536,1.575-2.993,1.575c-2.818,0-4.518-2.256-4.518-5.168c0-2.899,1.621-5.055,4.415-5.055
		c2.439,0,3.172,1.5,3.172,1.5h0.045c0,0-0.021-0.139-0.021-0.315v-0.945h1.854v9.693c0,3.329-2.533,4.614-5.092,4.614
		c-1.216,0-2.476-0.341-3.454-0.845l0.64-1.513C623.521,99.072,624.781,99.752,626.297,99.752z M629.532,91.963
		c0-2.635-1.276-3.403-2.858-3.403c-1.753,0-2.754,1.285-2.754,3.34c0,2.093,1.119,3.53,2.938,3.53
		C628.256,95.43,629.532,94.598,629.532,91.963z"/>
	<path style="fill:#00AC92;" d="M638.819,86.883c2.856,0,4.373,2.118,4.373,4.739c0,0.252-0.06,0.833-0.06,0.833h-7.371
		c0.104,2.218,1.678,3.34,3.477,3.34c1.739,0,2.994-1.185,2.994-1.185l0.805,1.424c0,0-1.5,1.438-3.918,1.438
		c-3.176,0-5.352-2.293-5.352-5.293C633.768,88.963,635.943,86.883,638.819,86.883z M641.216,91.005
		c-0.062-1.739-1.143-2.584-2.44-2.584c-1.475,0-2.675,0.92-2.954,2.584H641.216z"/>
</g>
<g>
	<path style="fill:#00AC92;" d="M166.195,90.159h7.281V66.376c0-0.922,0.044-1.79,0.044-1.79h-0.086c0,0-0.329,0.688-1.616,1.927
		l-3.461,3.454l-2.024-2.066l7.328-7.281h2.954v29.538h7.144v2.862h-17.562V90.159z"/>
	<path style="fill:#00AC92;" d="M187.859,90.943c0-11.383,16.586-12.855,16.586-21.609c0-3.551-2.671-6.221-6.73-6.221
		c-4.744,0-7.227,4.419-7.227,4.419l-2.398-1.611c0,0,2.949-5.862,9.817-5.862c6.173,0,9.857,4.018,9.857,9.083
		c0,10.874-16.355,12.401-16.408,21.018h16.915v2.861h-20.232C187.901,92.278,187.859,91.59,187.859,90.943z"/>
</g>
<g>
	<path style="fill:#00AC92;" d="M141.745,78.138l-6.647-7.462l1.261-1.261l6.583,7.41l6.573-7.41l1.261,1.261l-6.668,7.462
		l6.668,7.474l-1.261,1.261l-6.573-7.41l-6.583,7.41l-1.261-1.261L141.745,78.138z"/>
</g>
<g id="Shape_5">
	<g>
		<path style="fill:#00AC92;" d="M102.867,89.885l-14.135-3.892v-4.148c4.147-3.075,6.915-8.443,6.915-14.559
			c0-9.532-6.702-17.288-14.941-17.288c-8.239,0-14.94,7.755-14.94,17.288c0,6.061,2.715,11.396,6.814,14.49v4.216l-14.223,3.921
			c-3.207,1.137-5.36,4.186-5.36,7.592v7.799h55.307v-7.799C108.304,94.1,106.152,91.052,102.867,89.885z M80.706,52.298
			c5.48,0,10.153,4.184,11.896,9.98c-0.471,0.459-1.101,0.669-1.949,0.643c-2.352-0.081-5.408-2.046-6.692-4.276l-1.065-1.872
			l-0.962,1.933c-0.978,1.932-2.632,3.12-4.942,3.518c-3.086,0.52-6.322-0.509-7.728-1.261
			C71.28,55.852,75.646,52.298,80.706,52.298z M68.065,67.287c0-1.425,0.176-2.792,0.486-4.093c2.14,1.032,5.655,1.841,8.833,1.295
			c2.371-0.406,4.289-1.504,5.641-3.215c1.919,2.218,4.939,3.86,7.535,3.945c0.087,0.014,0.162,0.015,0.237,0.015
			c0.874,0,1.663-0.188,2.345-0.531c0.116,0.844,0.19,1.7,0.19,2.583c0,8.251-5.659,14.977-12.628,14.977
			C73.736,82.263,68.065,75.538,68.065,67.287z M106.004,103.006H55.31v-5.5c0-2.428,1.538-4.61,3.738-5.4l15.846-4.351V83.21
			c1.785,0.87,3.755,1.353,5.813,1.353c2.022,0,3.958-0.464,5.714-1.313v4.506l15.756,4.322c2.29,0.818,3.828,3.001,3.828,5.428
			L106.004,103.006L106.004,103.006z"/>
	</g>
</g>
<g>
	<path style="fill:#E28442;" d="M165.984,329.807h7.25v-23.771c0-0.925,0.042-1.804,0.042-1.804h-0.084c0,0-0.328,0.687-1.607,1.941
		l-3.445,3.453l-2.018-2.066l7.292-7.293h2.938v29.539h7.114v2.86h-17.481L165.984,329.807L165.984,329.807z"/>
	<path style="fill:#E28442;" d="M188.015,316.451c0-9.306,2.754-16.735,11.157-16.735c8.397,0,11.107,7.43,11.107,16.735
		c0,9.395-2.71,16.766-11.107,16.766C190.77,333.217,188.015,325.846,188.015,316.451z M206.972,316.451
		c0-7.706-1.699-13.734-7.799-13.734c-6.151,0-7.853,6.03-7.853,13.734c0,7.738,1.701,13.772,7.853,13.772
		C205.27,330.224,206.972,324.189,206.972,316.451z"/>
	<path style="fill:#E28442;" d="M216.065,306.13c0-3.499,2.843-6.413,6.426-6.413c3.582,0,6.471,2.914,6.471,6.413
		c0,3.551-2.889,6.403-6.471,6.403C218.908,312.533,216.065,309.678,216.065,306.13z M240.944,300.268h3.255l-24.551,32.399h-3.309
		L240.944,300.268z M226.252,306.13c0-2.076-1.648-3.827-3.762-3.827c-2.114,0-3.721,1.753-3.721,3.827
		c0,2.12,1.606,3.826,3.721,3.826C224.605,309.956,226.252,308.25,226.252,306.13z M238.005,320.418
		c3.583,0,6.472,2.893,6.472,6.442c0,3.505-2.889,6.358-6.472,6.358s-6.426-2.849-6.426-6.358
		C231.58,323.309,234.422,320.418,238.005,320.418z M238.005,330.645c2.114,0,3.763-1.705,3.763-3.822
		c0-2.083-1.648-3.822-3.763-3.822c-2.115,0-3.671,1.74-3.671,3.822C234.334,328.939,235.891,330.645,238.005,330.645z"/>
</g>
<g>
	<path style="fill:#E28442;" d="M136.885,316.908h7.068v-7.837h1.872v7.837h7.041v1.787h-7.041v7.824h-1.872v-7.824h-7.068V316.908z
		"/>
</g>
<g id="Shape_6_copy">
	<g>
		<path style="fill:#E28442;" d="M116.361,285.495h-9.205c-0.611,0-1.148,0.417-1.288,1.02l-3.479,14.78H55.837
			c-0.417,0-0.82,0.203-1.064,0.546c-0.244,0.344-0.312,0.795-0.176,1.2l7.895,23.691c0.176,0.539,0.681,0.91,1.242,0.91h32.469
			l-0.618,2.628H67.687c-2.904,0-5.264,2.369-5.264,5.268c0,2.914,2.359,5.266,5.264,5.266c2.903,0,5.262-2.352,5.262-5.266
			c0-0.962-0.277-1.853-0.739-2.625h19.886c-0.45,0.772-0.728,1.663-0.728,2.625c0,2.914,2.36,5.266,5.262,5.266
			c2.904,0,5.263-2.352,5.263-5.266c0-2.338-1.556-4.311-3.673-4.993l0.846-3.572c0.108-0.196,0.197-0.405,0.197-0.656
			c0-0.021-0.023-0.054-0.024-0.083l8.955-38.095h8.167c0.724,0,1.321-0.597,1.321-1.331
			C117.683,286.093,117.085,285.495,116.361,285.495z M64.683,325.006L57.67,303.94h44.102l-4.954,21.065H64.683z M70.317,335.538
			c0,1.451-1.187,2.644-2.631,2.644c-1.458,0-2.632-1.192-2.632-2.644c0-1.447,1.174-2.625,2.632-2.625
			C69.13,332.913,70.317,334.091,70.317,335.538z M99.263,335.538c0,1.451-1.186,2.644-2.632,2.644c-1.457,0-2.63-1.192-2.63-2.644
			c0-1.447,1.174-2.625,2.63-2.625C98.077,332.913,99.263,334.091,99.263,335.538z"/>
	</g>
</g>
<g>
	<path style="fill:#C972B9;" d="M171.627,188.548c-2.293-1.532-3.996-3.515-3.996-6.602c0-4.188,3.212-8.202,9.734-8.202
		c6.013,0,9.865,3.363,9.865,8.442c0,4.602-3.578,8.375-3.947,8.757c2.663,1.516,4.681,3.582,4.681,6.963
		c0,5.066-4.45,9.341-10.695,9.341c-5.823,0-10.927-3.725-10.927-9.86C166.346,192.182,170.891,188.992,171.627,188.548z
		 M174.243,189.926c-1.008,0.604-4.635,3.169-4.635,7.323c0,4.377,3.763,7.048,7.663,7.048c3.811,0,7.44-2.617,7.44-6.442
		C184.711,193.664,179.014,192.235,174.243,189.926z M180.668,189.648c0.597-0.551,3.353-3.465,3.353-7.325
		c0-3.464-2.754-5.634-6.654-5.634c-4.132,0-6.522,2.396-6.522,5.307C170.845,186.184,176.034,187.615,180.668,189.648z"/>
	<path style="fill:#C972B9;" d="M193.803,204.625c0-11.389,16.52-12.856,16.52-21.611c0-3.551-2.664-6.222-6.701-6.222
		c-4.724,0-7.207,4.417-7.207,4.417l-2.389-1.608c0,0,2.938-5.857,9.781-5.857c6.147,0,9.826,4.014,9.826,9.08
		c0,10.875-16.297,12.394-16.34,21.015h16.842v2.853h-20.15C193.846,205.97,193.803,205.264,193.803,204.625z"/>
	<path style="fill:#C972B9;" d="M219.553,180.153c0-3.498,2.847-6.409,6.426-6.409c3.583,0,6.474,2.911,6.474,6.409
		c0,3.551-2.892,6.412-6.474,6.412C222.4,186.565,219.553,183.704,219.553,180.153z M244.431,174.296h3.256l-24.551,32.395h-3.308
		L244.431,174.296z M229.741,180.153c0-2.069-1.649-3.826-3.763-3.826c-2.113,0-3.719,1.757-3.719,3.826
		c0,2.12,1.606,3.826,3.719,3.826C228.091,183.979,229.741,182.273,229.741,180.153z M241.493,194.44
		c3.583,0,6.471,2.906,6.471,6.443c0,3.521-2.888,6.363-6.471,6.363c-3.583,0-6.426-2.843-6.426-6.363
		C235.068,197.338,237.91,194.44,241.493,194.44z M241.493,204.678c2.115,0,3.763-1.705,3.763-3.826
		c0-2.089-1.648-3.825-3.763-3.825c-2.114,0-3.67,1.736-3.67,3.825C237.822,202.973,239.379,204.678,241.493,204.678z"/>
</g>
<g>
	<path style="fill:#C972B9;" d="M135.353,190.941h7.065v-7.845h1.869v7.845h7.041v1.779h-7.041v7.824h-1.869v-7.824h-7.065V190.941z
		"/>
</g>
<g id="Shape_6">
	<g>
		<path style="fill:#C462B2;" d="M66.534,187.146c-0.63-0.404-1.48-0.221-1.89,0.408l-5.465,8.442
			c-0.338-4.561,0.746-9.083,3.204-13.041c3.078-4.969,7.911-8.432,13.619-9.777c7.889-1.854,16.127,0.749,21.501,6.785
			c0.506,0.575,1.38,0.614,1.94,0.12c0.57-0.492,0.619-1.362,0.125-1.923c-6.05-6.804-15.312-9.721-24.193-7.643
			c-6.422,1.509-11.865,5.415-15.336,11.003c-2.615,4.232-3.867,9.033-3.66,13.89l-5.973-6.848c-0.493-0.562-1.353-0.627-1.93-0.138
			c-0.574,0.489-0.638,1.358-0.138,1.922l8.987,10.316c0.015,0.021,0.048,0.045,0.076,0.062c0.096,0.083,0.196,0.154,0.306,0.219
			c0.042,0.039,0.081,0.059,0.135,0.071c0.166,0.067,0.337,0.121,0.514,0.121l0,0l0,0c0.033,0,0.065-0.001,0.098-0.003
			c0.008,0,0.014-0.006,0.033-0.007c0.053-0.003,0.117-0.004,0.183-0.036c0.095-0.016,0.164-0.071,0.241-0.098
			c0.065-0.041,0.13-0.054,0.191-0.08c0.141-0.107,0.254-0.217,0.353-0.343c0.021-0.036,0.038-0.043,0.059-0.056l0.009-0.023
			c0-0.01,0.001-0.01,0.001-0.015l7.422-11.438C67.354,188.414,67.175,187.556,66.534,187.146z M113.012,202.385l-7.649-11.318
			c-0.014-0.042-0.051-0.053-0.079-0.095c-0.096-0.101-0.198-0.212-0.315-0.287c-0.057-0.022-0.103-0.061-0.163-0.079
			c-0.125-0.059-0.241-0.086-0.376-0.118c-0.042-0.004-0.078-0.023-0.129-0.026c-0.036-0.002-0.069,0.014-0.106,0.014
			c-0.039,0-0.075-0.011-0.114-0.007c-0.083,0.006-0.134,0.052-0.204,0.065c-0.094,0.018-0.187,0.029-0.264,0.08
			c-0.13,0.066-0.232,0.148-0.331,0.258c-0.023,0.021-0.075,0.031-0.105,0.077l-8.793,10.472c-0.481,0.592-0.409,1.438,0.173,1.918
			c0.582,0.48,1.443,0.408,1.937-0.159l6.476-7.723c-0.428,9.579-7.193,17.967-16.861,20.235
			c-7.406,1.728-15.062-0.399-20.492-5.726c-0.53-0.522-1.406-0.508-1.931,0.016c-0.536,0.535-0.534,1.406,0.01,1.942
			c4.706,4.601,10.897,7.083,17.298,7.083c1.909,0,3.829-0.22,5.741-0.655c10.595-2.506,18.108-11.521,18.936-21.942l5.075,7.513
			c0.255,0.377,0.693,0.592,1.135,0.592c0.269,0,0.523-0.078,0.759-0.229C113.274,203.869,113.435,203.012,113.012,202.385z"/>
	</g>
</g>
<g>
	<path style="fill:#DE9059;" d="M332.038,275.163h5.157c2.571,0,4.429,1.73,4.429,4.405c0,2.691-1.857,4.482-4.429,4.482h-3.179
		v5.208h-1.979V275.163L332.038,275.163z M336.872,282.337c1.698,0,2.736-1.07,2.736-2.769c0-1.682-1.038-2.689-2.717-2.689h-2.875
		v5.458H336.872z"/>
	<path style="fill:#DE9059;" d="M348.115,278.921c2.856,0,4.374,2.119,4.374,4.729c0,0.264-0.06,0.833-0.06,0.833h-7.369
		c0.1,2.229,1.677,3.34,3.477,3.34c1.737,0,2.993-1.173,2.993-1.173l0.801,1.423c0,0-1.499,1.438-3.916,1.438
		c-3.176,0-5.354-2.305-5.354-5.305C343.061,280.989,345.239,278.921,348.115,278.921z M350.511,283.031
		c-0.056-1.729-1.136-2.584-2.435-2.584c-1.479,0-2.674,0.933-2.953,2.584H350.511z"/>
	<path style="fill:#DE9059;" d="M359.561,278.921c3.018,0,5.451,2.208,5.451,5.271c0,3.076-2.434,5.317-5.451,5.317
		c-3.016,0-5.451-2.241-5.451-5.317C354.109,281.129,356.545,278.921,359.561,278.921z M359.561,287.822
		c1.92,0,3.475-1.514,3.475-3.63c0-2.104-1.555-3.605-3.475-3.605c-1.896,0-3.474,1.501-3.474,3.605
		C356.087,286.309,357.664,287.822,359.561,287.822z"/>
	<path style="fill:#DE9059;" d="M367.309,279.15h1.777v0.867c0,0.405-0.04,0.743-0.04,0.743h0.04c0,0,0.857-1.84,3.4-1.84
		c2.71,0,4.427,2.146,4.427,5.283c0,3.215-1.936,5.306-4.571,5.306c-2.218,0-3.098-1.673-3.098-1.673h-0.034
		c0,0,0.034,0.374,0.034,0.88v4.539h-1.936V279.15z M372.041,287.835c1.598,0,2.918-1.312,2.918-3.605
		c0-2.206-1.177-3.608-2.857-3.608c-1.517,0-2.916,1.047-2.916,3.632C369.186,286.044,370.184,287.835,372.041,287.835z"/>
	<path style="fill:#DE9059;" d="M379.17,275.163h1.941v11.007c0,1.221,0.479,1.438,1.076,1.438c0.178,0,0.338-0.014,0.338-0.014
		v1.715c0,0-0.299,0.025-0.639,0.025c-1.098,0-2.717-0.289-2.717-2.824V275.163z"/>
	<path style="fill:#DE9059;" d="M388.935,278.921c2.857,0,4.375,2.119,4.375,4.729c0,0.264-0.059,0.833-0.059,0.833h-7.363
		c0.094,2.229,1.671,3.34,3.469,3.34c1.738,0,2.993-1.173,2.993-1.173l0.802,1.423c0,0-1.498,1.438-3.91,1.438
		c-3.181,0-5.357-2.305-5.357-5.305C383.884,280.989,386.061,278.921,388.935,278.921z M391.331,283.031
		c-0.058-1.729-1.132-2.584-2.43-2.584c-1.481,0-2.675,0.933-2.962,2.584H391.331z"/>
	<path style="fill:#DE9059;" d="M399.628,279.15h2.056l2.094,7.096c0.163,0.527,0.239,1.083,0.256,1.083h0.046
		c0,0,0.093-0.556,0.261-1.083l2.197-7.062h1.777l2.174,7.062c0.158,0.527,0.284,1.083,0.284,1.083h0.03
		c0,0,0.084-0.556,0.247-1.083l2.117-7.096h2.033l-3.256,10.108h-2.13l-2.104-6.493c-0.152-0.506-0.278-1.097-0.278-1.097h-0.04
		c0,0-0.12,0.591-0.284,1.097l-2.071,6.493h-2.164L399.628,279.15z"/>
	<path style="fill:#DE9059;" d="M417.034,275.163h1.958v1.979h-1.958V275.163z M417.062,279.15h1.933v10.108h-1.933V279.15z"/>
	<path style="fill:#DE9059;" d="M421.915,275.163h1.932v11.007c0,1.221,0.479,1.438,1.081,1.438c0.18,0,0.342-0.014,0.342-0.014
		v1.715c0,0-0.301,0.025-0.642,0.025c-1.104,0-2.713-0.289-2.713-2.824V275.163L421.915,275.163z"/>
	<path style="fill:#DE9059;" d="M427.2,275.163h1.942v11.007c0,1.221,0.48,1.438,1.072,1.438c0.186,0,0.339-0.014,0.339-0.014v1.715
		c0,0-0.292,0.025-0.632,0.025c-1.098,0-2.722-0.289-2.722-2.824V275.163z"/>
	<path style="fill:#DE9059;" d="M437.863,286.649c0,0,1.146,1.173,2.903,1.173c0.841,0,1.674-0.43,1.674-1.248
		c0-1.862-5.193-1.487-5.193-4.777c0-1.84,1.638-2.874,3.659-2.874c2.214,0,3.248,1.111,3.248,1.111l-0.77,1.463
		c0,0-0.898-0.908-2.509-0.908c-0.832,0-1.651,0.374-1.651,1.249c0,1.813,5.194,1.41,5.194,4.737c0,1.665-1.438,2.937-3.652,2.937
		c-2.485,0-3.836-1.487-3.836-1.487L437.863,286.649z"/>
	<path style="fill:#DE9059;" d="M446.687,279.15h1.779v0.867c0,0.405-0.03,0.743-0.03,0.743h0.03c0,0,0.868-1.84,3.401-1.84
		c2.724,0,4.438,2.146,4.438,5.283c0,3.215-1.94,5.306-4.577,5.306c-2.215,0-3.094-1.673-3.094-1.673h-0.044
		c0,0,0.044,0.374,0.044,0.88v4.539h-1.948V279.15L446.687,279.15z M451.431,287.835c1.596,0,2.909-1.312,2.909-3.605
		c0-2.206-1.175-3.608-2.853-3.608c-1.522,0-2.911,1.047-2.911,3.632C448.576,286.044,449.568,287.835,451.431,287.835z"/>
	<path style="fill:#DE9059;" d="M463.025,278.921c2.859,0,4.375,2.119,4.375,4.729c0,0.264-0.054,0.833-0.054,0.833h-7.366
		c0.095,2.229,1.671,3.34,3.474,3.34c1.738,0,2.989-1.173,2.989-1.173l0.805,1.423c0,0-1.501,1.438-3.911,1.438
		c-3.185,0-5.358-2.305-5.358-5.305C457.979,280.989,460.15,278.921,463.025,278.921z M465.425,283.031
		c-0.055-1.729-1.131-2.584-2.431-2.584c-1.482,0-2.678,0.933-2.956,2.584H465.425z"/>
	<path style="fill:#DE9059;" d="M469.766,279.15h1.87v1.347c0,0.403-0.032,0.742-0.032,0.742h0.032
		c0.402-0.881,1.603-2.319,3.804-2.319c2.375,0,3.471,1.299,3.471,3.872v6.466h-1.942v-6.026c0-1.425-0.293-2.533-1.916-2.533
		c-1.53,0-2.772,1.02-3.193,2.47c-0.114,0.404-0.161,0.869-0.161,1.362v4.728h-1.932V279.15L469.766,279.15z"/>
	<path style="fill:#DE9059;" d="M485.717,278.921c2.34,0,3.119,1.59,3.119,1.59h0.04c0,0-0.04-0.29-0.04-0.682v-4.664h1.935v14.095
		h-1.84v-0.958c0-0.401,0.027-0.68,0.027-0.68h-0.04c0,0-0.819,1.89-3.313,1.89c-2.74,0-4.457-2.167-4.457-5.306
		C481.142,280.989,483.042,278.921,485.717,278.921z M485.979,287.822c1.501,0,2.915-1.048,2.915-3.63
		c0-1.793-0.936-3.605-2.852-3.605c-1.6,0-2.923,1.333-2.923,3.618C483.119,286.398,484.305,287.822,485.979,287.822z"/>
	<path style="fill:#DE9059;" d="M498.803,279.15h1.937v6.039c0,1.396,0.278,2.508,1.894,2.508c2.059,0,3.278-1.805,3.278-3.797
		v-4.75h1.939v10.109h-1.879v-1.325c0-0.429,0.038-0.741,0.038-0.741h-0.038c-0.423,0.984-1.74,2.318-3.719,2.318
		c-2.272,0-3.45-1.209-3.45-3.882V279.15L498.803,279.15z"/>
	<path style="fill:#DE9059;" d="M510.877,279.15h1.777v0.867c0,0.405-0.029,0.743-0.029,0.743h0.029c0,0,0.868-1.84,3.401-1.84
		c2.718,0,4.437,2.146,4.437,5.283c0,3.215-1.938,5.306-4.577,5.306c-2.215,0-3.096-1.673-3.096-1.673h-0.042
		c0,0,0.042,0.374,0.042,0.88v4.539h-1.944V279.15H510.877z M515.617,287.835c1.597,0,2.91-1.312,2.91-3.605
		c0-2.206-1.174-3.608-2.854-3.608c-1.519,0-2.909,1.047-2.909,3.632C512.764,286.044,513.754,287.835,515.617,287.835z"/>
	<path style="fill:#DE9059;" d="M528.419,280.852h-1.317v-1.562h1.377v-2.901h1.874v2.901h2.441v1.562h-2.441v4.5
		c0,2.006,1.424,2.269,2.157,2.269c0.284,0,0.46-0.026,0.46-0.026v1.717c0,0-0.28,0.024-0.675,0.024c-1.3,0-3.875-0.391-3.875-3.77
		L528.419,280.852L528.419,280.852z"/>
	<path style="fill:#DE9059;" d="M539.857,278.921c3.021,0,5.457,2.208,5.457,5.271c0,3.076-2.437,5.317-5.457,5.317
		c-3.015,0-5.446-2.241-5.446-5.317C534.411,281.129,536.843,278.921,539.857,278.921z M539.857,287.822
		c1.919,0,3.478-1.514,3.478-3.63c0-2.104-1.559-3.605-3.478-3.605c-1.892,0-3.473,1.501-3.473,3.605
		C536.385,286.309,537.964,287.822,539.857,287.822z"/>
	<path style="fill:#DE9059;" d="M552.345,287.544h3.114v-9.102c0-0.451,0.02-0.882,0.02-0.882h-0.042c0,0-0.153,0.326-0.679,0.819
		l-1.312,1.298l-1.199-1.235l3.376-3.279h1.757v12.381h3.077v1.715h-8.109v-1.715H552.345z"/>
	<path style="fill:#DE9059;" d="M562.25,282.199c0-4.069,1.22-7.281,4.973-7.281c3.772,0,4.993,3.215,4.993,7.281
		c0,4.061-1.221,7.311-4.993,7.311C563.47,289.51,562.25,286.26,562.25,282.199z M570.198,282.199c0-3.062-0.66-5.458-2.976-5.458
		c-2.297,0-2.96,2.396-2.96,5.458c0,3.076,0.663,5.483,2.96,5.483C569.538,287.683,570.198,285.275,570.198,282.199z"/>
	<path style="fill:#DE9059;" d="M574.433,277.887c0-1.625,1.339-2.971,3.015-2.971c1.678,0,3.038,1.346,3.038,2.971
		c0,1.639-1.36,2.951-3.038,2.951C575.771,280.838,574.433,279.525,574.433,277.887z M585.514,275.163h1.881l-10.786,14.096h-1.882
		L585.514,275.163z M578.924,277.887c0-0.819-0.641-1.502-1.478-1.502c-0.838,0-1.475,0.682-1.475,1.502
		c0,0.833,0.637,1.464,1.475,1.464C578.283,279.351,578.924,278.72,578.924,277.887z M584.695,283.586
		c1.659,0,3.04,1.349,3.04,2.955c0,1.635-1.381,2.969-3.04,2.969c-1.697,0-3.037-1.332-3.037-2.969
		C581.66,284.935,582.998,283.586,584.695,283.586z M584.695,288.022c0.818,0,1.477-0.632,1.477-1.481
		c0-0.816-0.658-1.496-1.477-1.496c-0.839,0-1.476,0.674-1.476,1.496C583.22,287.391,583.856,288.022,584.695,288.022z"/>
	<path style="fill:#DE9059;" d="M595.32,279.15h1.878v1.347c0,0.403-0.04,0.742-0.04,0.742h0.04
		c0.479-1.188,1.895-2.319,3.475-2.319c1.698,0,2.694,0.77,3.035,2.285h0.042c0.56-1.211,1.959-2.285,3.599-2.285
		c2.27,0,3.329,1.299,3.329,3.872v6.466h-1.934v-6.039c0-1.424-0.283-2.541-1.798-2.541c-1.419,0-2.475,1.193-2.84,2.568
		c-0.097,0.416-0.139,0.882-0.139,1.41v4.603h-1.938v-6.04c0-1.332-0.195-2.541-1.755-2.541c-1.483,0-2.521,1.209-2.897,2.646
		c-0.102,0.403-0.119,0.869-0.119,1.334v4.603h-1.938V279.15L595.32,279.15z"/>
	<path style="fill:#DE9059;" d="M618.289,278.921c3.015,0,5.449,2.208,5.449,5.271c0,3.076-2.435,5.317-5.449,5.317
		c-3.017,0-5.453-2.241-5.453-5.317C612.836,281.129,615.272,278.921,618.289,278.921z M618.289,287.822
		c1.918,0,3.476-1.514,3.476-3.63c0-2.104-1.558-3.605-3.476-3.605c-1.898,0-3.477,1.501-3.477,3.605
		C614.812,286.309,616.391,287.822,618.289,287.822z"/>
	<path style="fill:#DE9059;" d="M626.038,279.15h1.875v1.764c0,0.416-0.038,0.757-0.038,0.757h0.038
		c0.461-1.474,1.635-2.634,3.194-2.634c0.263,0,0.501,0.036,0.501,0.036v1.916c0,0-0.258-0.062-0.562-0.062
		c-1.236,0-2.374,0.881-2.835,2.381c-0.179,0.583-0.242,1.209-0.242,1.826v4.124h-1.932V279.15z"/>
	<path style="fill:#DE9059;" d="M637.815,278.921c2.859,0,4.375,2.119,4.375,4.729c0,0.264-0.054,0.833-0.054,0.833h-7.37
		c0.097,2.229,1.676,3.34,3.477,3.34c1.737,0,2.99-1.173,2.99-1.173l0.803,1.423c0,0-1.499,1.438-3.915,1.438
		c-3.179,0-5.354-2.305-5.354-5.305C632.768,280.989,634.941,278.921,637.815,278.921z M640.218,283.031
		c-0.059-1.729-1.14-2.584-2.437-2.584c-1.479,0-2.674,0.933-2.956,2.584H640.218z"/>
	<path style="fill:#DE9059;" d="M332.178,306.967h-1.257v-1.559h1.257v-0.479c0-3.326,2.518-3.752,3.797-3.752
		c0.438,0,0.741,0.054,0.741,0.054v1.673c0,0-0.2-0.048-0.504-0.048c-0.74,0-2.116,0.242-2.116,2.117v0.435h2.396v1.559h-2.396
		v8.409h-1.918V306.967z"/>
	<path style="fill:#DE9059;" d="M343.062,305.037c3.02,0,5.452,2.208,5.452,5.271c0,3.076-2.433,5.317-5.452,5.317
		c-3.014,0-5.449-2.241-5.449-5.317C337.611,307.245,340.048,305.037,343.062,305.037z M343.062,313.938
		c1.92,0,3.476-1.513,3.476-3.63c0-2.104-1.556-3.604-3.476-3.604c-1.895,0-3.471,1.501-3.471,3.604
		C339.591,312.425,341.167,313.938,343.062,313.938z"/>
	<path style="fill:#DE9059;" d="M350.814,305.266h1.874v1.764c0,0.416-0.039,0.757-0.039,0.757h0.039
		c0.462-1.473,1.637-2.628,3.197-2.628c0.261,0,0.498,0.031,0.498,0.031v1.915c0,0-0.259-0.06-0.56-0.06
		c-1.235,0-2.377,0.879-2.834,2.38c-0.18,0.587-0.241,1.208-0.241,1.825v4.125h-1.935V305.266L350.814,305.266z"/>
	<path style="fill:#DE9059;" d="M363.854,306.967h-1.319v-1.559h1.378v-2.904h1.881v2.904h2.433v1.559h-2.433v4.501
		c0,2.009,1.415,2.268,2.152,2.268c0.28,0,0.461-0.026,0.461-0.026v1.717c0,0-0.278,0.026-0.68,0.026
		c-1.298,0-3.873-0.392-3.873-3.771V306.967z"/>
	<path style="fill:#DE9059;" d="M370.585,301.279h1.935v5.18c0,0.477-0.033,0.834-0.033,0.834h0.033
		c0.446-0.98,1.719-2.257,3.738-2.257c2.377,0,3.479,1.298,3.479,3.872v6.466h-1.943v-6.027c0-1.425-0.299-2.533-1.918-2.533
		c-1.518,0-2.771,1.034-3.197,2.485c-0.114,0.401-0.158,0.867-0.158,1.347v4.729h-1.935V301.279L370.585,301.279z"/>
	<path style="fill:#DE9059;" d="M386.985,305.037c2.85,0,4.374,2.118,4.374,4.728c0,0.264-0.062,0.833-0.062,0.833h-7.373
		c0.1,2.229,1.68,3.34,3.478,3.34c1.733,0,3-1.173,3-1.173l0.791,1.423c0,0-1.496,1.438-3.913,1.438
		c-3.169,0-5.349-2.305-5.349-5.305C381.931,307.104,384.11,305.037,386.985,305.037z M389.381,309.146
		c-0.063-1.729-1.144-2.583-2.44-2.583c-1.479,0-2.676,0.932-2.955,2.583H389.381z"/>
	<path style="fill:#DE9059;" d="M398.963,312.765c0,0,1.145,1.173,2.895,1.173c0.847,0,1.681-0.428,1.681-1.248
		c0-1.854-5.193-1.487-5.193-4.777c0-1.84,1.639-2.873,3.653-2.873c2.221,0,3.257,1.11,3.257,1.11l-0.773,1.462
		c0,0-0.905-0.903-2.504-0.903c-0.836,0-1.654,0.371-1.654,1.246c0,1.812,5.193,1.409,5.193,4.736c0,1.666-1.438,2.938-3.659,2.938
		c-2.477,0-3.836-1.487-3.836-1.487L398.963,312.765z"/>
	<path style="fill:#DE9059;" d="M413.059,309.07h0.449v-0.188c0-1.652-0.944-2.206-2.227-2.206c-1.553,0-2.812,0.971-2.812,0.971
		l-0.796-1.419c0,0,1.461-1.19,3.78-1.19c2.549,0,3.985,1.389,3.985,3.958v6.38h-1.792v-0.959c0-0.453,0.034-0.797,0.034-0.797
		h-0.034c0,0-0.819,2.005-3.239,2.005c-1.737,0-3.437-1.069-3.437-3.076C406.97,309.209,411.366,309.07,413.059,309.07z
		 M410.832,314.062c1.631,0,2.689-1.715,2.689-3.214v-0.327h-0.492c-1.464,0-4.098,0.111-4.098,1.916
		C408.932,313.257,409.566,314.062,410.832,314.062z"/>
	<path style="fill:#DE9059;" d="M418.333,305.266h1.882v1.348c0,0.402-0.047,0.742-0.047,0.742h0.047
		c0.479-1.183,1.898-2.319,3.479-2.319c1.693,0,2.688,0.77,3.028,2.288h0.048c0.555-1.205,1.95-2.288,3.586-2.288
		c2.285,0,3.338,1.298,3.338,3.872v6.466h-1.933v-6.04c0-1.424-0.276-2.539-1.799-2.539c-1.416,0-2.483,1.191-2.838,2.566
		c-0.101,0.418-0.14,0.882-0.14,1.41v4.604h-1.94v-6.041c0-1.326-0.192-2.535-1.755-2.535c-1.483,0-2.519,1.209-2.896,2.649
		c-0.102,0.395-0.117,0.859-0.117,1.325v4.603h-1.946v-10.11H418.333z"/>
	<path style="fill:#DE9059;" d="M440.938,305.037c2.861,0,4.376,2.118,4.376,4.728c0,0.264-0.062,0.833-0.062,0.833h-7.36
		c0.097,2.229,1.674,3.34,3.465,3.34c1.75,0,3-1.173,3-1.173l0.805,1.423c0,0-1.499,1.438-3.917,1.438
		c-3.179,0-5.357-2.305-5.357-5.305C435.885,307.104,438.065,305.037,440.938,305.037z M443.336,309.146
		c-0.057-1.729-1.133-2.583-2.43-2.583c-1.479,0-2.676,0.932-2.966,2.583H443.336z"/>
	<path style="fill:#DE9059;" d="M452.811,305.266h1.776v0.868c0,0.404-0.046,0.743-0.046,0.743h0.046c0,0,0.852-1.84,3.392-1.84
		c2.715,0,4.431,2.148,4.431,5.282c0,3.215-1.932,5.306-4.577,5.306c-2.207,0-3.09-1.661-3.09-1.661h-0.038
		c0,0,0.038,0.362,0.038,0.868v4.545h-1.933L452.811,305.266L452.811,305.266z M457.541,313.954c1.592,0,2.913-1.315,2.913-3.608
		c0-2.203-1.179-3.609-2.852-3.609c-1.521,0-2.923,1.047-2.923,3.633C454.679,312.159,455.687,313.954,457.541,313.954z"/>
	<path style="fill:#DE9059;" d="M464.788,305.266h1.88v1.764c0,0.416-0.039,0.757-0.039,0.757h0.039
		c0.453-1.473,1.636-2.628,3.189-2.628c0.264,0,0.506,0.031,0.506,0.031v1.915c0,0-0.26-0.06-0.566-0.06
		c-1.238,0-2.371,0.879-2.829,2.38c-0.187,0.587-0.245,1.208-0.245,1.825v4.125h-1.935V305.266L464.788,305.266z"/>
	<path style="fill:#DE9059;" d="M476.934,305.037c3.02,0,5.453,2.208,5.453,5.271c0,3.076-2.434,5.317-5.453,5.317
		c-3.016,0-5.452-2.241-5.452-5.317C471.481,307.245,473.918,305.037,476.934,305.037z M476.934,313.938
		c1.916,0,3.478-1.513,3.478-3.63c0-2.104-1.562-3.604-3.478-3.604c-1.896,0-3.474,1.501-3.474,3.604
		C473.46,312.425,475.037,313.938,476.934,313.938z"/>
	<path style="fill:#DE9059;" d="M488.592,305.037c2.345,0,3.122,1.589,3.122,1.589h0.037c0,0-0.037-0.29-0.037-0.681v-4.664h1.932
		v14.095h-1.84v-0.959c0-0.401,0.026-0.68,0.026-0.68h-0.04c0,0-0.819,1.891-3.312,1.891c-2.734,0-4.456-2.168-4.456-5.306
		C484.019,307.104,485.916,305.037,488.592,305.037z M488.854,313.938c1.5,0,2.919-1.047,2.919-3.63c0-1.793-0.94-3.604-2.856-3.604
		c-1.599,0-2.919,1.333-2.919,3.617C485.992,312.518,487.18,313.938,488.854,313.938z"/>
	<path style="fill:#DE9059;" d="M496.546,305.266h1.938v6.045c0,1.391,0.277,2.507,1.895,2.507c2.06,0,3.277-1.81,3.277-3.802
		v-4.748h1.938v10.108h-1.878v-1.326c0-0.424,0.037-0.741,0.037-0.741h-0.037c-0.427,0.992-1.739,2.319-3.718,2.319
		c-2.272,0-3.451-1.21-3.451-3.883V305.266L496.546,305.266z"/>
	<path style="fill:#DE9059;" d="M513.32,305.037c2.534,0,3.795,1.478,3.795,1.478l-0.92,1.348c0,0-1.082-1.159-2.799-1.159
		c-2.039,0-3.51,1.533-3.51,3.604c0,2.055,1.471,3.63,3.572,3.63c1.881,0,3.117-1.36,3.117-1.36l0.778,1.424
		c0,0-1.396,1.624-4.034,1.624c-3.175,0-5.408-2.256-5.408-5.305C507.912,307.328,510.146,305.037,513.32,305.037z"/>
	<path style="fill:#DE9059;" d="M519.966,306.967h-1.312v-1.559h1.373v-2.904h1.882v2.904h2.433v1.559h-2.433v4.501
		c0,2.009,1.414,2.268,2.153,2.268c0.279,0,0.465-0.026,0.465-0.026v1.717c0,0-0.28,0.026-0.682,0.026
		c-1.296,0-3.879-0.392-3.879-3.771V306.967L519.966,306.967z"/>
	<path style="fill:#DE9059;" d="M532.373,306.967h-1.264v-1.559h1.264v-0.479c0-3.326,2.519-3.752,3.791-3.752
		c0.443,0,0.741,0.054,0.741,0.054v1.673c0,0-0.2-0.048-0.497-0.048c-0.737,0-2.115,0.242-2.115,2.117v0.435h2.395v1.559h-2.395
		v8.409h-1.92V306.967z"/>
	<path style="fill:#DE9059;" d="M538.544,305.266h1.881v1.764c0,0.416-0.04,0.757-0.04,0.757h0.04
		c0.453-1.473,1.63-2.628,3.189-2.628c0.262,0,0.502,0.031,0.502,0.031v1.915c0,0-0.261-0.06-0.562-0.06
		c-1.239,0-2.373,0.879-2.833,2.38c-0.184,0.587-0.242,1.208-0.242,1.825v4.125h-1.935V305.266z"/>
	<path style="fill:#DE9059;" d="M550.688,305.037c3.014,0,5.452,2.208,5.452,5.271c0,3.076-2.438,5.317-5.452,5.317
		c-3.015,0-5.449-2.241-5.449-5.317C545.238,307.245,547.673,305.037,550.688,305.037z M550.688,313.938
		c1.916,0,3.478-1.513,3.478-3.63c0-2.104-1.562-3.604-3.478-3.604c-1.895,0-3.474,1.501-3.474,3.604
		C547.214,312.425,548.79,313.938,550.688,313.938z"/>
	<path style="fill:#DE9059;" d="M558.437,305.266h1.877v1.348c0,0.402-0.036,0.742-0.036,0.742h0.036
		c0.482-1.183,1.895-2.319,3.475-2.319c1.695,0,2.696,0.77,3.036,2.288h0.036c0.566-1.205,1.964-2.288,3.601-2.288
		c2.273,0,3.334,1.298,3.334,3.872v6.466h-1.94v-6.04c0-1.424-0.28-2.539-1.793-2.539c-1.424,0-2.477,1.191-2.834,2.566
		c-0.104,0.418-0.142,0.882-0.142,1.41v4.604h-1.942v-6.041c0-1.326-0.2-2.535-1.755-2.535c-1.479,0-2.517,1.209-2.897,2.649
		c-0.097,0.395-0.124,0.859-0.124,1.325v4.603h-1.931V305.266L558.437,305.266z"/>
	<path style="fill:#DE9059;" d="M587.092,309.07h0.441v-0.188c0-1.652-0.936-2.206-2.219-2.206c-1.555,0-2.813,0.971-2.813,0.971
		l-0.802-1.419c0,0,1.459-1.19,3.778-1.19c2.556,0,3.994,1.389,3.994,3.958v6.38h-1.798v-0.959c0-0.453,0.035-0.797,0.035-0.797
		h-0.035c0,0-0.82,2.005-3.238,2.005c-1.734,0-3.434-1.069-3.434-3.076C581,309.209,585.393,309.07,587.092,309.07z M584.86,314.062
		c1.634,0,2.694-1.715,2.694-3.214v-0.327h-0.498c-1.463,0-4.099,0.111-4.099,1.916C582.958,313.257,583.598,314.062,584.86,314.062
		z"/>
	<path style="fill:#DE9059;" d="M602.191,305.037c2.534,0,3.798,1.478,3.798,1.478l-0.925,1.348c0,0-1.073-1.159-2.793-1.159
		c-2.032,0-3.516,1.533-3.516,3.604c0,2.055,1.483,3.63,3.574,3.63c1.882,0,3.115-1.36,3.115-1.36l0.78,1.424
		c0,0-1.396,1.624-4.034,1.624c-3.174,0-5.408-2.256-5.408-5.305C596.78,307.328,599.018,305.037,602.191,305.037z"/>
	<path style="fill:#DE9059;" d="M613.135,305.037c3.015,0,5.457,2.208,5.457,5.271c0,3.076-2.442,5.317-5.457,5.317
		s-5.452-2.241-5.452-5.317C607.683,307.245,610.12,305.037,613.135,305.037z M613.135,313.938c1.915,0,3.478-1.513,3.478-3.63
		c0-2.104-1.562-3.604-3.478-3.604c-1.894,0-3.475,1.501-3.475,3.604C609.66,312.425,611.241,313.938,613.135,313.938z"/>
	<path style="fill:#DE9059;" d="M620.887,305.266h1.875v1.348c0,0.402-0.036,0.742-0.036,0.742h0.036
		c0.479-1.183,1.896-2.319,3.475-2.319c1.699,0,2.695,0.77,3.036,2.288h0.044c0.558-1.205,1.956-2.288,3.595-2.288
		c2.273,0,3.33,1.298,3.33,3.872v6.466h-1.934v-6.04c0-1.424-0.282-2.539-1.796-2.539c-1.418,0-2.479,1.191-2.838,2.566
		c-0.1,0.418-0.142,0.882-0.142,1.41v4.604h-1.938v-6.041c0-1.326-0.2-2.535-1.756-2.535c-1.479,0-2.519,1.209-2.896,2.649
		c-0.102,0.395-0.124,0.859-0.124,1.325v4.603h-1.933L620.887,305.266L620.887,305.266z"/>
	<path style="fill:#DE9059;" d="M639.14,305.266h1.779v0.868c0,0.404-0.042,0.743-0.042,0.743h0.042c0,0,0.855-1.84,3.39-1.84
		c2.721,0,4.437,2.148,4.437,5.282c0,3.215-1.939,5.306-4.576,5.306c-2.216,0-3.092-1.661-3.092-1.661h-0.044
		c0,0,0.044,0.362,0.044,0.868v4.545h-1.938V305.266L639.14,305.266z M643.869,313.954c1.6,0,2.919-1.315,2.919-3.608
		c0-2.203-1.182-3.609-2.854-3.609c-1.519,0-2.918,1.047-2.918,3.633C641.014,312.159,642.017,313.954,643.869,313.954z"/>
	<path style="fill:#DE9059;" d="M655.477,305.037c2.857,0,4.375,2.118,4.375,4.728c0,0.264-0.061,0.833-0.061,0.833h-7.375
		c0.104,2.229,1.685,3.34,3.48,3.34c1.737,0,2.997-1.173,2.997-1.173l0.795,1.423c0,0-1.497,1.438-3.911,1.438
		c-3.174,0-5.353-2.305-5.353-5.305C650.422,307.104,652.599,305.037,655.477,305.037z M657.874,309.146
		c-0.063-1.729-1.14-2.583-2.439-2.583c-1.481,0-2.675,0.932-2.958,2.583H657.874z"/>
	<path style="fill:#DE9059;" d="M662.625,306.967h-1.322v-1.559h1.383v-2.904h1.878v2.904h2.436v1.559h-2.436v4.501
		c0,2.009,1.414,2.268,2.155,2.268c0.28,0,0.459-0.026,0.459-0.026v1.717c0,0-0.278,0.026-0.68,0.026
		c-1.297,0-3.872-0.392-3.872-3.771L662.625,306.967L662.625,306.967z"/>
	<path style="fill:#DE9059;" d="M669.334,301.279h1.957v1.979h-1.957V301.279z M669.358,305.266h1.936v10.109h-1.936V305.266z"/>
	<path style="fill:#DE9059;" d="M674.747,306.967h-1.32v-1.559h1.379v-2.904h1.874v2.904h2.442v1.559h-2.442v4.501
		c0,2.009,1.423,2.268,2.162,2.268c0.28,0,0.458-0.026,0.458-0.026v1.717c0,0-0.28,0.026-0.679,0.026
		c-1.3,0-3.872-0.392-3.872-3.771v-4.714H674.747z"/>
	<path style="fill:#DE9059;" d="M686.193,305.037c3.013,0,5.452,2.208,5.452,5.271c0,3.076-2.439,5.317-5.452,5.317
		c-3.02,0-5.455-2.241-5.455-5.317C680.738,307.245,683.174,305.037,686.193,305.037z M686.193,313.938
		c1.917,0,3.473-1.513,3.473-3.63c0-2.104-1.556-3.604-3.473-3.604c-1.899,0-3.479,1.501-3.479,3.604
		C682.715,312.425,684.293,313.938,686.193,313.938z"/>
	<path style="fill:#DE9059;" d="M693.938,305.266h1.878v1.764c0,0.416-0.038,0.757-0.038,0.757h0.038
		c0.461-1.473,1.639-2.628,3.198-2.628c0.256,0,0.497,0.031,0.497,0.031v1.915c0,0-0.258-0.06-0.557-0.06
		c-1.239,0-2.382,0.879-2.84,2.38c-0.177,0.587-0.235,1.208-0.235,1.825v4.125h-1.941V305.266L693.938,305.266z"/>
	<path style="fill:#DE9059;" d="M332.062,333.081h-1.32v-1.555h1.379v-2.907h1.879v2.907h2.435v1.555h-2.435v4.501
		c0,2.018,1.42,2.269,2.154,2.269c0.28,0,0.461-0.027,0.461-0.027v1.717c0,0-0.278,0.027-0.68,0.027
		c-1.298,0-3.873-0.389-3.873-3.772V333.081z"/>
	<path style="fill:#DE9059;" d="M338.79,327.395h1.936v5.179c0,0.479-0.038,0.834-0.038,0.834h0.038
		c0.441-0.979,1.717-2.257,3.736-2.257c2.376,0,3.475,1.298,3.475,3.876v6.462h-1.939v-6.027c0-1.425-0.296-2.533-1.916-2.533
		c-1.518,0-2.774,1.034-3.191,2.491c-0.121,0.396-0.164,0.862-0.164,1.342v4.728h-1.936V327.395L338.79,327.395z"/>
	<path style="fill:#DE9059;" d="M356.103,335.186h0.442v-0.188c0-1.653-0.938-2.207-2.22-2.207c-1.559,0-2.812,0.972-2.812,0.972
		l-0.801-1.413c0,0,1.458-1.197,3.777-1.197c2.556,0,3.993,1.392,3.993,3.958v6.381h-1.801v-0.959c0-0.451,0.042-0.793,0.042-0.793
		h-0.042c0,0-0.817,2-3.234,2c-1.735,0-3.434-1.068-3.434-3.074C350.014,335.323,354.405,335.186,356.103,335.186z M353.867,340.177
		c1.637,0,2.699-1.715,2.699-3.214v-0.327h-0.501c-1.459,0-4.097,0.112-4.097,1.917
		C351.969,339.371,352.609,340.177,353.867,340.177z"/>
	<path style="fill:#DE9059;" d="M361.736,333.081h-1.318v-1.555h1.375v-2.907h1.883v2.907h2.435v1.555h-2.435v4.501
		c0,2.018,1.414,2.269,2.155,2.269c0.279,0,0.458-0.027,0.458-0.027v1.717c0,0-0.278,0.027-0.679,0.027
		c-1.299,0-3.874-0.389-3.874-3.772V333.081z"/>
	<path style="fill:#DE9059;" d="M378.313,331.151c3.014,0,5.457,2.208,5.457,5.271c0,3.075-2.443,5.316-5.457,5.316
		s-5.454-2.241-5.454-5.316C372.859,333.359,375.3,331.151,378.313,331.151z M378.313,340.053c1.916,0,3.479-1.514,3.479-3.63
		c0-2.102-1.562-3.597-3.479-3.597c-1.898,0-3.476,1.495-3.476,3.597C374.838,338.539,376.415,340.053,378.313,340.053z"/>
	<path style="fill:#DE9059;" d="M393.251,332.941h-4.794v8.548h-1.918v-8.548h-1.256v-1.558h1.256v-0.335
		c0-3.327,2.519-3.751,3.8-3.751c0.434,0,0.741,0.055,0.741,0.055v1.667c0,0-0.199-0.049-0.508-0.049
		c-0.737,0-2.115,0.246-2.115,2.118v0.295h4.794v-0.335c0-3.327,2.514-3.751,3.795-3.751c0.437,0,0.742,0.055,0.742,0.055v1.667
		c0,0-0.201-0.049-0.503-0.049c-0.732,0-2.117,0.246-2.117,2.118v0.295h2.402v1.558h-2.402v8.548h-1.917V332.941z"/>
	<path style="fill:#DE9059;" d="M403.777,331.151c2.853,0,4.373,2.118,4.373,4.728c0,0.265-0.06,0.837-0.06,0.837h-7.365
		c0.093,2.227,1.669,3.337,3.472,3.337c1.736,0,2.993-1.174,2.993-1.174l0.799,1.423c0,0-1.499,1.438-3.91,1.438
		c-3.181,0-5.356-2.304-5.356-5.303C398.723,333.219,400.898,331.151,403.777,331.151z M406.174,335.261
		c-0.057-1.729-1.137-2.576-2.436-2.576c-1.482,0-2.673,0.926-2.953,2.576H406.174z"/>
	<path style="fill:#DE9059;" d="M410.507,331.384h1.879v1.761c0,0.415-0.038,0.756-0.038,0.756h0.038
		c0.458-1.472,1.63-2.624,3.192-2.624c0.263,0,0.499,0.027,0.499,0.027v1.915c0,0-0.257-0.058-0.561-0.058
		c-1.237,0-2.373,0.877-2.829,2.378c-0.185,0.591-0.246,1.209-0.246,1.825v4.125h-1.935V331.384z"/>
	<path style="fill:#DE9059;" d="M418.113,338.879c0,0,1.143,1.174,2.898,1.174c0.843,0,1.678-0.429,1.678-1.248
		c0-1.854-5.194-1.488-5.194-4.778c0-1.839,1.639-2.873,3.665-2.873c2.208,0,3.243,1.111,3.243,1.111l-0.772,1.463
		c0,0-0.896-0.896-2.504-0.896c-0.835,0-1.653,0.361-1.653,1.237c0,1.812,5.193,1.41,5.193,4.736c0,1.668-1.438,2.937-3.655,2.937
		c-2.477,0-3.832-1.487-3.832-1.487L418.113,338.879z"/>
	<path style="fill:#DE9059;" d="M432.078,327.395h1.939v4.611c0,0.506-0.048,0.86-0.048,0.86h0.048c0,0,0.854-1.715,3.229-1.715
		c2.722,0,4.437,2.155,4.437,5.284c0,3.215-1.934,5.304-4.59,5.304c-2.257,0-3.184-1.749-3.184-1.749h-0.03
		c0,0,0.03,0.325,0.03,0.761v0.737h-1.83v-14.094H432.078z M436.816,340.079c1.59,0,2.908-1.326,2.908-3.617
		c0-2.198-1.181-3.61-2.854-3.61c-1.521,0-2.917,1.046-2.917,3.632C433.954,338.273,434.897,340.079,436.816,340.079z"/>
	<path style="fill:#DE9059;" d="M448.411,331.151c2.853,0,4.379,2.118,4.379,4.728c0,0.265-0.062,0.837-0.062,0.837h-7.367
		c0.091,2.227,1.668,3.337,3.472,3.337c1.737,0,2.996-1.174,2.996-1.174l0.796,1.423c0,0-1.5,1.438-3.909,1.438
		c-3.179,0-5.354-2.304-5.354-5.303C443.361,333.219,445.536,331.151,448.411,331.151z M450.813,335.261
		c-0.063-1.729-1.139-2.576-2.437-2.576c-1.487,0-2.674,0.926-2.962,2.576H450.813z"/>
	<path style="fill:#DE9059;" d="M455.562,333.081h-1.312v-1.555h1.374v-2.907h1.875v2.907h2.437v1.555H457.5v4.501
		c0,2.018,1.415,2.269,2.159,2.269c0.277,0,0.458-0.027,0.458-0.027v1.717c0,0-0.279,0.027-0.674,0.027
		c-1.299,0-3.88-0.389-3.88-3.772L455.562,333.081L455.562,333.081z"/>
	<path style="fill:#DE9059;" d="M462.711,333.081h-1.315v-1.555h1.379v-2.907h1.877v2.907h2.438v1.555h-2.438v4.501
		c0,2.018,1.423,2.269,2.157,2.269c0.281,0,0.452-0.027,0.452-0.027v1.717c0,0-0.278,0.027-0.678,0.027
		c-1.295,0-3.868-0.389-3.868-3.772v-4.714H462.711z"/>
	<path style="fill:#DE9059;" d="M473.799,331.151c2.854,0,4.377,2.118,4.377,4.728c0,0.265-0.062,0.837-0.062,0.837h-7.374
		c0.103,2.227,1.683,3.337,3.479,3.337c1.733,0,2.998-1.174,2.998-1.174l0.794,1.423c0,0-1.495,1.438-3.916,1.438
		c-3.171,0-5.347-2.304-5.347-5.303C468.747,333.219,470.924,331.151,473.799,331.151z M476.196,335.261
		c-0.062-1.729-1.145-2.576-2.445-2.576c-1.472,0-2.673,0.926-2.949,2.576H476.196z"/>
	<path style="fill:#DE9059;" d="M480.523,331.384h1.885v1.761c0,0.415-0.047,0.756-0.047,0.756h0.047
		c0.456-1.472,1.633-2.624,3.194-2.624c0.253,0,0.499,0.027,0.499,0.027v1.915c0,0-0.262-0.058-0.561-0.058
		c-1.236,0-2.374,0.877-2.84,2.378c-0.174,0.591-0.236,1.209-0.236,1.825v4.125h-1.941V331.384z"/>
	<path style="fill:#DE9059;" d="M493.269,338.879c0,0,1.133,1.174,2.896,1.174c0.834,0,1.681-0.429,1.681-1.248
		c0-1.854-5.195-1.488-5.195-4.778c0-1.839,1.639-2.873,3.653-2.873c2.22,0,3.257,1.111,3.257,1.111l-0.784,1.463
		c0,0-0.897-0.896-2.488-0.896c-0.84,0-1.66,0.361-1.66,1.237c0,1.812,5.193,1.41,5.193,4.736c0,1.668-1.438,2.937-3.656,2.937
		c-2.474,0-3.832-1.487-3.832-1.487L493.269,338.879z"/>
	<path style="fill:#DE9059;" d="M506.453,331.151c2.849,0,4.373,2.118,4.373,4.728c0,0.265-0.061,0.837-0.061,0.837h-7.368
		c0.093,2.227,1.67,3.337,3.472,3.337c1.737,0,2.998-1.174,2.998-1.174l0.795,1.423c0,0-1.498,1.438-3.909,1.438
		c-3.179,0-5.354-2.304-5.354-5.303C501.398,333.219,503.572,331.151,506.453,331.151z M508.849,335.261
		c-0.062-1.729-1.139-2.576-2.438-2.576c-1.485,0-2.677,0.926-2.958,2.576H508.849z"/>
	<path style="fill:#DE9059;" d="M513.181,331.384h1.876v1.761c0,0.415-0.035,0.756-0.035,0.756h0.035
		c0.458-1.472,1.637-2.624,3.195-2.624c0.264,0,0.503,0.027,0.503,0.027v1.915c0,0-0.263-0.058-0.566-0.058
		c-1.236,0-2.371,0.877-2.829,2.378c-0.186,0.591-0.246,1.209-0.246,1.825v4.125h-1.933V331.384z"/>
	<path style="fill:#DE9059;" d="M519.287,331.384h2.059l2.457,6.828c0.197,0.569,0.321,1.384,0.342,1.384h0.042
		c0.015,0,0.154-0.814,0.354-1.384l2.457-6.828h2.041l-3.741,10.105h-2.23L519.287,331.384z"/>
	<path style="fill:#DE9059;" d="M530.676,327.395h1.956v1.979h-1.956V327.395z M530.691,331.384h1.942v10.105h-1.942V331.384z"/>
	<path style="fill:#DE9059;" d="M540.364,331.151c2.532,0,3.791,1.479,3.791,1.479l-0.919,1.348c0,0-1.074-1.151-2.797-1.151
		c-2.034,0-3.516,1.524-3.516,3.597c0,2.055,1.481,3.63,3.578,3.63c1.875,0,3.112-1.361,3.112-1.361l0.781,1.424
		c0,0-1.4,1.624-4.031,1.624c-3.181,0-5.416-2.256-5.416-5.303C534.945,333.449,537.184,331.151,540.364,331.151z"/>
	<path style="fill:#DE9059;" d="M550.946,331.151c2.853,0,4.376,2.118,4.376,4.728c0,0.265-0.059,0.837-0.059,0.837h-7.375
		c0.099,2.227,1.678,3.337,3.481,3.337c1.736,0,2.992-1.174,2.992-1.174l0.799,1.423c0,0-1.501,1.438-3.91,1.438
		c-3.181,0-5.354-2.304-5.354-5.303C545.894,333.219,548.065,331.151,550.946,331.151z M553.345,335.261
		c-0.061-1.729-1.137-2.576-2.437-2.576c-1.484,0-2.678,0.926-2.958,2.576H553.345z"/>
</g>
</svg>
