<?xml version="1.0" encoding="utf-8"?>
<!-- Generator: Adobe Illustrator 16.0.0, SVG Export Plug-In . SVG Version: 6.00 Build 0)  -->
<!DOCTYPE svg PUBLIC "-//W3C//DTD SVG 1.1//EN" "http://www.w3.org/Graphics/SVG/1.1/DTD/svg11.dtd">
<svg version="1.1" id="Layer_1" xmlns="http://www.w3.org/2000/svg" xmlns:xlink="http://www.w3.org/1999/xlink" x="0px" y="0px"
	 width="1137.064px" height="867.57px" viewBox="-1.715 -0.968 1137.064 867.57"
	 enable-background="new -1.715 -0.968 1137.064 867.57" xml:space="preserve">
<path fill="#EBEBEB" d="M1101.703,0.686c16.014,0,28.994,12.979,28.994,28.992v806.279c0,16.014-12.98,28.992-28.994,28.992H28.931
	c-16.012,0-28.993-12.979-28.993-28.992V29.679c0-16.013,12.981-28.992,28.993-28.992L1101.703,0.686L1101.703,0.686z"/>
<path fill="#D7D7D8" d="M1132.35,29.678v806.279c0,16.898-13.748,30.646-30.646,30.646H28.931
	c-16.898,0-30.646-13.748-30.646-30.646V29.679c0-16.896,13.748-30.646,30.646-30.646h1072.772
	C1118.602-0.967,1132.35,12.782,1132.35,29.678L1132.35,29.678z M1.59,835.957c0,15.076,12.265,27.34,27.341,27.34h1072.772
	c15.076,0,27.342-12.264,27.342-27.34V29.678c0-15.074-12.266-27.34-27.342-27.34H28.931c-15.075,0-27.341,12.266-27.341,27.34
	V835.957L1.59,835.957z"/>
<circle fill="#D7D7D8" cx="1083.109" cy="432.817" r="28.316"/>
<g>
	<path fill="#C2C3C4" d="M1094.332,426.414v12.811c0,2.566-2.09,4.658-4.66,4.658h-13.436c-2.57,0-4.66-2.092-4.66-4.658v-12.811
		c0-2.569,2.09-4.659,4.66-4.659h13.436C1092.242,421.753,1094.332,423.843,1094.332,426.414L1094.332,426.414z M1073.779,439.223
		c0,1.354,1.102,2.455,2.457,2.455h13.436c1.354,0,2.457-1.104,2.457-2.455v-12.811c0-1.354-1.104-2.457-2.457-2.457h-13.436
		c-1.355,0-2.457,1.104-2.457,2.457V439.223L1073.779,439.223z"/>
</g>
</svg>
