<?xml version="1.0" encoding="utf-8"?>
<!-- Generator: Adobe Illustrator 16.0.0, SVG Export Plug-In . SVG Version: 6.00 Build 0)  -->
<!DOCTYPE svg PUBLIC "-//W3C//DTD SVG 1.1//EN" "http://www.w3.org/Graphics/SVG/1.1/DTD/svg11.dtd">
<svg version="1.1" id="Layer_1" xmlns="http://www.w3.org/2000/svg" xmlns:xlink="http://www.w3.org/1999/xlink" x="0px" y="0px"
	 width="867.57px" height="1137.032px" viewBox="0 0 867.57 1137.032" enable-background="new 0 0 867.57 1137.032"
	 xml:space="preserve">
<path opacity="0.3" enable-background="new    " d="M27.334,1131.032h811.103c11.889,0,21.527,1.217,21.527,2.717v0.566
	c0,1.5-9.639,2.717-21.527,2.717H27.334c-11.889,0-21.526-1.217-21.526-2.717v-0.566C5.808,1132.25,15.445,1131.032,27.334,1131.032
	z"/>
<path fill="#424A55" d="M865.917,1103.418c0,16.014-12.982,28.994-28.994,28.994H30.646c-16.013,0-28.993-12.98-28.993-28.994
	V30.646c0-16.012,12.98-28.993,28.993-28.993h806.277c16.012,0,28.994,12.981,28.994,28.993V1103.418z"/>
<path fill="#4D5562" d="M836.923,1134.065H30.646c-16.898,0-30.646-13.748-30.646-30.646V30.646C0,13.748,13.747,0,30.646,0h806.277
	c16.896,0,30.646,13.748,30.646,30.646v1072.772C867.57,1120.317,853.82,1134.065,836.923,1134.065L836.923,1134.065z M30.646,3.305
	c-15.076,0-27.34,12.266-27.34,27.341v1072.772c0,15.076,12.264,27.342,27.34,27.342h806.277c15.074,0,27.342-12.266,27.342-27.342
	V30.646c0-15.075-12.268-27.341-27.342-27.341H30.646L30.646,3.305z"/>
<circle fill="#3F4651" cx="433.785" cy="1084.825" r="28.316"/>
<g>
	<path fill="#4D5562" d="M440.187,1096.047h-12.809c-2.568,0-4.658-2.09-4.658-4.66v-13.436c0-2.57,2.09-4.66,4.658-4.66h12.809
		c2.572,0,4.66,2.09,4.66,4.66v13.436C444.847,1093.958,442.759,1096.047,440.187,1096.047L440.187,1096.047z M427.379,1075.495
		c-1.354,0-2.455,1.102-2.455,2.457v13.436c0,1.354,1.103,2.457,2.455,2.457h12.81c1.354,0,2.455-1.104,2.455-2.457v-13.436
		c0-1.355-1.102-2.457-2.455-2.457H427.379L427.379,1075.495z"/>
</g>
</svg>
