<?xml version="1.0" encoding="utf-8"?>
<!-- Generator: Adobe Illustrator 16.0.0, SVG Export Plug-In . SVG Version: 6.00 Build 0)  -->
<!DOCTYPE svg PUBLIC "-//W3C//DTD SVG 1.1//EN" "http://www.w3.org/Graphics/SVG/1.1/DTD/svg11.dtd">
<svg version="1.1" id="Layer_1" xmlns="http://www.w3.org/2000/svg" xmlns:xlink="http://www.w3.org/1999/xlink" x="0px" y="0px"
	 width="340px" height="70px" viewBox="0 0 340 70" enable-background="new 0 0 340 70" xml:space="preserve">
<g>
	<path fill="#3ED57E" d="M17.867,58.357c-2.365,0.967-3.223-0.644-2.578-2.578c0.643-1.828,2.148-5.91,2.148-5.91l-6.982-7.09
		c0,0-3.976,1.505-5.694,2.148c-1.826,0.753-3.437-0.107-2.47-2.578c5.264-12.675,4.404-14.931,16.005-13.535
		c0,0,13.428-19.443,28.683-17.295c0.322,0,0.645,0.215,0.752,0.323c0.107,0.108,0.215,0.322,0.322,0.752
		c2.041,15.576-16.865,29.329-16.865,29.329C32.476,53.738,30.22,52.879,17.867,58.357z M39.673,26.022
		c1.613-1.718,1.613-4.297,0-6.016c-1.611-1.611-4.189-1.611-5.8,0c-1.612,1.719-1.612,4.297,0,6.016
		C35.484,27.633,38.062,27.633,39.673,26.022z"/>
</g>
<g>
	<path fill="#333333" d="M94.84,26.247h8.775c4.612,0,7.312,2.474,7.312,6.272c0,3.234-1.94,5.174-4.697,5.961l5.316,7.454h-4.079
		l-4.895-6.863h-4.274v6.863H94.84V26.247z M103.362,36.007c2.475,0,4.049-1.295,4.049-3.348c0-2.109-1.518-3.262-4.078-3.262
		h-5.035v6.61H103.362z"/>
	<path fill="#333333" d="M118.233,36.091c0-5.542,4.275-10.182,10.322-10.182c6.047,0,10.266,4.585,10.266,10.182
		c0,5.54-4.275,10.181-10.322,10.181C122.452,46.271,118.233,41.688,118.233,36.091z M135.192,36.091
		c0-3.825-2.784-7.004-6.693-7.004c-3.91,0-6.638,3.123-6.638,7.004c0,3.824,2.784,7.003,6.694,7.003
		C132.464,43.094,135.192,39.972,135.192,36.091z"/>
	<path fill="#333333" d="M146.069,36.091c0-5.597,4.19-10.182,10.152-10.182c3.629,0,5.823,1.266,7.707,3.066l-2.221,2.56
		c-1.576-1.463-3.263-2.447-5.513-2.447c-3.769,0-6.497,3.094-6.497,7.004c0,3.854,2.728,7.003,6.497,7.003
		c2.418,0,3.965-0.986,5.654-2.56l2.221,2.249c-2.054,2.138-4.304,3.488-7.987,3.488C150.343,46.271,146.069,41.8,146.069,36.091z"
		/>
	<path fill="#333333" d="M171.627,26.247h3.459v9.901l9.367-9.901h4.247l-8.184,8.465l8.548,11.223h-4.189l-6.722-8.86l-3.067,3.149
		v5.711h-3.459V26.247z"/>
	<path fill="#333333" d="M195.946,26.247h14.597v3.094h-11.135v5.119h9.871v3.094h-9.871v5.286h11.278v3.095h-14.74V26.247z"/>
	<path fill="#333333" d="M223.562,29.453h-6.245v-3.206h15.976v3.206h-6.244v16.482h-3.486V29.453z"/>
	<path fill="#333333" d="M239.36,26.247h3.74l4.697,14.598l4.838-14.654h2.927l4.835,14.654l4.697-14.598h3.63l-6.862,19.828h-2.982
		l-4.838-14.146l-4.838,14.146h-2.981L239.36,26.247z"/>
	<path fill="#333333" d="M280.637,26.106h3.208l8.661,19.829h-3.654l-1.997-4.754h-9.31l-2.027,4.754h-3.541L280.637,26.106z
		 M285.588,38.115l-3.403-7.875l-3.376,7.875H285.588z"/>
	<path fill="#333333" d="M298.182,43.064l2.08-2.474c1.887,1.63,3.771,2.56,6.217,2.56c2.138,0,3.486-0.986,3.486-2.532
		c0-1.406-0.786-2.165-4.443-3.036c-4.189-0.985-6.554-2.222-6.554-5.908c0-3.375,2.813-5.709,6.722-5.709
		c2.869,0,5.147,0.872,7.145,2.475l-1.856,2.615c-1.771-1.322-3.544-2.024-5.343-2.024c-2.027,0-3.208,1.04-3.208,2.39
		c0,1.52,0.902,2.194,4.67,3.094c4.162,1.013,6.327,2.503,6.327,5.822c0,3.686-2.896,5.878-7.03,5.878
		C303.384,46.215,300.543,45.175,298.182,43.064z"/>
	<path fill="#333333" d="M321.434,26.247h3.459v8.185h9.395v-8.185h3.459v19.688h-3.459v-8.298h-9.395v8.298h-3.459V26.247z"/>
</g>
</svg>
