<?xml version="1.0" encoding="utf-8"?>
<!-- Generator: Adobe Illustrator 16.0.0, SVG Export Plug-In . SVG Version: 6.00 Build 0)  -->
<!DOCTYPE svg PUBLIC "-//W3C//DTD SVG 1.1//EN" "http://www.w3.org/Graphics/SVG/1.1/DTD/svg11.dtd">
<svg version="1.1" id="Layer_1" xmlns="http://www.w3.org/2000/svg" xmlns:xlink="http://www.w3.org/1999/xlink" x="0px" y="0px"
	 width="238px" height="70px" viewBox="0 0 238 70" enable-background="new 0 0 238 70" xml:space="preserve">
<g enable-background="new    ">
	<path d="M104.872,42.424c0.384,0.79,0.912,1.419,1.584,1.888c0.672,0.47,1.466,0.806,2.384,1.009
		c0.917,0.203,1.898,0.304,2.944,0.304c0.597,0,1.248-0.085,1.952-0.256c0.704-0.171,1.36-0.442,1.968-0.816
		c0.608-0.373,1.114-0.853,1.52-1.439c0.405-0.587,0.608-1.296,0.608-2.128c0-0.641-0.144-1.195-0.432-1.664
		c-0.288-0.47-0.662-0.864-1.12-1.185c-0.459-0.319-0.965-0.581-1.52-0.784c-0.555-0.202-1.099-0.367-1.632-0.495l-5.088-1.248
		c-0.662-0.171-1.307-0.385-1.936-0.641c-0.629-0.256-1.179-0.597-1.648-1.023c-0.47-0.427-0.848-0.949-1.136-1.568
		c-0.288-0.618-0.432-1.376-0.432-2.272c0-0.554,0.106-1.204,0.32-1.951c0.213-0.747,0.613-1.451,1.2-2.112
		c0.586-0.661,1.392-1.221,2.416-1.68c1.024-0.459,2.336-0.688,3.936-0.688c1.131,0,2.208,0.149,3.232,0.448
		c1.024,0.299,1.92,0.747,2.688,1.344c0.768,0.598,1.381,1.339,1.84,2.225c0.458,0.885,0.688,1.914,0.688,3.088h-2.176
		c-0.043-0.875-0.24-1.638-0.592-2.288s-0.811-1.194-1.376-1.632c-0.565-0.438-1.216-0.769-1.952-0.992
		c-0.736-0.225-1.509-0.336-2.32-0.336c-0.747,0-1.467,0.08-2.16,0.239c-0.693,0.16-1.301,0.416-1.824,0.769
		c-0.523,0.352-0.944,0.815-1.264,1.392s-0.48,1.291-0.48,2.145c0,0.533,0.09,0.997,0.272,1.392
		c0.181,0.396,0.432,0.731,0.752,1.008c0.32,0.277,0.688,0.502,1.104,0.672c0.416,0.172,0.858,0.31,1.328,0.416l5.568,1.376
		c0.811,0.214,1.573,0.476,2.288,0.784c0.714,0.31,1.344,0.693,1.888,1.152s0.97,1.019,1.28,1.68c0.31,0.662,0.464,1.462,0.464,2.4
		c0,0.256-0.027,0.598-0.08,1.023c-0.053,0.428-0.182,0.881-0.384,1.36c-0.203,0.48-0.491,0.966-0.864,1.456
		c-0.374,0.491-0.886,0.934-1.536,1.328c-0.651,0.395-1.456,0.715-2.416,0.96s-2.112,0.368-3.456,0.368
		c-1.344,0-2.592-0.155-3.744-0.464c-1.152-0.31-2.133-0.784-2.944-1.425c-0.811-0.64-1.435-1.461-1.872-2.464
		c-0.438-1.002-0.624-2.208-0.56-3.615h2.176C104.307,40.653,104.488,41.635,104.872,42.424z"/>
	<path d="M134.6,47v-2.976h-0.064c-0.533,1.109-1.307,1.957-2.319,2.544c-1.014,0.586-2.14,0.88-3.376,0.88
		c-1.046,0-1.936-0.145-2.672-0.433s-1.334-0.698-1.793-1.231s-0.795-1.185-1.008-1.952s-0.319-1.643-0.319-2.624v-10.72h2.016
		V41.24c0.042,1.493,0.39,2.624,1.04,3.392c0.65,0.769,1.776,1.152,3.376,1.152c0.874,0,1.621-0.187,2.24-0.561
		c0.618-0.373,1.13-0.868,1.536-1.487c0.404-0.619,0.703-1.328,0.896-2.128c0.191-0.801,0.287-1.616,0.287-2.448v-8.672h2.016V47
		H134.6z"/>
	<path d="M142.119,30.488v3.136h0.064c0.469-1.152,1.231-2.043,2.287-2.672c1.057-0.629,2.256-0.944,3.601-0.944
		c1.259,0,2.353,0.235,3.28,0.704c0.928,0.47,1.701,1.104,2.32,1.904c0.617,0.8,1.076,1.728,1.375,2.784
		c0.299,1.056,0.448,2.171,0.448,3.344c0,1.174-0.149,2.288-0.448,3.344s-0.758,1.984-1.375,2.784c-0.619,0.8-1.393,1.43-2.32,1.888
		c-0.928,0.459-2.021,0.688-3.28,0.688c-0.598,0-1.194-0.075-1.792-0.225s-1.152-0.373-1.664-0.672
		c-0.512-0.298-0.965-0.672-1.359-1.12c-0.396-0.447-0.699-0.97-0.912-1.567h-0.064v9.216h-2.016V30.488H142.119z M153.176,36.2
		c-0.203-0.843-0.523-1.595-0.961-2.256s-0.997-1.2-1.68-1.616c-0.684-0.416-1.504-0.624-2.464-0.624
		c-1.109,0-2.038,0.192-2.784,0.576c-0.747,0.384-1.344,0.896-1.792,1.536c-0.448,0.64-0.763,1.387-0.944,2.239
		c-0.182,0.854-0.271,1.75-0.271,2.688c0,0.854,0.102,1.701,0.305,2.544c0.201,0.843,0.532,1.595,0.991,2.256
		c0.458,0.661,1.056,1.2,1.792,1.616s1.637,0.624,2.704,0.624c0.96,0,1.78-0.208,2.464-0.624c0.683-0.416,1.242-0.955,1.68-1.616
		s0.758-1.413,0.961-2.256c0.202-0.843,0.304-1.69,0.304-2.544S153.378,37.043,153.176,36.2z"/>
	<path d="M160.119,41.544c0.202,0.779,0.527,1.478,0.976,2.096c0.448,0.619,1.013,1.132,1.696,1.536
		c0.683,0.405,1.504,0.608,2.464,0.608c1.472,0,2.624-0.384,3.456-1.152c0.832-0.768,1.408-1.792,1.729-3.072h2.016
		c-0.428,1.878-1.211,3.328-2.352,4.353c-1.143,1.023-2.758,1.536-4.849,1.536c-1.302,0-2.427-0.229-3.376-0.688
		c-0.949-0.458-1.723-1.088-2.32-1.888s-1.039-1.729-1.328-2.784c-0.287-1.056-0.432-2.17-0.432-3.344
		c0-1.088,0.145-2.154,0.432-3.2c0.289-1.045,0.73-1.979,1.328-2.8s1.371-1.482,2.32-1.984c0.949-0.501,2.074-0.752,3.376-0.752
		c1.323,0,2.453,0.268,3.392,0.8c0.939,0.534,1.701,1.232,2.289,2.097c0.586,0.863,1.008,1.855,1.264,2.976s0.362,2.256,0.32,3.408
		h-12.705C159.814,40.014,159.916,40.766,160.119,41.544z M170.104,35.384c-0.246-0.704-0.593-1.328-1.041-1.872
		c-0.447-0.544-0.992-0.98-1.631-1.312c-0.641-0.331-1.366-0.496-2.177-0.496c-0.832,0-1.567,0.165-2.208,0.496
		s-1.184,0.768-1.632,1.312s-0.806,1.174-1.072,1.889s-0.442,1.445-0.528,2.191h10.688
		C170.481,36.824,170.348,36.088,170.104,35.384z"/>
	<path d="M177.095,30.488v3.872h0.063c0.513-1.345,1.307-2.379,2.385-3.104c1.076-0.725,2.362-1.056,3.855-0.992v2.017
		c-0.917-0.043-1.749,0.08-2.496,0.368c-0.746,0.287-1.392,0.698-1.936,1.231s-0.965,1.168-1.264,1.904
		c-0.299,0.735-0.448,1.541-0.448,2.416V47h-2.017V30.488H177.095z"/>
	<path d="M196.551,24.152v14.144c0,1.323,0.148,2.448,0.447,3.376s0.736,1.686,1.312,2.272s1.279,1.013,2.111,1.279
		c0.832,0.268,1.771,0.4,2.816,0.4c1.066,0,2.016-0.133,2.848-0.4c0.832-0.267,1.537-0.692,2.112-1.279
		c0.576-0.587,1.013-1.345,1.312-2.272s0.449-2.053,0.449-3.376V24.152h2.176v14.624c0,1.173-0.166,2.288-0.496,3.344
		c-0.331,1.056-0.854,1.979-1.568,2.768c-0.715,0.79-1.632,1.414-2.752,1.872c-1.12,0.459-2.48,0.688-4.08,0.688
		c-1.578,0-2.928-0.229-4.048-0.688c-1.12-0.458-2.038-1.082-2.752-1.872c-0.715-0.789-1.237-1.712-1.567-2.768
		c-0.332-1.056-0.496-2.171-0.496-3.344V24.152H196.551z"/>
	<path d="M219.238,32.184V47h-2.016V32.184h-2.816v-1.695h2.816v-1.504c0-0.704,0.053-1.354,0.16-1.952
		c0.105-0.598,0.309-1.109,0.607-1.536s0.709-0.757,1.232-0.992c0.521-0.234,1.188-0.352,2-0.352c0.299,0,0.576,0.011,0.832,0.031
		c0.256,0.021,0.543,0.054,0.863,0.097v1.728c-0.277-0.042-0.533-0.08-0.768-0.111c-0.234-0.032-0.47-0.049-0.704-0.049
		c-0.556,0-0.981,0.086-1.28,0.256c-0.299,0.172-0.518,0.4-0.656,0.688s-0.219,0.624-0.239,1.008
		c-0.021,0.384-0.032,0.8-0.032,1.248v1.44h3.264v1.695H219.238z"/>
	<path d="M226.95,32.184V47h-2.017V32.184h-2.815v-1.695h2.815v-1.504c0-0.704,0.054-1.354,0.16-1.952
		c0.107-0.598,0.31-1.109,0.608-1.536s0.709-0.757,1.231-0.992c0.523-0.234,1.189-0.352,2-0.352c0.299,0,0.576,0.011,0.832,0.031
		c0.257,0.021,0.545,0.054,0.865,0.097v1.728c-0.278-0.042-0.534-0.08-0.769-0.111c-0.235-0.032-0.47-0.049-0.704-0.049
		c-0.555,0-0.981,0.086-1.279,0.256c-0.3,0.172-0.518,0.4-0.656,0.688s-0.219,0.624-0.24,1.008s-0.032,0.8-0.032,1.248v1.44h3.265
		v1.695H226.95z"/>
</g>
<circle fill="#EF4E4F" cx="35" cy="35" r="35"/>
<g>
	<polygon fill="#F9B719" points="41.916,13.196 44.854,8.75 47.488,13.097 54.125,11.09 49.49,20.3 49.452,20.3 39.797,20.3 
		39.76,20.3 35.126,11.09 	"/>
	<path fill="#FDFCEC" d="M68.027,46.611c-1.186-2.742-2.947-6.754-5.289-11.743c-2.106-4.492-5.242-15.285-19.506-15.285
		c-8.484,0-9.15,3.084-10.351,4.284C32.191,24.559,30.422,27,27.213,27c-2.497,0-4.655,0-12.046,0
		c0.583,10-0.575,15.289,10.431,15.289C38.297,42.289,39,50.562,39,53.548c0,2.747,0,14.335,0,16.192
		C53,68.132,63.709,59.016,68.027,46.611z"/>
	<path fill="#53341E" d="M38.334,28.468c0,0.976-0.791,1.766-1.768,1.766c-0.974,0-1.763-0.791-1.763-1.766
		c0-0.974,0.789-1.765,1.763-1.765C37.543,26.703,38.334,27.494,38.334,28.468z"/>
	<path fill="#53341E" d="M15.344,31.752c2.515,0,4.385-2.475,4.385-4.749h-4.562L15.344,31.752z"/>
	<path fill="#53341E" d="M58.449,36.402c0,3.512-2.53,6.358-6.043,6.358c-3.511,0-6.256-2.848-6.256-6.358
		c0-2.918,1.451-5.034,3.309-6.56c1.308-1.073,2.621-1.854,4.072-2.415c2.729-1.053,4.918-1.335,4.918-1.335
		S58.449,32.019,58.449,36.402z"/>
</g>
</svg>
