<?xml version="1.0" encoding="utf-8"?>
<!-- Generator: Adobe Illustrator 16.0.0, SVG Export Plug-In . SVG Version: 6.00 Build 0)  -->
<!DOCTYPE svg PUBLIC "-//W3C//DTD SVG 1.1//EN" "http://www.w3.org/Graphics/SVG/1.1/DTD/svg11.dtd">
<svg version="1.1" id="Layer_1" xmlns="http://www.w3.org/2000/svg" xmlns:xlink="http://www.w3.org/1999/xlink" x="0px" y="0px"
	 width="64px" height="64px" viewBox="0 0 64 64" enable-background="new 0 0 64 64" xml:space="preserve">
<g>
	<path fill="#00C0F3" d="M56.001,22.5c1.103,0,1.999,0.87,1.999,1.94v16.117c0,0.516-0.204,0.998-0.581,1.369
		C57.046,42.296,56.542,42.5,56,42.5c-1.104,0-2-0.872-2-1.943V24.674c0-0.606,0.303-1.325,0.575-1.594
		C54.955,22.706,55.461,22.5,56.001,22.5 M56.001,20.5c-1.104,0-2.104,0.44-2.829,1.155C52.447,22.366,52,23.63,52,24.674v15.883
		c0,2.178,1.79,3.943,4,3.943c1.104,0,2.109-0.441,2.828-1.154C59.555,42.632,60,41.645,60,40.557V24.44
		C60,22.266,58.208,20.5,56.001,20.5L56.001,20.5z"/>
</g>
<path fill="#00C0F3" d="M49.703,18.5H14.1v-1c0-5.48,3.615-9.791,9.433-12.364l0.932-0.377c2.348-0.898,4.844-1.351,7.437-1.351
	c2.625,0,5.157,0.465,7.526,1.383l0.92,0.383c5.779,2.592,9.355,6.884,9.355,12.326V18.5z M16.095,16.504h31.614
	c-0.414-4.244-3.445-7.391-8.117-9.487l-0.873-0.364c-2.126-0.823-4.427-1.245-6.817-1.245c-2.36,0-4.628,0.41-6.741,1.218
	l-0.886,0.359C19.573,9.065,16.51,12.228,16.095,16.504z"/>
<g>
	<path fill="#00C0F3" d="M48.055,22.5v25.207c0,0.857,0.002,1.039-0.281,1.33c-0.104,0.107-0.576,0.463-2.226,0.463H43h-1.945v2v8
		c0,0.998-0.914,1.811-2.055,1.811c-1.137,0-2-0.812-2-1.811v-8v-2h-1.945h-6.108H27v2v8c0,0.998-0.888,1.811-2.027,1.811
		c-1.138,0-2.027-0.812-2.027-1.811v-8v-2H21h-2.544c-2.51,0-2.51-0.295-2.51-2.592V22.5H48.055 M50,20.5L50,20.5L50,20.5L50,20.5z
		 M50,20.5H14v26.408c0,2.337,0,4.592,4.456,4.592H21v8c0,2.104,1.762,3.811,3.973,3.811c2.215,0,3.973-1.709,3.973-3.811v-8h6.107
		v8c0,2.104,1.733,3.811,3.946,3.811c2.218,0,4-1.709,4-3.811v-8h2.548c4.455,0,4.455-2.255,4.451-4.588L50,20.5L50,20.5z"/>
</g>
<g>
	<path fill="#00C0F3" d="M8,22.5c1.103,0,2,0.87,2,1.94v16.117c0,0.514-0.205,0.998-0.577,1.365C9.046,42.295,8.541,42.5,8.003,42.5
		C6.898,42.499,6,41.627,6,40.557V24.44c0-0.512,0.204-0.995,0.58-1.365C6.954,22.704,7.458,22.5,8,22.5 M8,20.5
		c-1.104,0-2.108,0.44-2.829,1.155C4.45,22.366,4,23.355,4,24.44v16.117c0,2.178,1.792,3.941,4.001,3.943
		c1.103,0,2.105-0.441,2.828-1.154C11.55,42.632,12,41.645,12,40.557V24.44C12,22.266,10.207,20.5,8,20.5L8,20.5z"/>
</g>
<g>
	<path fill="#00C0F3" d="M37.928,10.189c-1.066,0-1.928,0.863-1.928,1.926c0,1.064,0.861,1.927,1.928,1.927
		c1.065,0,1.924-0.863,1.924-1.927C39.852,11.052,38.993,10.189,37.928,10.189L37.928,10.189z"/>
</g>
<g>
	<path fill="#00C0F3" d="M25.93,10.189c-1.065,0-1.93,0.863-1.93,1.926c0,1.064,0.863,1.927,1.927,1.927
		c1.066,0,1.931-0.863,1.931-1.927C27.858,11.052,26.995,10.189,25.93,10.189L25.93,10.189z"/>
</g>
<polygon fill="#00C0F3" points="39.832,6.744 38.168,5.635 41.465,-0.5 43.832,-0.445 "/>
<polygon fill="#00C0F3" points="23.168,6.744 19.168,-0.445 21.535,-0.5 24.832,5.635 "/>
</svg>
