<?xml version="1.0" encoding="utf-8"?>
<!-- Generator: Adobe Illustrator 16.0.0, SVG Export Plug-In . SVG Version: 6.00 Build 0)  -->
<!DOCTYPE svg PUBLIC "-//W3C//DTD SVG 1.1//EN" "http://www.w3.org/Graphics/SVG/1.1/DTD/svg11.dtd">
<svg version="1.1" id="Layer_1" xmlns="http://www.w3.org/2000/svg" xmlns:xlink="http://www.w3.org/1999/xlink" x="0px" y="0px"
	 width="55px" height="64px" viewBox="0 0 55 64" enable-background="new 0 0 55 64" xml:space="preserve">
<g id="XMLID_1_">
	<g>
		<path fill="#58595B" d="M54.944,23.84v15.755c0,1.064-0.431,2.029-1.129,2.726c-0.695,0.698-1.662,1.129-2.726,1.129
			c-2.129,0-3.855-1.727-3.855-3.854V23.84c0-1.061,0.431-2.028,1.13-2.723c0.698-0.699,1.661-1.129,2.726-1.129
			C53.217,19.988,54.944,21.714,54.944,23.84z"/>
		<path fill="#58595B" d="M38.12,0.21c0.154-0.223,0.459-0.277,0.678-0.123c0.22,0.149,0.276,0.455,0.122,0.676l-3.217,4.648
			c5.361,2.34,8.993,6.878,8.993,12.093H10.103c0-5.247,3.679-9.81,9.09-12.139l-3.186-4.602c-0.154-0.218-0.097-0.525,0.124-0.676
			c0.218-0.154,0.52-0.1,0.674,0.123L20.121,5c2.214-0.824,4.679-1.281,7.278-1.281c2.638,0,5.142,0.474,7.382,1.318L38.12,0.21z
			 M36.86,10.867c0-1.063-0.858-1.926-1.925-1.926c-1.064,0-1.926,0.863-1.926,1.926c0,1.064,0.861,1.927,1.926,1.927
			C36.001,12.794,36.86,11.931,36.86,10.867z M21.878,10.867c0-1.063-0.863-1.926-1.928-1.926c-1.065,0-1.93,0.863-1.93,1.926
			c0,1.064,0.863,1.927,1.927,1.927C21.013,12.794,21.878,11.931,21.878,10.867z"/>
		<path fill="#58595B" d="M40.415,51.5h-2.056v8.647c0,2.125-1.722,3.853-3.854,3.853c-2.128,0-3.851-1.726-3.851-3.853V51.5h-6.339
			v8.647c0,2.125-1.726,3.853-3.854,3.853c-2.125,0-3.854-1.726-3.854-3.853V51.5h-2.227c-4.282,0-4.282-1.921-4.282-4.285V19.988
			h34.593v27.231C44.696,49.579,44.696,51.5,40.415,51.5z"/>
		<path fill="#58595B" d="M7.706,23.84v15.755c0,1.064-0.433,2.029-1.129,2.726c-0.695,0.698-1.661,1.129-2.723,1.129
			C1.726,43.449,0,41.723,0,39.595V23.84c0-1.061,0.433-2.028,1.129-2.723c0.694-0.699,1.661-1.129,2.724-1.129
			C5.979,19.988,7.706,21.714,7.706,23.84z"/>
	</g>
</g>
</svg>
