<?xml version="1.0" encoding="utf-8"?>
<!-- Generator: Adobe Illustrator 16.0.0, SVG Export Plug-In . SVG Version: 6.00 Build 0)  -->
<!DOCTYPE svg PUBLIC "-//W3C//DTD SVG 1.1//EN" "http://www.w3.org/Graphics/SVG/1.1/DTD/svg11.dtd">
<svg version="1.1" id="Layer_1" xmlns="http://www.w3.org/2000/svg" xmlns:xlink="http://www.w3.org/1999/xlink" x="0px" y="0px"
	 width="2054.898px" height="1183.723px" viewBox="0 0 2054.898 1183.723" enable-background="new 0 0 2054.898 1183.723"
	 xml:space="preserve">
<g id="Layer_4">
	<path opacity="0.3" enable-background="new    " d="M52.484,1176.729h1948.809c13.857,0,25.094,1.42,25.094,3.168v0.66
		c0,1.748-11.235,3.166-25.094,3.166H52.484c-13.859,0-25.095-1.418-25.095-3.166v-0.66
		C27.39,1178.149,38.625,1176.729,52.484,1176.729z"/>
</g>
<g id="Layer_1_1_">
	<g>
		<path fill="#464D59" d="M1862.406,1096.088c0,25.049-20.306,45.355-45.354,45.355H245.844c-25.048,0-45.354-20.307-45.354-45.355
			V45.354C200.49,20.306,220.796,0,245.844,0h1571.208c25.05,0,45.354,20.306,45.354,45.354V1096.088z"/>
		<path fill="#EBEBEB" d="M2054.898,1153.942c0,0-32.935,24.285-77.269,24.285s-1859.666,0-1897.333,0S0,1153.942,0,1153.942
			v-37.498h2054.898V1153.942z"/>
		<path fill="#D7D7D8" d="M0.002,1153.942c0.036,0.021,42.646,24.285,80.296,24.285c37.667,0,1852.999,0,1897.333,0
			c44.324,0,77.252-24.273,77.266-24.285H0.002z"/>
		<path fill="#D1D2D3" d="M881.76,1116.444c4.544,13.438,17.248,23.115,32.222,23.115h228.301c14.973,0,27.676-9.678,32.221-23.115
			H881.76z"/>
		<path fill="#D7D7D8" d="M1925.549,1135.965c0,2.475-2.004,4.479-4.478,4.479h-83.046c-2.474,0-4.478-2.004-4.478-4.479l0,0
			c0-2.473,2.004-4.477,4.478-4.477h83.046C1923.545,1131.489,1925.549,1133.493,1925.549,1135.965L1925.549,1135.965z"/>
	</g>
</g>
</svg>
