<?xml version="1.0" encoding="utf-8"?>
<!-- Generator: Adobe Illustrator 16.0.0, SVG Export Plug-In . SVG Version: 6.00 Build 0)  -->
<!DOCTYPE svg PUBLIC "-//W3C//DTD SVG 1.1//EN" "http://www.w3.org/Graphics/SVG/1.1/DTD/svg11.dtd">
<svg version="1.1" id="Layer_1" xmlns="http://www.w3.org/2000/svg" xmlns:xlink="http://www.w3.org/1999/xlink" x="0px" y="0px"
	 width="650px" height="1075px" viewBox="1000.161 -89.23 650 1075" enable-background="new 1000.161 -89.23 650 1075"
	 xml:space="preserve">
<path fill="#424A55" d="M1650.149-41.234c-0.161-26.533-22.181-47.996-49.332-47.996h-551.316
	c-27.148,0-49.167,21.463-49.332,47.996h-0.008v978.715c0,26.669,22.09,48.289,49.34,48.289h551.316
	c27.253,0,49.344-21.62,49.344-48.289V-41.234H1650.149z"/>
<path fill="#4D5562" d="M1322.909-26.212c-6.425,0-11.652-5.263-11.652-11.73c0-6.47,5.228-11.734,11.652-11.734
	c6.427,0,11.654,5.264,11.654,11.734C1334.563-31.475,1329.336-26.212,1322.909-26.212z M1322.909-45.678
	c-4.22,0-7.652,3.47-7.652,7.735c0,4.263,3.433,7.732,7.652,7.732c4.221,0,7.655-3.469,7.655-7.732
	C1330.564-42.208,1327.13-45.678,1322.909-45.678z"/>
<path fill="#3F4651" d="M1326.171-37.943c0-1.818-1.459-3.292-3.262-3.292c-1.799,0-3.262,1.474-3.262,3.292
	c0,1.814,1.463,3.287,3.262,3.287C1324.712-34.656,1326.171-36.128,1326.171-37.943z"/>
<path fill="#3F4651" d="M1363.239-37.943c0-3.899-3.134-7.055-6.998-7.055c-3.863,0-6.997,3.156-6.997,7.055
	c0,3.894,3.134,7.052,6.997,7.052C1360.105-30.891,1363.239-34.049,1363.239-37.943z"/>
<path fill="#4D5562" d="M1650.149-41.234c-0.161-26.533-22.181-47.996-49.332-47.996h-551.316
	c-27.148,0-49.167,21.463-49.332,47.996h-0.008v978.715c0,26.669,22.09,48.289,49.34,48.289h551.316
	c27.253,0,49.344-21.62,49.344-48.289V-41.234H1650.149z M1644.429,932.044c-0.164,26.534-22.185,47.998-49.337,47.998h-539.859
	c-27.147,0-49.167-21.464-49.331-47.998V-35.503c0.164-26.532,22.184-47.995,49.331-47.995h539.859
	c27.152,0,49.173,21.463,49.337,47.995V932.044z"/>
</svg>
