<?xml version="1.0" encoding="utf-8"?>
<!-- Generator: Adobe Illustrator 16.0.0, SVG Export Plug-In . SVG Version: 6.00 Build 0)  -->
<!DOCTYPE svg PUBLIC "-//W3C//DTD SVG 1.1//EN" "http://www.w3.org/Graphics/SVG/1.1/DTD/svg11.dtd">
<svg version="1.1" id="Layer_1" xmlns="http://www.w3.org/2000/svg" xmlns:xlink="http://www.w3.org/1999/xlink" x="0px" y="0px"
	 width="867.57px" height="1137.064px" viewBox="0 0 867.57 1137.064" enable-background="new 0 0 867.57 1137.064"
	 xml:space="preserve">
<path opacity="0.3" enable-background="new    " d="M26.232,1131.064h811.104c11.889,0,21.527,1.218,21.527,2.718v0.565
	c0,1.5-9.64,2.717-21.527,2.717H26.232c-11.889,0-21.526-1.217-21.526-2.717v-0.565C4.706,1132.282,14.344,1131.064,26.232,1131.064
	z"/>
<path fill="#EBEBEB" d="M865.918,1103.419c0,16.014-12.979,28.993-28.992,28.993H30.646c-16.013,0-28.992-12.979-28.992-28.993
	V30.646c0-16.012,12.979-28.993,28.992-28.993h806.279c16.013,0,28.992,12.981,28.992,28.993L865.918,1103.419L865.918,1103.419z"/>
<path fill="#D7D7D8" d="M836.926,1134.064H30.646c-16.898,0-30.646-13.748-30.646-30.646V30.646C0,13.748,13.748,0,30.646,0h806.279
	c16.896,0,30.646,13.748,30.646,30.646v1072.773C867.57,1120.316,853.821,1134.064,836.926,1134.064L836.926,1134.064z
	 M30.646,3.305c-15.076,0-27.34,12.265-27.34,27.341v1072.773c0,15.075,12.265,27.341,27.341,27.341h806.279
	c15.074,0,27.34-12.266,27.34-27.341V30.646c0-15.075-12.266-27.341-27.34-27.341H30.646L30.646,3.305z"/>
<circle fill="#D7D7D8" cx="433.786" cy="1084.825" r="28.317"/>
<g>
	<path fill="#C2C3C4" d="M440.189,1096.048h-12.81c-2.567,0-4.658-2.091-4.658-4.661v-13.436c0-2.569,2.091-4.659,4.658-4.659h12.81
		c2.57,0,4.66,2.09,4.66,4.659v13.436C444.851,1093.957,442.761,1096.048,440.189,1096.048L440.189,1096.048z M427.381,1075.495
		c-1.354,0-2.455,1.102-2.455,2.456v13.436c0,1.354,1.103,2.458,2.455,2.458h12.81c1.354,0,2.457-1.104,2.457-2.458v-13.436
		c0-1.354-1.103-2.456-2.457-2.456H427.381L427.381,1075.495z"/>
</g>
</svg>
