<?xml version="1.0" encoding="utf-8"?>
<!-- Generator: Adobe Illustrator 16.0.0, SVG Export Plug-In . SVG Version: 6.00 Build 0)  -->
<!DOCTYPE svg PUBLIC "-//W3C//DTD SVG 1.1//EN" "http://www.w3.org/Graphics/SVG/1.1/DTD/svg11.dtd">
<svg version="1.1" id="Layer_1" xmlns="http://www.w3.org/2000/svg" xmlns:xlink="http://www.w3.org/1999/xlink" x="0px" y="0px"
	 width="300.981px" height="635.969px" viewBox="0 0 300.981 635.969" enable-background="new 0 0 300.981 635.969"
	 xml:space="preserve">
<g>
	<path opacity="0.3" enable-background="new    " d="M39.268,629.969h222.445c11.89,0,21.527,1.217,21.527,2.717v0.566
		c0,1.5-9.639,2.716-21.527,2.716H39.268c-11.89,0-21.526-1.216-21.526-2.716v-0.566C17.741,631.188,27.378,629.969,39.268,629.969z
		"/>
	<g>
		<path fill="#424A55" d="M43.794,628.969c-21.479,0-38.95-17.473-38.95-38.952V44.521c0-22.57,16.381-38.951,38.95-38.951h215.238
			c22.204,0,38.949,16.745,38.949,38.951v545.497c0,21.479-17.473,38.952-38.949,38.952L43.794,628.969L43.794,628.969z"/>
		<circle fill="#3F4651" cx="151.413" cy="585.813" r="27.271"/>
		<g>
			<path fill="#4D5562" d="M157.581,596.559h-12.334c-2.441,0-4.428-1.985-4.428-4.427v-12.939c0-2.44,1.986-4.426,4.428-4.426
				h12.334c2.44,0,4.426,1.985,4.426,4.426v12.939C162.006,594.573,160.021,596.559,157.581,596.559L157.581,596.559z
				 M145.246,576.767c-1.338,0-2.428,1.087-2.428,2.426v12.939c0,1.337,1.09,2.427,2.428,2.427h12.334
				c1.338,0,2.426-1.09,2.426-2.427v-12.939c0-1.339-1.088-2.426-2.426-2.426H145.246L145.246,576.767z"/>
		</g>
		<path fill="#208CCA" d="M289.23,14.911C281.469,6.952,270.745,2.57,259.032,2.57h-8.848V1.175c0-0.649-0.645-1.175-1.438-1.175
			H202.92c-0.795,0-1.438,0.526-1.438,1.175V2.57H43.794c-24.308,0-41.95,17.643-41.95,41.951v44.076H1.439
			C0.644,88.597,0,89.243,0,90.036v26.167c0,0.793,0.644,1.438,1.439,1.438h0.404v10.947H1.439c-0.796,0-1.439,0.644-1.439,1.438
			v38.811c0,0.794,0.644,1.438,1.439,1.438h0.404v10.186H1.439c-0.796,0-1.439,0.644-1.439,1.438v39.444
			c0,0.794,0.644,1.44,1.439,1.44h0.404v367.234c0,23.134,18.818,41.952,41.95,41.952H259.03c23.133,0,41.951-18.818,41.951-41.952
			V44.521C300.981,33.197,296.809,22.68,289.23,14.911z M294.981,590.018c0,19.854-16.096,35.952-35.95,35.952H43.794
			c-19.854,0-35.95-16.097-35.95-35.952V44.521c0-21.025,14.954-35.951,35.95-35.951h215.238c21.141,0,35.949,16.095,35.949,35.951
			V590.018L294.981,590.018z"/>
		<path fill="#4D5562" d="M172.846,50.675h-42.867c-3.433,0-6.216,2.783-6.216,6.216c0,3.431,2.783,6.214,6.216,6.214h42.867
			c3.434,0,6.215-2.783,6.215-6.214C179.061,53.458,176.279,50.675,172.846,50.675z M172.086,59.553h-41.348
			c-1.4,0-2.536-1.135-2.536-2.536c0-1.402,1.136-2.537,2.536-2.537h41.348c1.399,0,2.537,1.135,2.537,2.537
			C174.624,58.418,173.486,59.553,172.086,59.553z"/>
		<g>
			<path fill="#4D5562" d="M151.413,40.508c-3.905,0-7.082-3.177-7.082-7.081v-0.254c0-3.903,3.177-7.081,7.082-7.081
				c3.902,0,7.082,3.177,7.082,7.081v0.254C158.495,37.332,155.315,40.508,151.413,40.508L151.413,40.508z M151.413,29.092
				c-2.25,0-4.082,1.831-4.082,4.081v0.254c0,2.25,1.831,4.081,4.082,4.081c2.25,0,4.082-1.831,4.082-4.081v-0.254
				C155.495,30.923,153.663,29.092,151.413,29.092L151.413,29.092z"/>
		</g>
	</g>
</g>
</svg>
